<svg xmlns="http://www.w3.org/2000/svg" width="390" height="844" viewBox="0 0 390 844"><title>Dashgo editable source-verified frame</title><rect x="0" y="0" width="390" height="844" rx="0" fill="rgb(15, 23, 42)"/><rect x="0" y="0" width="390" height="844" rx="0" fill="rgb(15, 23, 42)"/><rect x="163" y="244" width="64" height="64" rx="16" fill="rgb(30, 41, 59)" stroke="rgba(51, 65, 85, 0.5)" stroke-width="1"/><svg fill="none" viewBox="0 0 24 24" stroke-width="1.5" stroke="currentColor" x="179" y="260" width="32" height="32" color="rgb(96, 165, 250)" style="color:rgb(96, 165, 250);overflow:visible" xmlns="http://www.w3.org/2000/svg"><path stroke-linecap="round" stroke-linejoin="round" d="M21 7.5l-2.25-1.313M21 7.5v2.25m0-2.25l-2.25 1.313M3 7.5l2.25-1.313M3 7.5l2.25 1.313M3 7.5v2.25m9 3l2.25-1.313M12 12.75l-2.25-1.313M12 12.75V15m0 6.75l2.25-1.313M12 21.75V19.5m0 2.25l-2.25-1.313m0-16.875L12 2.25l2.25 1.313M21 14.25v2.25l-2.25 1.313m-13.5 0L3 16.5v-2.25"></path></svg><text x="156.02" y="347.12" fill="rgb(241, 245, 249)" font-family="-apple-system" font-size="24" font-weight="700" letter-spacing="-0.6">Dashgo</text><text x="94.7" y="374.32" fill="rgb(148, 163, 184)" font-family="-apple-system" font-size="14" font-weight="400">Enter</text><text x="130.61" y="374.32" fill="rgb(148, 163, 184)" font-family="-apple-system" font-size="14" font-weight="400">your</text><text x="161.05" y="374.32" fill="rgb(148, 163, 184)" font-family="-apple-system" font-size="14" font-weight="400">password</text><text x="225.45" y="374.32" fill="rgb(148, 163, 184)" font-family="-apple-system" font-size="14" font-weight="400">to</text><text x="241.36" y="374.32" fill="rgb(148, 163, 184)" font-family="-apple-system" font-size="14" font-weight="400">continue</text><rect x="16" y="412" width="358" height="188" rx="12" fill="rgba(30, 41, 59, 0.6)" stroke="rgba(51, 65, 85, 0.4)" stroke-width="1"/><text x="41" y="448.56" fill="rgb(148, 163, 184)" font-family="-apple-system" font-size="12" font-weight="600" letter-spacing="0.6">Password</text><rect x="41" y="461" width="308" height="50" rx="8" fill="rgba(15, 23, 42, 0.5)" stroke="rgb(57, 110, 197)" stroke-width="1"/><text x="57" y="492.08" fill="rgb(241, 245, 249)" font-family="-apple-system" font-size="16" font-weight="400">••••••••</text><rect x="41" y="527" width="308" height="48" rx="8" fill="rgb(37, 99, 235)"/><text x="170.09" y="555.08" fill="rgb(255, 255, 255)" font-family="-apple-system" font-size="16" font-weight="600">Sign</text><text x="206.25" y="555.08" fill="rgb(255, 255, 255)" font-family="-apple-system" font-size="16" font-weight="600">In</text></svg>