<svg xmlns="http://www.w3.org/2000/svg" width="390" height="844" viewBox="0 0 390 844"><title>Dashgo editable source-verified frame</title><rect x="0" y="0" width="390" height="844" rx="0" fill="rgb(15, 23, 42)"/><rect x="0" y="0" width="390" height="844" rx="0" fill="rgb(17, 24, 39)"/><rect x="0" y="780" width="390" height="64" rx="0" fill="rgba(15, 23, 42, 0.95)" stroke="rgba(51, 65, 85, 0.7)" stroke-width="1"/><svg fill="none" viewBox="0 0 24 24" stroke="currentColor" stroke-width="2" x="44.75" y="793" width="20" height="20" color="rgb(74, 222, 128)" style="color:rgb(74, 222, 128);overflow:visible" xmlns="http://www.w3.org/2000/svg"><path stroke-linecap="round" stroke-linejoin="round" d="M4 6a2 2 0 012-2h2a2 2 0 012 2v2a2 2 0 01-2 2H6a2 2 0 01-2-2V6zM14 6a2 2 0 012-2h2a2 2 0 012 2v2a2 2 0 01-2 2h-2a2 2 0 01-2-2V6zM4 16a2 2 0 012-2h2a2 2 0 012 2v2a2 2 0 01-2 2H6a2 2 0 01-2-2v-2zM14 16a2 2 0 012-2h2a2 2 0 012 2v2a2 2 0 01-2 2h-2a2 2 0 01-2-2v-2z"></path></svg><text x="30.5" y="827.8" fill="rgb(74, 222, 128)" font-family="-apple-system" font-size="10" font-weight="500">Dashboard</text><svg fill="none" viewBox="0 0 24 24" stroke="currentColor" stroke-width="2" x="138.25" y="793" width="20" height="20" color="rgb(100, 116, 139)" style="color:rgb(100, 116, 139);overflow:visible" xmlns="http://www.w3.org/2000/svg"><path stroke-linecap="round" stroke-linejoin="round" d="M21 12a9 9 0 01-9 9m9-9a9 9 0 00-9-9m9 9H3m9 9a9 9 0 01-9-9m9 9c1.657 0 3-4.03 3-9s-1.343-9-3-9m0 18c-1.657 0-3-4.03-3-9s1.343-9 3-9m-9 9a9 9 0 019-9"></path></svg><text x="133.22" y="827.8" fill="rgb(100, 116, 139)" font-family="-apple-system" font-size="10" font-weight="500">Tailnet</text><svg fill="none" viewBox="0 0 24 24" stroke="currentColor" stroke-width="2" x="231.75" y="793" width="20" height="20" color="rgb(100, 116, 139)" style="color:rgb(100, 116, 139);overflow:visible" xmlns="http://www.w3.org/2000/svg"><path stroke-linecap="round" stroke-linejoin="round" d="M10.325 4.317c.426-1.756 2.924-1.756 3.35 0a1.724 1.724 0 002.573 1.066c1.543-.94 3.31.826 2.37 2.37a1.724 1.724 0 001.065 2.572c1.756.426 1.756 2.924 0 3.35a1.724 1.724 0 00-1.066 2.573c.94 1.543-.826 3.31-2.37 2.37a1.724 1.724 0 00-2.572 1.065c-.426 1.756-2.924 1.756-3.35 0a1.724 1.724 0 00-2.573-1.066c-1.543.94-3.31-.826-2.37-2.37a1.724 1.724 0 00-1.065-2.572c-1.756-.426-1.756-2.924 0-3.35a1.724 1.724 0 001.066-2.573c-.94-1.543.826-3.31 2.37-2.37.996.608 2.296.07 2.572-1.065z"></path><path stroke-linecap="round" stroke-linejoin="round" d="M15 12a3 3 0 11-6 0 3 3 0 016 0z"></path></svg><text x="223.23" y="827.8" fill="rgb(100, 116, 139)" font-family="-apple-system" font-size="10" font-weight="500">Settings</text><svg fill="none" viewBox="0 0 24 24" stroke-width="1.5" stroke="currentColor" x="325.25" y="793" width="20" height="20" color="rgb(100, 116, 139)" style="color:rgb(100, 116, 139);overflow:visible" xmlns="http://www.w3.org/2000/svg"><path stroke-linecap="round" stroke-linejoin="round" d="M15.75 9V5.25A2.25 2.25 0 0013.5 3h-6a2.25 2.25 0 00-2.25 2.25v13.5A2.25 2.25 0 007.5 21h6a2.25 2.25 0 002.25-2.25V15m3 0l3-3m0 0l-3-3m3 3H9"></path></svg><text x="316.8" y="827.8" fill="rgb(100, 116, 139)" font-family="-apple-system" font-size="10" font-weight="500">Sign</text><text x="339.11" y="827.8" fill="rgb(100, 116, 139)" font-family="-apple-system" font-size="10" font-weight="500">out</text><rect x="0" y="0" width="390" height="780" rx="0" fill="rgb(15, 23, 42)"/><rect x="16" y="16" width="105.64" height="30" rx="8" fill="rgba(34, 197, 94, 0.1)" stroke="rgba(34, 197, 94, 0.2)" stroke-width="1"/><rect x="29" y="27" width="8" height="8" rx="9999" fill="rgb(74, 222, 128)"/><text x="45" y="34.56" fill="rgb(74, 222, 128)" font-family="-apple-system" font-size="12" font-weight="600">orange-pi-5</text><rect x="133.64" y="16" width="73.2" height="30" rx="8" fill="rgb(30, 41, 59)" stroke="rgba(51, 65, 85, 0.5)" stroke-width="1"/><text x="146.64" y="34.3" fill="rgb(100, 116, 139)" font-family="-apple-system" font-size="10" font-weight="600">CPU</text><text x="172.23" y="34.56" fill="rgb(203, 213, 225)" font-family="ui-monospace" font-size="12" font-weight="500">18%</text><rect x="218.84" y="16" width="147.5" height="30" rx="8" fill="rgb(30, 41, 59)" stroke="rgba(51, 65, 85, 0.5)" stroke-width="1"/><text x="231.84" y="34.3" fill="rgb(100, 116, 139)" font-family="-apple-system" font-size="10" font-weight="600">RAM</text><text x="259.72" y="34.56" fill="rgb(203, 213, 225)" font-family="ui-monospace" font-size="12" font-weight="500">3.2</text><text x="288.52" y="34.56" fill="rgb(203, 213, 225)" font-family="ui-monospace" font-size="12" font-weight="500">GB</text><text x="310.13" y="34.56" fill="rgb(203, 213, 225)" font-family="ui-monospace" font-size="12" font-weight="500">/</text><text x="324.52" y="34.56" fill="rgb(203, 213, 225)" font-family="ui-monospace" font-size="12" font-weight="500">8</text><text x="338.92" y="34.56" fill="rgb(203, 213, 225)" font-family="ui-monospace" font-size="12" font-weight="500">GB</text><rect x="16" y="58" width="75.55" height="30" rx="8" fill="rgb(30, 41, 59)" stroke="rgba(51, 65, 85, 0.5)" stroke-width="1"/><text x="29" y="76.3" fill="rgb(100, 116, 139)" font-family="-apple-system" font-size="10" font-weight="600">Disk</text><text x="56.94" y="76.56" fill="rgb(203, 213, 225)" font-family="ui-monospace" font-size="12" font-weight="500">48%</text><rect x="103.55" y="58" width="74.81" height="30" rx="8" fill="rgb(30, 41, 59)" stroke="rgba(51, 65, 85, 0.5)" stroke-width="1"/><svg fill="none" viewBox="0 0 24 24" stroke-width="1.5" stroke="currentColor" style="color:rgb(34, 197, 94);overflow:visible" x="116.55" y="66" width="14" height="14" color="rgb(34, 197, 94)" xmlns="http://www.w3.org/2000/svg"><path stroke-linecap="round" stroke-linejoin="round" d="M15.362 5.214A8.252 8.252 0 0112 21 8.25 8.25 0 016.038 7.048 8.287 8.287 0 009 9.6a8.983 8.983 0 013.361-6.867 8.21 8.21 0 003 2.48z"></path></svg><text x="136.55" y="76.56" fill="rgb(34, 197, 94)" font-family="ui-monospace" font-size="12" font-weight="400">54</text><text x="150.95" y="76.56" fill="rgb(34, 197, 94)" font-family="ui-monospace" font-size="12" font-weight="400">°C</text><rect x="190.36" y="58" width="136.47" height="30" rx="8" fill="rgb(30, 41, 59)" stroke="rgba(51, 65, 85, 0.5)" stroke-width="1"/><text x="203.36" y="76.3" fill="rgb(100, 116, 139)" font-family="-apple-system" font-size="10" font-weight="600">Tailnet</text><text x="249.02" y="76.56" fill="rgb(96, 165, 250)" font-family="ui-monospace" font-size="12" font-weight="500">Connected</text><rect x="16" y="100" width="79.3" height="30" rx="8" fill="rgba(6, 182, 212, 0.1)" stroke="rgba(6, 182, 212, 0.2)" stroke-width="1"/><text x="29" y="118.56" fill="rgb(34, 211, 238)" font-family="-apple-system" font-size="12" font-weight="600">2</text><text x="38.88" y="118.56" fill="rgb(34, 211, 238)" font-family="-apple-system" font-size="12" font-weight="600">update</text><text x="76.11" y="118.56" fill="rgb(34, 211, 238)" font-family="-apple-system" font-size="12" font-weight="600">s</text><rect x="284.39" y="100" width="89.61" height="30" rx="8" fill="rgb(30, 41, 59)" stroke="rgba(51, 65, 85, 0.5)" stroke-width="1"/><svg fill="none" viewBox="0 0 24 24" stroke="currentColor" stroke-width="2" x="297.39" y="108" width="14" height="14" color="rgb(226, 232, 240)" style="color:rgb(226, 232, 240);overflow:visible" xmlns="http://www.w3.org/2000/svg"><path stroke-linecap="round" stroke-linejoin="round" d="M4 4v5h.582m15.356 2A8.001 8.001 0 004.582 9m0 0H9m11 11v-5h-.581m0 0a8.003 8.003 0 01-15.357-2m15.357 2H15"></path></svg><text x="319.39" y="118.56" fill="rgb(226, 232, 240)" font-family="-apple-system" font-size="12" font-weight="500">Refresh</text><rect x="16" y="154" width="358" height="138" rx="12" fill="rgba(245, 158, 11, 0.05)" stroke="rgba(245, 158, 11, 0.15)" stroke-width="1"/><text x="33" y="185.32" fill="rgb(251, 191, 36)" font-family="-apple-system" font-size="14" font-weight="600">4</text><text x="44.53" y="185.32" fill="rgb(251, 191, 36)" font-family="-apple-system" font-size="14" font-weight="600">item</text><text x="72.67" y="185.32" fill="rgb(251, 191, 36)" font-family="-apple-system" font-size="14" font-weight="600">s</text><text x="83.38" y="185.32" fill="rgb(251, 191, 36)" font-family="-apple-system" font-size="14" font-weight="600">need</text><text x="117.73" y="185.32" fill="rgb(251, 191, 36)" font-family="-apple-system" font-size="14" font-weight="600">attention</text><text x="33" y="210.56" fill="rgb(203, 213, 225)" font-family="-apple-system" font-size="12" font-weight="400">🔴</text><text x="55.98" y="210.56" fill="rgb(203, 213, 225)" font-family="-apple-system" font-size="12" font-weight="400">Paperless:</text><text x="114.73" y="210.56" fill="rgb(203, 213, 225)" font-family="-apple-system" font-size="12" font-weight="400">unhealthy</text><text x="33" y="230.56" fill="rgb(203, 213, 225)" font-family="-apple-system" font-size="12" font-weight="400">⚪</text><text x="55.98" y="230.56" fill="rgb(203, 213, 225)" font-family="-apple-system" font-size="12" font-weight="400">archive-job:</text><text x="120.02" y="230.56" fill="rgb(203, 213, 225)" font-family="-apple-system" font-size="12" font-weight="400">exited</text><text x="33" y="250.56" fill="rgb(203, 213, 225)" font-family="-apple-system" font-size="12" font-weight="400">🔵</text><text x="55.98" y="250.56" fill="rgb(203, 213, 225)" font-family="-apple-system" font-size="12" font-weight="400">Home</text><text x="91.25" y="250.56" fill="rgb(203, 213, 225)" font-family="-apple-system" font-size="12" font-weight="400">Assistant:</text><text x="147.45" y="250.56" fill="rgb(203, 213, 225)" font-family="-apple-system" font-size="12" font-weight="400">new</text><text x="172.44" y="250.56" fill="rgb(203, 213, 225)" font-family="-apple-system" font-size="12" font-weight="400">image</text><text x="208.48" y="250.56" fill="rgb(203, 213, 225)" font-family="-apple-system" font-size="12" font-weight="400">available</text><text x="33" y="270.56" fill="rgb(203, 213, 225)" font-family="-apple-system" font-size="12" font-weight="400">🔵</text><text x="55.98" y="270.56" fill="rgb(203, 213, 225)" font-family="-apple-system" font-size="12" font-weight="400">Dashgo:</text><text x="102.64" y="270.56" fill="rgb(203, 213, 225)" font-family="-apple-system" font-size="12" font-weight="400">new</text><text x="127.63" y="270.56" fill="rgb(203, 213, 225)" font-family="-apple-system" font-size="12" font-weight="400">image</text><text x="163.67" y="270.56" fill="rgb(203, 213, 225)" font-family="-apple-system" font-size="12" font-weight="400">available</text><rect x="16" y="316" width="171" height="93" rx="12" fill="rgba(30, 41, 59, 0.6)" stroke="rgba(51, 65, 85, 0.4)" stroke-width="1"/><text x="37" y="343.8" fill="rgb(100, 116, 139)" font-family="-apple-system" font-size="10" font-weight="600" letter-spacing="0.5">Containers</text><text x="37" y="366.32" fill="rgb(96, 165, 250)" font-family="-apple-system" font-size="14" font-weight="700">7</text><text x="49.05" y="366.32" fill="rgb(100, 116, 139)" font-family="-apple-system" font-size="14" font-weight="400">running</text><rect x="203" y="316" width="171" height="93" rx="12" fill="rgba(30, 41, 59, 0.6)" stroke="rgba(51, 65, 85, 0.4)" stroke-width="1"/><text x="224" y="343.8" fill="rgb(100, 116, 139)" font-family="-apple-system" font-size="10" font-weight="600" letter-spacing="0.5">Health</text><text x="224" y="366.32" fill="rgb(248, 113, 113)" font-family="-apple-system" font-size="14" font-weight="700">5</text><text x="235.52" y="366.32" fill="rgb(248, 113, 113)" font-family="-apple-system" font-size="14" font-weight="700">healthy</text><text x="285.23" y="366.32" fill="rgb(248, 113, 113)" font-family="-apple-system" font-size="14" font-weight="700">·</text><text x="292.94" y="366.32" fill="rgb(248, 113, 113)" font-family="-apple-system" font-size="14" font-weight="700">1</text><text x="224" y="386.32" fill="rgb(248, 113, 113)" font-family="-apple-system" font-size="14" font-weight="700">unhealthy</text><rect x="16" y="425" width="171" height="73" rx="12" fill="rgba(30, 41, 59, 0.6)" stroke="rgba(51, 65, 85, 0.4)" stroke-width="1"/><text x="37" y="452.8" fill="rgb(100, 116, 139)" font-family="-apple-system" font-size="10" font-weight="600" letter-spacing="0.5">Published</text><text x="37" y="475.32" fill="rgb(192, 132, 252)" font-family="-apple-system" font-size="14" font-weight="700">6</text><text x="49.05" y="475.32" fill="rgb(100, 116, 139)" font-family="-apple-system" font-size="14" font-weight="400">services</text><rect x="203" y="425" width="171" height="73" rx="12" fill="rgba(30, 41, 59, 0.6)" stroke="rgba(51, 65, 85, 0.4)" stroke-width="1"/><text x="224" y="452.8" fill="rgb(100, 116, 139)" font-family="-apple-system" font-size="10" font-weight="600" letter-spacing="0.5">Updates</text><text x="224" y="475.32" fill="rgb(34, 211, 238)" font-family="-apple-system" font-size="14" font-weight="700">2</text><text x="235.52" y="475.32" fill="rgb(34, 211, 238)" font-family="-apple-system" font-size="14" font-weight="700">available</text><rect x="16" y="522" width="358" height="40" rx="8" fill="rgb(30, 41, 59)" stroke="rgba(51, 65, 85, 0.5)" stroke-width="1"/><rect x="19" y="525" width="78.53" height="32" rx="6" fill="rgb(51, 65, 85)"/><text x="35" y="544.56" fill="rgb(241, 245, 249)" font-family="-apple-system" font-size="12" font-weight="600">Services</text><text x="113.53" y="544.56" fill="rgb(148, 163, 184)" font-family="-apple-system" font-size="12" font-weight="600">Containers</text><text x="204.34" y="544.56" fill="rgb(148, 163, 184)" font-family="-apple-system" font-size="12" font-weight="600">Needs</text><text x="241.72" y="544.56" fill="rgb(148, 163, 184)" font-family="-apple-system" font-size="12" font-weight="600">Attention</text><text x="323.77" y="544.56" fill="rgb(148, 163, 184)" font-family="-apple-system" font-size="12" font-weight="600">Updates</text><rect x="16" y="574" width="358" height="38" rx="8" fill="rgb(30, 41, 59)" stroke="rgba(51, 65, 85, 0.5)" stroke-width="1"/><text x="32" y="598.32" fill="rgb(241, 245, 249)" font-family="-apple-system" font-size="14" font-weight="400">Search...</text><rect x="16" y="632" width="358" height="307.19" rx="12" fill="rgba(30, 41, 59, 0.7)" stroke="rgba(51, 65, 85, 0.6)" stroke-width="1"/><text x="33" y="663.32" fill="rgb(241, 245, 249)" font-family="-apple-system" font-size="14" font-weight="500">Home</text><text x="74.11" y="663.32" fill="rgb(241, 245, 249)" font-family="-apple-system" font-size="14" font-weight="500">Assistant</text><text x="33" y="680.68" fill="rgb(100, 116, 139)" font-family="ui-monospace" font-size="11" font-weight="400">home-assistant:stable</text><rect x="33" y="722.3" width="6" height="6" rx="9999" fill="rgb(74, 222, 128)"/><text x="45" y="728.86" fill="rgb(74, 222, 128)" font-family="-apple-system" font-size="12" font-weight="500">Running</text><text x="33" y="746.86" fill="rgb(74, 222, 128)" font-family="-apple-system" font-size="12" font-weight="500">✓</text><text x="46.06" y="746.86" fill="rgb(74, 222, 128)" font-family="-apple-system" font-size="12" font-weight="500">Healthy</text><rect x="33" y="783.09" width="80.94" height="21" rx="4" fill="rgba(59, 130, 246, 0.1)" stroke="rgba(59, 130, 246, 0.2)" stroke-width="1"/><text x="42" y="796.89" fill="rgb(96, 165, 250)" font-family="-apple-system" font-size="10" font-weight="500">Local</text><text x="68.8" y="796.89" fill="rgb(96, 165, 250)" font-family="-apple-system" font-size="10" font-weight="500">network</text><rect x="117.94" y="783.09" width="57.53" height="21" rx="4" fill="rgba(59, 130, 246, 0.1)" stroke="rgba(59, 130, 246, 0.2)" stroke-width="1"/><text x="126.94" y="796.89" fill="rgb(96, 165, 250)" font-family="-apple-system" font-size="10" font-weight="500">Tailscale</text><text x="179.47" y="793.89" fill="rgb(100, 116, 139)" font-family="-apple-system" font-size="10" font-weight="400">+</text><text x="185.16" y="793.89" fill="rgb(100, 116, 139)" font-family="-apple-system" font-size="10" font-weight="400">1</text><rect x="33" y="840.89" width="55.41" height="17" rx="6" fill="rgba(6, 182, 212, 0.1)" stroke="rgba(6, 182, 212, 0.2)" stroke-width="1"/><text x="42" y="852.69" fill="rgb(34, 211, 238)" font-family="-apple-system" font-size="10" font-weight="700">Update</text><rect x="0" y="0" width="390" height="844" rx="0" fill="rgba(0, 0, 0, 0.4)"/><rect x="0" y="434.37" width="390" height="717.39" rx="16" fill="rgb(15, 23, 42)" stroke="rgba(51, 65, 85, 0.7)" stroke-width="1"/><rect x="0" y="435.37" width="390" height="79" rx="0" fill="rgb(15, 23, 42)" stroke="rgba(51, 65, 85, 0.5)" stroke-width="1"/><text x="24" y="470.21" fill="rgb(241, 245, 249)" font-family="-apple-system" font-size="18" font-weight="700">Home</text><text x="76.69" y="470.21" fill="rgb(241, 245, 249)" font-family="-apple-system" font-size="18" font-weight="700">Assistant</text><text x="24" y="492.93" fill="rgb(100, 116, 139)" font-family="ui-monospace" font-size="12" font-weight="400">ha1234567890</text><svg fill="none" viewBox="0 0 24 24" stroke-width="1.5" stroke="currentColor" x="338" y="464.37" width="20" height="20" color="rgb(100, 116, 139)" style="color:rgb(100, 116, 139);overflow:visible" xmlns="http://www.w3.org/2000/svg"><path stroke-linecap="round" stroke-linejoin="round" d="M6 18L18 6M6 6l12 12"></path></svg><rect x="0" y="514.37" width="390" height="43" rx="0" fill="none" stroke="rgba(51, 65, 85, 0.5)" stroke-width="1"/><rect x="24" y="514.37" width="95.7" height="42" rx="0" fill="none" stroke="rgb(96, 165, 250)" stroke-width="2"/><text x="40" y="537.93" fill="rgb(96, 165, 250)" font-family="-apple-system" font-size="12" font-weight="600" letter-spacing="0.6">overview</text><text x="135.7" y="537.93" fill="rgb(100, 116, 139)" font-family="-apple-system" font-size="12" font-weight="600" letter-spacing="0.6">inspect</text><text x="24" y="588.17" fill="rgb(100, 116, 139)" font-family="-apple-system" font-size="10" font-weight="600" letter-spacing="0.5">Status</text><rect x="24" y="605.37" width="6" height="6" rx="9999" fill="rgb(74, 222, 128)"/><text x="36" y="611.93" fill="rgb(74, 222, 128)" font-family="-apple-system" font-size="12" font-weight="500">Running</text><text x="96.06" y="611.93" fill="rgb(74, 222, 128)" font-family="-apple-system" font-size="12" font-weight="500">✓</text><text x="109.13" y="611.93" fill="rgb(74, 222, 128)" font-family="-apple-system" font-size="12" font-weight="500">Healthy</text><text x="24" y="647.17" fill="rgb(100, 116, 139)" font-family="-apple-system" font-size="10" font-weight="600" letter-spacing="0.5">Image</text><text x="24" y="670.93" fill="rgb(148, 163, 184)" font-family="ui-monospace" font-size="12" font-weight="400">ghcr.io/home-assistant/home-assistant:stable</text><rect x="24" y="683.37" width="342" height="34" rx="8" fill="rgba(6, 182, 212, 0.1)" stroke="rgba(6, 182, 212, 0.2)" stroke-width="1"/><text x="37" y="703.93" fill="rgb(34, 211, 238)" font-family="-apple-system" font-size="12" font-weight="600">⬆</text><text x="50.03" y="703.93" fill="rgb(34, 211, 238)" font-family="-apple-system" font-size="12" font-weight="600">Update</text><text x="91.42" y="703.93" fill="rgb(34, 211, 238)" font-family="-apple-system" font-size="12" font-weight="600">available</text><text x="24" y="748.17" fill="rgb(100, 116, 139)" font-family="-apple-system" font-size="10" font-weight="600" letter-spacing="0.5">Created</text><text x="24" y="771.93" fill="rgb(148, 163, 184)" font-family="-apple-system" font-size="12" font-weight="400">5/22/2026,</text><text x="86.44" y="771.93" fill="rgb(148, 163, 184)" font-family="-apple-system" font-size="12" font-weight="400">9:25:58</text><text x="128.95" y="771.93" fill="rgb(148, 163, 184)" font-family="-apple-system" font-size="12" font-weight="400">PM</text><text x="149.98" y="771.93" fill="rgb(148, 163, 184)" font-family="-apple-system" font-size="12" font-weight="400">(</text><text x="154.11" y="771.93" fill="rgb(148, 163, 184)" font-family="-apple-system" font-size="12" font-weight="400">18d</text><text x="177.33" y="771.93" fill="rgb(148, 163, 184)" font-family="-apple-system" font-size="12" font-weight="400">ago</text><text x="197.45" y="771.93" fill="rgb(148, 163, 184)" font-family="-apple-system" font-size="12" font-weight="400">)</text><text x="24" y="807.17" fill="rgb(100, 116, 139)" font-family="-apple-system" font-size="10" font-weight="600" letter-spacing="0.5">Resource</text><text x="81.17" y="807.17" fill="rgb(100, 116, 139)" font-family="-apple-system" font-size="10" font-weight="600" letter-spacing="0.5">Usage</text><text x="24" y="830.93" fill="rgb(100, 116, 139)" font-family="-apple-system" font-size="12" font-weight="400">CPU</text><text x="337.19" y="830.93" fill="rgb(203, 213, 225)" font-family="ui-monospace" font-size="12" font-weight="400">1.8</text><text x="358.8" y="830.93" fill="rgb(203, 213, 225)" font-family="ui-monospace" font-size="12" font-weight="400">%</text><rect x="24" y="839.37" width="342" height="6" rx="9999" fill="rgb(51, 65, 85)"/><rect x="24" y="839.37" width="6.14" height="6" rx="9999" fill="rgb(59, 130, 246)"/></svg>