<svg xmlns="http://www.w3.org/2000/svg" width="390" height="844" viewBox="0 0 390 844"><title>Dashgo editable source-verified frame</title><rect x="0" y="0" width="390" height="844" rx="0" fill="rgb(15, 23, 42)"/><rect x="0" y="0" width="390" height="844" rx="0" fill="rgb(17, 24, 39)"/><rect x="0" y="780" width="390" height="64" rx="0" fill="rgba(15, 23, 42, 0.95)" stroke="rgba(51, 65, 85, 0.7)" stroke-width="1"/><svg fill="none" viewBox="0 0 24 24" stroke="currentColor" stroke-width="2" x="44.75" y="793" width="20" height="20" color="rgb(100, 117, 139)" style="color:rgb(100, 117, 139);overflow:visible" xmlns="http://www.w3.org/2000/svg"><path stroke-linecap="round" stroke-linejoin="round" d="M4 6a2 2 0 012-2h2a2 2 0 012 2v2a2 2 0 01-2 2H6a2 2 0 01-2-2V6zM14 6a2 2 0 012-2h2a2 2 0 012 2v2a2 2 0 01-2 2h-2a2 2 0 01-2-2V6zM4 16a2 2 0 012-2h2a2 2 0 012 2v2a2 2 0 01-2 2H6a2 2 0 01-2-2v-2zM14 16a2 2 0 012-2h2a2 2 0 012 2v2a2 2 0 01-2 2h-2a2 2 0 01-2-2v-2z"></path></svg><text x="30.5" y="827.8" fill="rgb(100, 117, 139)" font-family="-apple-system" font-size="10" font-weight="500">Dashboard</text><svg fill="none" viewBox="0 0 24 24" stroke="currentColor" stroke-width="2" x="138.25" y="793" width="20" height="20" color="rgb(100, 116, 139)" style="color:rgb(100, 116, 139);overflow:visible" xmlns="http://www.w3.org/2000/svg"><path stroke-linecap="round" stroke-linejoin="round" d="M21 12a9 9 0 01-9 9m9-9a9 9 0 00-9-9m9 9H3m9 9a9 9 0 01-9-9m9 9c1.657 0 3-4.03 3-9s-1.343-9-3-9m0 18c-1.657 0-3-4.03-3-9s1.343-9 3-9m-9 9a9 9 0 019-9"></path></svg><text x="133.22" y="827.8" fill="rgb(100, 116, 139)" font-family="-apple-system" font-size="10" font-weight="500">Tailnet</text><svg fill="none" viewBox="0 0 24 24" stroke="currentColor" stroke-width="2" x="231.75" y="793" width="20" height="20" color="rgb(74, 221, 128)" style="color:rgb(74, 221, 128);overflow:visible" xmlns="http://www.w3.org/2000/svg"><path stroke-linecap="round" stroke-linejoin="round" d="M10.325 4.317c.426-1.756 2.924-1.756 3.35 0a1.724 1.724 0 002.573 1.066c1.543-.94 3.31.826 2.37 2.37a1.724 1.724 0 001.065 2.572c1.756.426 1.756 2.924 0 3.35a1.724 1.724 0 00-1.066 2.573c.94 1.543-.826 3.31-2.37 2.37a1.724 1.724 0 00-2.572 1.065c-.426 1.756-2.924 1.756-3.35 0a1.724 1.724 0 00-2.573-1.066c-1.543.94-3.31-.826-2.37-2.37a1.724 1.724 0 00-1.065-2.572c-1.756-.426-1.756-2.924 0-3.35a1.724 1.724 0 001.066-2.573c-.94-1.543.826-3.31 2.37-2.37.996.608 2.296.07 2.572-1.065z"></path><path stroke-linecap="round" stroke-linejoin="round" d="M15 12a3 3 0 11-6 0 3 3 0 016 0z"></path></svg><text x="223.23" y="827.8" fill="rgb(74, 221, 128)" font-family="-apple-system" font-size="10" font-weight="500">Settings</text><svg fill="none" viewBox="0 0 24 24" stroke-width="1.5" stroke="currentColor" x="325.25" y="793" width="20" height="20" color="rgb(100, 116, 139)" style="color:rgb(100, 116, 139);overflow:visible" xmlns="http://www.w3.org/2000/svg"><path stroke-linecap="round" stroke-linejoin="round" d="M15.75 9V5.25A2.25 2.25 0 0013.5 3h-6a2.25 2.25 0 00-2.25 2.25v13.5A2.25 2.25 0 007.5 21h6a2.25 2.25 0 002.25-2.25V15m3 0l3-3m0 0l-3-3m3 3H9"></path></svg><text x="316.8" y="827.8" fill="rgb(100, 116, 139)" font-family="-apple-system" font-size="10" font-weight="500">Sign</text><text x="339.11" y="827.8" fill="rgb(100, 116, 139)" font-family="-apple-system" font-size="10" font-weight="500">out</text><rect x="0" y="0" width="390" height="780" rx="0" fill="rgb(15, 23, 42)"/><rect x="0" y="0" width="390" height="71" rx="0" fill="none" stroke="rgb(30, 41, 59)" stroke-width="1"/><rect x="12" y="12" width="100.23" height="42" rx="8" fill="rgb(30, 41, 59)" stroke="rgba(51, 65, 85, 0.5)" stroke-width="1"/><svg fill="none" viewBox="0 0 24 24" stroke-width="1.5" stroke="currentColor" x="25" y="25" width="16" height="16" color="rgb(96, 165, 250)" style="color:rgb(96, 165, 250);overflow:visible" xmlns="http://www.w3.org/2000/svg"><path stroke-linecap="round" stroke-linejoin="round" d="M9.594 3.94c.09-.542.56-.94 1.11-.94h2.593c.55 0 1.02.398 1.11.94l.213 1.281c.063.374.313.686.645.87.074.04.147.083.22.127.324.196.72.257 1.075.124l1.217-.456a1.125 1.125 0 011.37.49l1.296 2.247a1.125 1.125 0 01-.26 1.431l-1.003.827c-.293.24-.438.613-.431.992a6.759 6.759 0 010 .255c-.007.378.138.75.43.99l1.005.828c.424.35.534.954.26 1.43l-1.298 2.247a1.125 1.125 0 01-1.369.491l-1.217-.456c-.355-.133-.75-.072-1.076.124a6.57 6.57 0 01-.22.128c-.331.183-.581.495-.644.869l-.213 1.28c-.09.543-.56.941-1.11.941h-2.594c-.55 0-1.02-.398-1.11-.94l-.213-1.281c-.062-.374-.312-.686-.644-.87a6.52 6.52 0 01-.22-.127c-.325-.196-.72-.257-1.076-.124l-1.217.456a1.125 1.125 0 01-1.369-.49l-1.297-2.247a1.125 1.125 0 01.26-1.431l1.004-.827c.292-.24.437-.613.43-.992a6.932 6.932 0 010-.255c.007-.378-.138-.75-.43-.99l-1.004-.828a1.125 1.125 0 01-.26-1.43l1.297-2.247a1.125 1.125 0 011.37-.491l1.216.456c.356.133.751.072 1.076-.124.072-.044.146-.087.22-.128.332-.183.582-.495.644-.869l.214-1.281z"></path><circle cx="12" cy="12" r="3"></circle></svg><text x="51" y="37.32" fill="rgb(241, 245, 249)" font-family="-apple-system" font-size="14" font-weight="500">General</text><svg fill="none" viewBox="0 0 24 24" stroke-width="1.5" stroke="currentColor" x="128.23" y="26" width="16" height="16" color="rgb(148, 163, 184)" style="color:rgb(148, 163, 184);overflow:visible" xmlns="http://www.w3.org/2000/svg"><path stroke-linecap="round" stroke-linejoin="round" d="M12 21a9.004 9.004 0 008.716-6.747M12 21a9.004 9.004 0 01-8.716-6.747M12 21c2.485 0 4.5-4.03 4.5-9S14.485 3 12 3m0 18c-2.485 0-4.5-4.03-4.5-9S9.515 3 12 3m0 0a8.997 8.997 0 017.843 4.582M12 3a8.997 8.997 0 00-7.843 4.582m15.686 0A11.953 11.953 0 0112 10.5c-2.998 0-5.74-1.1-7.843-2.918m15.686 0A8.959 8.959 0 0121 12c0 .778-.099 1.533-.284 2.253m0 0A17.919 17.919 0 0112 16.5c-3.162 0-6.133-.815-8.716-2.247m0 0A9.015 9.015 0 013 12c0-1.605.42-3.113 1.157-4.418"></path></svg><text x="154.23" y="38.32" fill="rgb(148, 163, 184)" font-family="-apple-system" font-size="14" font-weight="500">Network</text><text x="210.44" y="38.32" fill="rgb(148, 163, 184)" font-family="-apple-system" font-size="14" font-weight="500">&amp;</text><text x="222.88" y="38.32" fill="rgb(148, 163, 184)" font-family="-apple-system" font-size="14" font-weight="500">Links</text><svg fill="none" viewBox="0 0 24 24" stroke-width="1.5" stroke="currentColor" x="284.38" y="26" width="16" height="16" color="rgb(148, 163, 184)" style="color:rgb(148, 163, 184);overflow:visible" xmlns="http://www.w3.org/2000/svg"><path stroke-linecap="round" stroke-linejoin="round" d="M13.19 8.688a4.5 4.5 0 011.242 7.244l-4.5 4.5a4.5 4.5 0 01-6.364-6.364l1.757-1.757m13.35-.622l1.757-1.757a4.5 4.5 0 00-6.364-6.364l-4.5 4.5a4.5 4.5 0 001.242 7.244"></path></svg><text x="310.38" y="38.32" fill="rgb(148, 163, 184)" font-family="-apple-system" font-size="14" font-weight="500">Tailscale</text><rect x="16" y="87" width="358" height="435" rx="12" fill="rgba(30, 41, 59, 0.6)" stroke="rgba(51, 65, 85, 0.4)" stroke-width="1"/><text x="41" y="130.84" fill="rgb(241, 245, 249)" font-family="-apple-system" font-size="18" font-weight="700">General</text><text x="41" y="158.32" fill="rgb(148, 163, 184)" font-family="-apple-system" font-size="14" font-weight="400">Basic</text><text x="78.77" y="158.32" fill="rgb(148, 163, 184)" font-family="-apple-system" font-size="14" font-weight="400">dashboard</text><text x="148.66" y="158.32" fill="rgb(148, 163, 184)" font-family="-apple-system" font-size="14" font-weight="400">configuration</text><text x="41" y="198.32" fill="rgb(203, 213, 225)" font-family="-apple-system" font-size="14" font-weight="500">Dashboard</text><text x="112.34" y="198.32" fill="rgb(203, 213, 225)" font-family="-apple-system" font-size="14" font-weight="500">Name</text><text x="41" y="221.56" fill="rgb(100, 116, 139)" font-family="-apple-system" font-size="12" font-weight="400">Displayed</text><text x="95.78" y="221.56" fill="rgb(100, 116, 139)" font-family="-apple-system" font-size="12" font-weight="400">in</text><text x="108.31" y="221.56" fill="rgb(100, 116, 139)" font-family="-apple-system" font-size="12" font-weight="400">the</text><text x="128.19" y="221.56" fill="rgb(100, 116, 139)" font-family="-apple-system" font-size="12" font-weight="400">sidebar</text><text x="170.73" y="221.56" fill="rgb(100, 116, 139)" font-family="-apple-system" font-size="12" font-weight="400">header.</text><text x="212.84" y="221.56" fill="rgb(100, 116, 139)" font-family="-apple-system" font-size="12" font-weight="400">Leave</text><text x="247.19" y="221.56" fill="rgb(100, 116, 139)" font-family="-apple-system" font-size="12" font-weight="400">empty</text><text x="283.39" y="221.56" fill="rgb(100, 116, 139)" font-family="-apple-system" font-size="12" font-weight="400">for</text><text x="41" y="237.56" fill="rgb(100, 116, 139)" font-family="-apple-system" font-size="12" font-weight="400">hostname.</text><rect x="41" y="248" width="308" height="46" rx="8" fill="rgba(15, 23, 42, 0.5)" stroke="rgb(51, 65, 85)" stroke-width="1" opacity="0.5"/><text x="57" y="277.08" fill="rgb(241, 245, 249)" font-family="-apple-system" font-size="16" font-weight="400">My Home Server</text><text x="41" y="328.32" fill="rgb(203, 213, 225)" font-family="-apple-system" font-size="14" font-weight="500">Auto</text><text x="73.92" y="328.32" fill="rgb(203, 213, 225)" font-family="-apple-system" font-size="14" font-weight="500">Refresh</text><text x="125.94" y="328.32" fill="rgb(203, 213, 225)" font-family="-apple-system" font-size="14" font-weight="500">Interval</text><text x="41" y="351.56" fill="rgb(100, 116, 139)" font-family="-apple-system" font-size="12" font-weight="400">How</text><text x="68.39" y="351.56" fill="rgb(100, 116, 139)" font-family="-apple-system" font-size="12" font-weight="400">often</text><text x="99.3" y="351.56" fill="rgb(100, 116, 139)" font-family="-apple-system" font-size="12" font-weight="400">to</text><text x="112.92" y="351.56" fill="rgb(100, 116, 139)" font-family="-apple-system" font-size="12" font-weight="400">poll</text><text x="135.33" y="351.56" fill="rgb(100, 116, 139)" font-family="-apple-system" font-size="12" font-weight="400">container</text><text x="188.48" y="351.56" fill="rgb(100, 116, 139)" font-family="-apple-system" font-size="12" font-weight="400">status</text><text x="224.84" y="351.56" fill="rgb(100, 116, 139)" font-family="-apple-system" font-size="12" font-weight="400">(seconds)</text><rect x="41" y="362" width="308" height="46" rx="8" fill="rgba(15, 23, 42, 0.5)" stroke="rgb(51, 65, 85)" stroke-width="1"/><text x="57" y="391.08" fill="rgb(241, 245, 249)" font-family="-apple-system" font-size="16" font-weight="400">10</text><text x="41" y="442.32" fill="rgb(203, 213, 225)" font-family="-apple-system" font-size="14" font-weight="500">Default</text><text x="89.7" y="442.32" fill="rgb(203, 213, 225)" font-family="-apple-system" font-size="14" font-weight="500">Protocol</text><rect x="41" y="454" width="308" height="43" rx="8" fill="rgba(15, 23, 42, 0.5)" stroke="rgb(51, 65, 85)" stroke-width="1"/><text x="57" y="481.58" fill="rgb(241, 245, 249)" font-family="-apple-system" font-size="16" font-weight="400">HTTP</text><path d="M 331 473.5 l 5 5 l 5 -5" fill="none" stroke="rgb(241, 245, 249)" stroke-width="1.4"/><rect x="16" y="546" width="358" height="322" rx="12" fill="rgba(30, 41, 59, 0.6)" stroke="rgba(51, 65, 85, 0.4)" stroke-width="1"/><text x="41" y="589.84" fill="rgb(241, 245, 249)" font-family="-apple-system" font-size="18" font-weight="700">Network</text><text x="113.59" y="589.84" fill="rgb(241, 245, 249)" font-family="-apple-system" font-size="18" font-weight="700">&amp;</text><text x="129.89" y="589.84" fill="rgb(241, 245, 249)" font-family="-apple-system" font-size="18" font-weight="700">Links</text><text x="41" y="617.32" fill="rgb(148, 163, 184)" font-family="-apple-system" font-size="14" font-weight="400">How</text><text x="72.95" y="617.32" fill="rgb(148, 163, 184)" font-family="-apple-system" font-size="14" font-weight="400">container</text><text x="134.97" y="617.32" fill="rgb(148, 163, 184)" font-family="-apple-system" font-size="14" font-weight="400">access</text><text x="182.59" y="617.32" fill="rgb(148, 163, 184)" font-family="-apple-system" font-size="14" font-weight="400">links</text><text x="214.92" y="617.32" fill="rgb(148, 163, 184)" font-family="-apple-system" font-size="14" font-weight="400">are</text><text x="238.05" y="617.32" fill="rgb(148, 163, 184)" font-family="-apple-system" font-size="14" font-weight="400">generated</text><text x="41" y="657.32" fill="rgb(203, 213, 225)" font-family="-apple-system" font-size="14" font-weight="500">Local</text><text x="78.53" y="657.32" fill="rgb(203, 213, 225)" font-family="-apple-system" font-size="14" font-weight="500">Network</text><text x="134.73" y="657.32" fill="rgb(203, 213, 225)" font-family="-apple-system" font-size="14" font-weight="500">IP</text><text x="41" y="680.56" fill="rgb(100, 116, 139)" font-family="-apple-system" font-size="12" font-weight="400">Auto-detected</text><text x="119.08" y="680.56" fill="rgb(100, 116, 139)" font-family="-apple-system" font-size="12" font-weight="400">if</text><text x="129.14" y="680.56" fill="rgb(100, 116, 139)" font-family="-apple-system" font-size="12" font-weight="400">empty.</text><text x="167.89" y="680.56" fill="rgb(100, 116, 139)" font-family="-apple-system" font-size="12" font-weight="400">Used</text><text x="197.97" y="680.56" fill="rgb(100, 116, 139)" font-family="-apple-system" font-size="12" font-weight="400">for</text><text x="216.03" y="680.56" fill="rgb(100, 116, 139)" font-family="-apple-system" font-size="12" font-weight="400">LAN</text><text x="241.97" y="680.56" fill="rgb(100, 116, 139)" font-family="-apple-system" font-size="12" font-weight="400">access</text><text x="282.78" y="680.56" fill="rgb(100, 116, 139)" font-family="-apple-system" font-size="12" font-weight="400">links.</text><rect x="41" y="691" width="308" height="42" rx="8" fill="rgba(15, 23, 42, 0.5)" stroke="rgb(51, 65, 85)" stroke-width="1"/><text x="57" y="717.32" fill="rgb(241, 245, 249)" font-family="ui-monospace" font-size="14" font-weight="400">192.168.1.42</text><text x="41" y="767.32" fill="rgb(203, 213, 225)" font-family="-apple-system" font-size="14" font-weight="500">Domain</text><text x="92.73" y="767.32" fill="rgb(203, 213, 225)" font-family="-apple-system" font-size="14" font-weight="500">Name</text><text x="41" y="790.56" fill="rgb(100, 116, 139)" font-family="-apple-system" font-size="12" font-weight="400">Used</text><text x="71.08" y="790.56" fill="rgb(100, 116, 139)" font-family="-apple-system" font-size="12" font-weight="400">for</text><text x="89.14" y="790.56" fill="rgb(100, 116, 139)" font-family="-apple-system" font-size="12" font-weight="400">domain-based</text><text x="168.22" y="790.56" fill="rgb(100, 116, 139)" font-family="-apple-system" font-size="12" font-weight="400">access</text><text x="209.05" y="790.56" fill="rgb(100, 116, 139)" font-family="-apple-system" font-size="12" font-weight="400">links</text><text x="236.75" y="790.56" fill="rgb(100, 116, 139)" font-family="-apple-system" font-size="12" font-weight="400">(optional)</text><rect x="41" y="801" width="308" height="42" rx="8" fill="rgba(15, 23, 42, 0.5)" stroke="rgb(51, 65, 85)" stroke-width="1"/><text x="57" y="827.32" fill="rgb(241, 245, 249)" font-family="ui-monospace" font-size="14" font-weight="400">example.com</text></svg>