<svg xmlns="http://www.w3.org/2000/svg" width="390" height="844" viewBox="0 0 390 844"><title>Dashgo editable source-verified frame</title><rect x="0" y="0" width="390" height="844" rx="0" fill="rgb(15, 23, 42)"/><rect x="0" y="0" width="390" height="844" rx="0" fill="rgb(17, 24, 39)"/><rect x="0" y="780" width="390" height="64" rx="0" fill="rgba(15, 23, 42, 0.95)" stroke="rgba(51, 65, 85, 0.7)" stroke-width="1"/><svg fill="none" viewBox="0 0 24 24" stroke="currentColor" stroke-width="2" x="44.75" y="793" width="20" height="20" color="rgb(100, 116, 139)" style="color:rgb(100, 116, 139);overflow:visible" xmlns="http://www.w3.org/2000/svg"><path stroke-linecap="round" stroke-linejoin="round" d="M4 6a2 2 0 012-2h2a2 2 0 012 2v2a2 2 0 01-2 2H6a2 2 0 01-2-2V6zM14 6a2 2 0 012-2h2a2 2 0 012 2v2a2 2 0 01-2 2h-2a2 2 0 01-2-2V6zM4 16a2 2 0 012-2h2a2 2 0 012 2v2a2 2 0 01-2 2H6a2 2 0 01-2-2v-2zM14 16a2 2 0 012-2h2a2 2 0 012 2v2a2 2 0 01-2 2h-2a2 2 0 01-2-2v-2z"></path></svg><text x="30.5" y="827.8" fill="rgb(100, 116, 139)" font-family="-apple-system" font-size="10" font-weight="500">Dashboard</text><svg fill="none" viewBox="0 0 24 24" stroke="currentColor" stroke-width="2" x="138.25" y="793" width="20" height="20" color="rgb(74, 222, 128)" style="color:rgb(74, 222, 128);overflow:visible" xmlns="http://www.w3.org/2000/svg"><path stroke-linecap="round" stroke-linejoin="round" d="M21 12a9 9 0 01-9 9m9-9a9 9 0 00-9-9m9 9H3m9 9a9 9 0 01-9-9m9 9c1.657 0 3-4.03 3-9s-1.343-9-3-9m0 18c-1.657 0-3-4.03-3-9s1.343-9 3-9m-9 9a9 9 0 019-9"></path></svg><text x="133.22" y="827.8" fill="rgb(74, 222, 128)" font-family="-apple-system" font-size="10" font-weight="500">Tailnet</text><svg fill="none" viewBox="0 0 24 24" stroke="currentColor" stroke-width="2" x="231.75" y="793" width="20" height="20" color="rgb(100, 116, 139)" style="color:rgb(100, 116, 139);overflow:visible" xmlns="http://www.w3.org/2000/svg"><path stroke-linecap="round" stroke-linejoin="round" d="M10.325 4.317c.426-1.756 2.924-1.756 3.35 0a1.724 1.724 0 002.573 1.066c1.543-.94 3.31.826 2.37 2.37a1.724 1.724 0 001.065 2.572c1.756.426 1.756 2.924 0 3.35a1.724 1.724 0 00-1.066 2.573c.94 1.543-.826 3.31-2.37 2.37a1.724 1.724 0 00-2.572 1.065c-.426 1.756-2.924 1.756-3.35 0a1.724 1.724 0 00-2.573-1.066c-1.543.94-3.31-.826-2.37-2.37a1.724 1.724 0 00-1.065-2.572c-1.756-.426-1.756-2.924 0-3.35a1.724 1.724 0 001.066-2.573c-.94-1.543.826-3.31 2.37-2.37.996.608 2.296.07 2.572-1.065z"></path><path stroke-linecap="round" stroke-linejoin="round" d="M15 12a3 3 0 11-6 0 3 3 0 016 0z"></path></svg><text x="223.23" y="827.8" fill="rgb(100, 116, 139)" font-family="-apple-system" font-size="10" font-weight="500">Settings</text><svg fill="none" viewBox="0 0 24 24" stroke-width="1.5" stroke="currentColor" x="325.25" y="793" width="20" height="20" color="rgb(100, 116, 139)" style="color:rgb(100, 116, 139);overflow:visible" xmlns="http://www.w3.org/2000/svg"><path stroke-linecap="round" stroke-linejoin="round" d="M15.75 9V5.25A2.25 2.25 0 0013.5 3h-6a2.25 2.25 0 00-2.25 2.25v13.5A2.25 2.25 0 007.5 21h6a2.25 2.25 0 002.25-2.25V15m3 0l3-3m0 0l-3-3m3 3H9"></path></svg><text x="316.8" y="827.8" fill="rgb(100, 116, 139)" font-family="-apple-system" font-size="10" font-weight="500">Sign</text><text x="339.11" y="827.8" fill="rgb(100, 116, 139)" font-family="-apple-system" font-size="10" font-weight="500">out</text><rect x="0" y="0" width="390" height="780" rx="0" fill="rgb(15, 23, 42)"/><rect x="32" y="32" width="121.83" height="58" rx="12" fill="rgba(34, 197, 94, 0.1)" stroke="rgba(34, 197, 94, 0.2)" stroke-width="1"/><rect x="49" y="56" width="6.28" height="10" rx="9999" fill="rgb(74, 222, 128)"/><text x="65.28" y="55.32" fill="rgb(74, 222, 128)" font-family="-apple-system" font-size="14" font-weight="600">Tailnet</text><text x="65.28" y="75.32" fill="rgb(74, 222, 128)" font-family="-apple-system" font-size="14" font-weight="600">Connected</text><rect x="169.83" y="40" width="72.41" height="42" rx="8" fill="rgb(30, 41, 59)" stroke="rgba(51, 65, 85, 0.5)" stroke-width="1"/><text x="180.83" y="56.56" fill="rgb(148, 163, 184)" font-family="ui-monospace" font-size="12" font-weight="400">5</text><text x="180.83" y="72.56" fill="rgb(148, 163, 184)" font-family="ui-monospace" font-size="12" font-weight="400">devices</text><rect x="254.23" y="40" width="65.22" height="42" rx="8" fill="rgb(30, 41, 59)" stroke="rgba(51, 65, 85, 0.5)" stroke-width="1"/><text x="265.23" y="56.56" fill="rgb(148, 163, 184)" font-family="ui-monospace" font-size="12" font-weight="400">4</text><text x="265.23" y="72.56" fill="rgb(148, 163, 184)" font-family="ui-monospace" font-size="12" font-weight="400">online</text><rect x="331.45" y="40" width="86.81" height="42" rx="8" fill="rgb(30, 41, 59)" stroke="rgba(51, 65, 85, 0.5)" stroke-width="1"/><text x="342.45" y="56.56" fill="rgb(148, 163, 184)" font-family="ui-monospace" font-size="12" font-weight="400">6</text><text x="342.45" y="72.56" fill="rgb(148, 163, 184)" font-family="ui-monospace" font-size="12" font-weight="400">published</text><rect x="32" y="106" width="106.53" height="38" rx="8" fill="rgb(30, 41, 59)" stroke="rgba(51, 65, 85, 0.5)" stroke-width="1"/><svg fill="none" viewBox="0 0 24 24" stroke-width="1.5" stroke="currentColor" x="49" y="117" width="16" height="16" color="rgb(226, 232, 240)" style="color:rgb(226, 232, 240);overflow:visible" xmlns="http://www.w3.org/2000/svg"><path stroke-linecap="round" stroke-linejoin="round" d="M16.023 9.348h4.992v-.001M2.985 19.644v-4.992m0 0h4.992m-4.993 0l3.181 3.183a8.25 8.25 0 0013.803-3.7M4.031 9.865a8.25 8.25 0 0113.803-3.7l3.181 3.182"></path></svg><text x="73" y="129.32" fill="rgb(226, 232, 240)" font-family="-apple-system" font-size="14" font-weight="500">Refresh</text><rect x="146.53" y="106" width="153.47" height="38" rx="8" fill="rgb(30, 41, 59)" stroke="rgba(51, 65, 85, 0.5)" stroke-width="1"/><svg fill="none" viewBox="0 0 24 24" stroke-width="1.5" stroke="currentColor" x="163.53" y="117" width="16" height="16" color="rgb(226, 232, 240)" style="color:rgb(226, 232, 240);overflow:visible" xmlns="http://www.w3.org/2000/svg"><path stroke-linecap="round" stroke-linejoin="round" d="M13.5 6H5.25A2.25 2.25 0 003 8.25v10.5A2.25 2.25 0 005.25 21h10.5A2.25 2.25 0 0018 18.75V10.5m-10.5 6L21 3m0 0h-5.25M21 3v5.25"></path></svg><text x="187.53" y="129.32" fill="rgb(226, 232, 240)" font-family="-apple-system" font-size="14" font-weight="500">Admin</text><text x="231.8" y="129.32" fill="rgb(226, 232, 240)" font-family="-apple-system" font-size="14" font-weight="500">Console</text><rect x="32" y="176" width="326" height="328" rx="12" fill="rgba(30, 41, 59, 0.6)" stroke="rgba(51, 65, 85, 0.4)" stroke-width="1"/><rect x="53" y="201" width="12" height="12" rx="9999" fill="rgb(74, 222, 128)"/><text x="73" y="211.32" fill="rgb(226, 232, 240)" font-family="-apple-system" font-size="14" font-weight="700" letter-spacing="0.7">This</text><text x="111.23" y="211.32" fill="rgb(226, 232, 240)" font-family="-apple-system" font-size="14" font-weight="700" letter-spacing="0.7">Device</text><text x="53" y="251.84" fill="rgb(241, 245, 249)" font-family="-apple-system" font-size="18" font-weight="700" letter-spacing="-0.45">orange-pi-5</text><rect x="53" y="265" width="53" height="21" rx="6" fill="rgba(34, 197, 94, 0.1)" stroke="rgba(34, 197, 94, 0.2)" stroke-width="1"/><text x="62" y="278.8" fill="rgb(74, 222, 128)" font-family="-apple-system" font-size="10" font-weight="700">Online</text><text x="53" y="313.56" fill="rgb(100, 116, 139)" font-family="-apple-system" font-size="12" font-weight="600" letter-spacing="0.6">Tailscale</text><text x="123.34" y="313.56" fill="rgb(100, 116, 139)" font-family="-apple-system" font-size="12" font-weight="600" letter-spacing="0.6">IP</text><rect x="53" y="322" width="284" height="34" rx="8" fill="rgba(15, 23, 42, 0.5)" stroke="rgba(51, 65, 85, 0.5)" stroke-width="1"/><text x="66" y="342.56" fill="rgb(203, 213, 225)" font-family="ui-monospace" font-size="12" font-weight="400">100.76.12.44</text><svg fill="none" viewBox="0 0 24 24" stroke-width="1.5" stroke="currentColor" x="310" y="332" width="14" height="14" color="rgb(100, 116, 139)" style="color:rgb(100, 116, 139);overflow:visible" xmlns="http://www.w3.org/2000/svg"><path stroke-linecap="round" stroke-linejoin="round" d="M15.666 3.888A2.25 2.25 0 0013.5 2.25h-3c-1.03 0-1.9.693-2.166 1.638m7.332 0c.055.194.084.4.084.612v0a.75.75 0 01-.75.75H9.75a.75.75 0 01-.75-.75v0c0-.212.03-.418.084-.612m7.332 0c.646.049 1.288.11 1.927.184 1.1.128 1.907 1.077 1.907 2.185V19.5a2.25 2.25 0 01-2.25 2.25H6.75A2.25 2.25 0 014.5 19.5V6.257c0-1.108.806-2.057 1.907-2.185a48.208 48.208 0 011.927-.184"></path></svg><text x="53" y="379.56" fill="rgb(100, 116, 139)" font-family="-apple-system" font-size="12" font-weight="600" letter-spacing="0.6">MagicDNS</text><rect x="53" y="388" width="284" height="34" rx="8" fill="rgba(15, 23, 42, 0.5)" stroke="rgba(51, 65, 85, 0.5)" stroke-width="1"/><text x="66" y="408.68" fill="rgb(203, 213, 225)" font-family="ui-monospace" font-size="11" font-weight="400">orange-pi-5.tailnet.ts.net</text><svg fill="none" viewBox="0 0 24 24" stroke-width="1.5" stroke="currentColor" x="310" y="398" width="14" height="14" color="rgb(100, 116, 139)" style="color:rgb(100, 116, 139);overflow:visible" xmlns="http://www.w3.org/2000/svg"><path stroke-linecap="round" stroke-linejoin="round" d="M15.666 3.888A2.25 2.25 0 0013.5 2.25h-3c-1.03 0-1.9.693-2.166 1.638m7.332 0c.055.194.084.4.084.612v0a.75.75 0 01-.75.75H9.75a.75.75 0 01-.75-.75v0c0-.212.03-.418.084-.612m7.332 0c.646.049 1.288.11 1.927.184 1.1.128 1.907 1.077 1.907 2.185V19.5a2.25 2.25 0 01-2.25 2.25H6.75A2.25 2.25 0 014.5 19.5V6.257c0-1.108.806-2.057 1.907-2.185a48.208 48.208 0 011.927-.184"></path></svg><rect x="53" y="434" width="284" height="49" rx="0" fill="none" stroke="rgba(51, 65, 85, 0.4)" stroke-width="1"/><text x="53" y="454.56" fill="rgb(100, 116, 139)" font-family="-apple-system" font-size="12" font-weight="400">OS</text><svg viewBox="0 0 24 24" x="289.97" y="443" width="16" height="16" color="rgb(203, 213, 225)" style="color:rgb(203, 213, 225);overflow:visible" xmlns="http://www.w3.org/2000/svg"><path fill="#0F172A" stroke="#CBD5E1" stroke-width=".8" d="M12 2.4c-2.95 0-4.43 2.55-4.43 6.04 0 1.08-.39 2.13-1.11 3.2C5.17 13.52 4 15.72 4 17.76c0 1.39.79 2.27 2.02 2.27.91 0 1.79-.45 2.5-1.18.9.99 2.04 1.51 3.48 1.51s2.58-.52 3.48-1.51c.71.73 1.59 1.18 2.5 1.18 1.23 0 2.02-.88 2.02-2.27 0-2.04-1.17-4.24-2.46-6.12-.72-1.07-1.11-2.12-1.11-3.2C16.43 4.95 14.95 2.4 12 2.4Z"></path><ellipse cx="12" cy="14.2" rx="3.55" ry="4.45" fill="#F8FAFC"></ellipse><ellipse cx="10.45" cy="7.58" rx="1.22" ry="1.52" fill="#F8FAFC"></ellipse><ellipse cx="13.55" cy="7.58" rx="1.22" ry="1.52" fill="#F8FAFC"></ellipse><circle cx="10.75" cy="7.75" r=".45" fill="#0F172A"></circle><circle cx="13.25" cy="7.75" r=".45" fill="#0F172A"></circle><path fill="#FACC15" d="m12 8.45 1.72 1.02L12 10.6l-1.72-1.13L12 8.45Zm-4.16 9.94c-.63.96-1.46 1.48-2.27 1.33-.61-.11-.76-.58-.24-.94.71-.49 1.49-.83 2.51-1.05v.66Zm8.32 0c.63.96 1.46 1.48 2.27 1.33.61-.11.76-.58.24-.94-.71-.49-1.49-.83-2.51-1.05v.66Z"></path></svg><text x="311.97" y="454.56" fill="rgb(203, 213, 225)" font-family="-apple-system" font-size="12" font-weight="400">linux</text><text x="53" y="478.56" fill="rgb(100, 116, 139)" font-family="-apple-system" font-size="12" font-weight="400">Connection</text><text x="305.67" y="478.56" fill="rgb(74, 222, 128)" font-family="-apple-system" font-size="12" font-weight="400">Direct</text><rect x="32" y="528" width="326" height="479" rx="12" fill="rgba(30, 41, 59, 0.6)" stroke="rgba(51, 65, 85, 0.4)" stroke-width="1"/><rect x="33" y="529" width="324" height="119" rx="0" fill="none" stroke="rgba(51, 65, 85, 0.4)" stroke-width="1"/><rect x="49" y="545" width="292" height="38" rx="8" fill="rgba(15, 23, 42, 0.5)" stroke="rgb(51, 65, 85)" stroke-width="1"/><text x="61" y="569.32" fill="rgb(241, 245, 249)" font-family="-apple-system" font-size="14" font-weight="400">Search by name or IP...</text><rect x="49" y="595" width="106" height="36" rx="8" fill="rgba(15, 23, 42, 0.5)" stroke="rgb(51, 65, 85)" stroke-width="1"/><text x="61" y="618.32" fill="rgb(241, 245, 249)" font-family="-apple-system" font-size="14" font-weight="400">All Status</text><path d="M 137 611 l 5 5 l 5 -5" fill="none" stroke="rgb(241, 245, 249)" stroke-width="1.4"/><rect x="167" y="595" width="104" height="36" rx="8" fill="rgba(15, 23, 42, 0.5)" stroke="rgb(51, 65, 85)" stroke-width="1"/><text x="179" y="618.32" fill="rgb(241, 245, 249)" font-family="-apple-system" font-size="14" font-weight="400">All OS</text><path d="M 253 611 l 5 5 l 5 -5" fill="none" stroke="rgb(241, 245, 249)" stroke-width="1.4"/><rect x="33" y="648" width="561.7" height="54" rx="0" fill="rgba(15, 23, 42, 0.3)"/><text x="49" y="678.3" fill="rgb(100, 116, 139)" font-family="-apple-system" font-size="10" font-weight="600" letter-spacing="0.5">Device</text><text x="161.84" y="678.3" fill="rgb(100, 116, 139)" font-family="-apple-system" font-size="10" font-weight="600" letter-spacing="0.5">Status</text><text x="250.75" y="678.3" fill="rgb(100, 116, 139)" font-family="-apple-system" font-size="10" font-weight="600" letter-spacing="0.5">OS</text><text x="338.05" y="678.3" fill="rgb(100, 116, 139)" font-family="-apple-system" font-size="10" font-weight="600" letter-spacing="0.5">Tailscale</text><rect x="49" y="729.5" width="8.19" height="10" rx="9999" fill="rgb(74, 222, 128)"/><text x="65.19" y="728.82" fill="rgb(226, 232, 240)" font-family="-apple-system" font-size="14" font-weight="500">macbook-air</text><rect x="161.84" y="725.5" width="53" height="21" rx="6" fill="rgba(34, 197, 94, 0.1)" stroke="rgba(34, 197, 94, 0.2)" stroke-width="1"/><text x="170.84" y="739.3" fill="rgb(74, 222, 128)" font-family="-apple-system" font-size="10" font-weight="700">Online</text><svg viewBox="0 0 24 24" fill="currentColor" x="250.75" y="714" width="16" height="16" color="rgb(226, 232, 240)" style="color:rgb(226, 232, 240);overflow:visible" xmlns="http://www.w3.org/2000/svg"><path d="M17.05 20.28c-.98.95-2.05.8-3.08.35-1.09-.46-2.09-.48-3.24 0-1.44.62-2.2.44-3.06-.35C2.79 15.25 3.51 7.59 9.05 7.31c1.33-.07 2.29.74 3.08.78 1.18-.24 2.31-.93 3.57-.84 1.51.12 2.65.72 3.4 1.8-3.12 1.87-2.38 5.98.48 7.13-.57 1.5-1.31 2.99-2.53 4.1ZM12.03 7.25C11.88 5.02 13.69 3.18 15.77 3c.29 2.58-2.34 4.5-3.74 4.25Z"></path></svg><text x="250.75" y="749.32" fill="rgb(148, 163, 184)" font-family="-apple-system" font-size="14" font-weight="400">macOS</text><rect x="338.05" y="722" width="97.22" height="26" rx="4" fill="rgba(15, 23, 42, 0.4)" stroke="rgba(51, 65, 85, 0.5)" stroke-width="1"/><text x="347.05" y="738.56" fill="rgb(203, 213, 225)" font-family="ui-monospace" font-size="12" font-weight="400">100.88.4.21</text><rect x="33" y="767.5" width="561.7" height="65" rx="0" fill="none" stroke="rgba(51, 65, 85, 0.3)" stroke-width="1"/><rect x="49" y="795" width="7.36" height="10" rx="9999" fill="rgb(74, 222, 128)"/><text x="64.36" y="794.32" fill="rgb(226, 232, 240)" font-family="-apple-system" font-size="14" font-weight="500">iphone-camila</text><rect x="161.84" y="791" width="53" height="21" rx="6" fill="rgba(34, 197, 94, 0.1)" stroke="rgba(34, 197, 94, 0.2)" stroke-width="1"/><text x="170.84" y="804.8" fill="rgb(74, 222, 128)" font-family="-apple-system" font-size="10" font-weight="700">Online</text><svg viewBox="0 0 24 24" fill="currentColor" x="250.75" y="789.5" width="16" height="16" color="rgb(226, 232, 240)" style="color:rgb(226, 232, 240);overflow:visible" xmlns="http://www.w3.org/2000/svg"><path d="M17.05 20.28c-.98.95-2.05.8-3.08.35-1.09-.46-2.09-.48-3.24 0-1.44.62-2.2.44-3.06-.35C2.79 15.25 3.51 7.59 9.05 7.31c1.33-.07 2.29.74 3.08.78 1.18-.24 2.31-.93 3.57-.84 1.51.12 2.65.72 3.4 1.8-3.12 1.87-2.38 5.98.48 7.13-.57 1.5-1.31 2.99-2.53 4.1ZM12.03 7.25C11.88 5.02 13.69 3.18 15.77 3c.29 2.58-2.34 4.5-3.74 4.25Z"></path></svg><text x="270.75" y="804.82" fill="rgb(148, 163, 184)" font-family="-apple-system" font-size="14" font-weight="400">iOS</text><rect x="338.05" y="787.5" width="97.22" height="26" rx="4" fill="rgba(15, 23, 42, 0.4)" stroke="rgba(51, 65, 85, 0.5)" stroke-width="1"/><text x="347.05" y="804.06" fill="rgb(203, 213, 225)" font-family="ui-monospace" font-size="12" font-weight="400">100.91.2.12</text><rect x="33" y="832.5" width="561.7" height="66" rx="0" fill="none" stroke="rgba(51, 65, 85, 0.3)" stroke-width="1"/><svg viewBox="0 0 24 24" x="250.75" y="845" width="16" height="16" color="rgb(148, 163, 184)" style="color:rgb(148, 163, 184);overflow:visible" xmlns="http://www.w3.org/2000/svg"><path fill="#00A4EF" d="M2.5 4.8 10.9 3.6v7.8H2.5V4.8Zm9.4-1.4L21.5 2v9.4h-9.6v-8Zm-9.4 9h8.4v7.9l-8.4-1.2v-6.7Zm9.4 0h9.6V22l-9.6-1.4v-8.2Z"></path></svg></svg>