<svg xmlns="http://www.w3.org/2000/svg" width="1440" height="1024" viewBox="0 0 1440 1024"><title>Dashgo editable source-verified frame</title><rect x="0" y="0" width="1440" height="1024" rx="0" fill="rgb(15, 23, 42)"/><rect x="0" y="0" width="1440" height="1024" rx="0" fill="rgb(15, 23, 42)"/><rect x="688" y="234" width="64" height="64" rx="16" fill="rgb(30, 41, 59)" stroke="rgba(51, 65, 85, 0.5)" stroke-width="1"/><svg fill="none" viewBox="0 0 24 24" stroke-width="1.5" stroke="currentColor" x="704" y="250" width="32" height="32" color="rgb(96, 165, 250)" style="color:rgb(96, 165, 250);overflow:visible" xmlns="http://www.w3.org/2000/svg"><path stroke-linecap="round" stroke-linejoin="round" d="M21 7.5l-2.25-1.313M21 7.5v2.25m0-2.25l-2.25 1.313M3 7.5l2.25-1.313M3 7.5l2.25 1.313M3 7.5v2.25m9 3l2.25-1.313M12 12.75l-2.25-1.313M12 12.75V15m0 6.75l2.25-1.313M12 21.75V19.5m0 2.25l-2.25-1.313m0-16.875L12 2.25l2.25 1.313M21 14.25v2.25l-2.25 1.313m-13.5 0L3 16.5v-2.25"></path></svg><text x="681.02" y="337.12" fill="rgb(241, 245, 249)" font-family="-apple-system" font-size="24" font-weight="700" letter-spacing="-0.6">Dashgo</text><text x="631.69" y="364.32" fill="rgb(148, 163, 184)" font-family="-apple-system" font-size="14" font-weight="400">Set</text><text x="655.47" y="364.32" fill="rgb(148, 163, 184)" font-family="-apple-system" font-size="14" font-weight="400">up</text><text x="674.52" y="364.32" fill="rgb(148, 163, 184)" font-family="-apple-system" font-size="14" font-weight="400">your</text><text x="704.97" y="364.32" fill="rgb(148, 163, 184)" font-family="-apple-system" font-size="14" font-weight="400">admin</text><text x="747.36" y="364.32" fill="rgb(148, 163, 184)" font-family="-apple-system" font-size="14" font-weight="400">password</text><rect x="528" y="402" width="384" height="340" rx="12" fill="rgba(30, 41, 59, 0.6)" stroke="rgba(51, 65, 85, 0.4)" stroke-width="1"/><text x="553" y="438.56" fill="rgb(148, 163, 184)" font-family="-apple-system" font-size="12" font-weight="600" letter-spacing="0.6">New</text><text x="584.11" y="438.56" fill="rgb(148, 163, 184)" font-family="-apple-system" font-size="12" font-weight="600" letter-spacing="0.6">Password</text><rect x="553" y="451" width="334" height="50" rx="8" fill="rgba(15, 23, 42, 0.5)" stroke="rgb(51, 65, 85)" stroke-width="1"/><text x="569" y="482.08" fill="rgb(241, 245, 249)" font-family="-apple-system" font-size="16" font-weight="400">•••••••••</text><text x="553" y="528.56" fill="rgb(148, 163, 184)" font-family="-apple-system" font-size="12" font-weight="600" letter-spacing="0.6">Confirm</text><text x="613.66" y="528.56" fill="rgb(148, 163, 184)" font-family="-apple-system" font-size="12" font-weight="600" letter-spacing="0.6">Password</text><rect x="553" y="541" width="334" height="50" rx="8" fill="rgba(15, 23, 42, 0.5)" stroke="rgb(51, 65, 85)" stroke-width="1"/><text x="569" y="572.08" fill="rgb(241, 245, 249)" font-family="-apple-system" font-size="16" font-weight="400">•••••••••</text><rect x="553" y="607" width="334" height="46" rx="8" fill="rgba(239, 68, 68, 0.1)" stroke="rgba(239, 68, 68, 0.2)" stroke-width="1"/><text x="570" y="634.32" fill="rgb(248, 113, 113)" font-family="-apple-system" font-size="14" font-weight="400">Passwords</text><text x="642.53" y="634.32" fill="rgb(248, 113, 113)" font-family="-apple-system" font-size="14" font-weight="400">do</text><text x="661.88" y="634.32" fill="rgb(248, 113, 113)" font-family="-apple-system" font-size="14" font-weight="400">not</text><text x="685.66" y="634.32" fill="rgb(248, 113, 113)" font-family="-apple-system" font-size="14" font-weight="400">match</text><rect x="553" y="669" width="334" height="48" rx="8" fill="rgb(37, 99, 235)"/><text x="670.66" y="697.08" fill="rgb(255, 255, 255)" font-family="-apple-system" font-size="16" font-weight="600">Set</text><text x="698.53" y="697.08" fill="rgb(255, 255, 255)" font-family="-apple-system" font-size="16" font-weight="600">Password</text><text x="571.5" y="769.56" fill="rgb(100, 116, 139)" font-family="-apple-system" font-size="12" font-weight="400">This</text><text x="597.34" y="769.56" fill="rgb(100, 116, 139)" font-family="-apple-system" font-size="12" font-weight="400">password</text><text x="652.56" y="769.56" fill="rgb(100, 116, 139)" font-family="-apple-system" font-size="12" font-weight="400">protects</text><text x="699.77" y="769.56" fill="rgb(100, 116, 139)" font-family="-apple-system" font-size="12" font-weight="400">access</text><text x="740.58" y="769.56" fill="rgb(100, 116, 139)" font-family="-apple-system" font-size="12" font-weight="400">to</text><text x="754.2" y="769.56" fill="rgb(100, 116, 139)" font-family="-apple-system" font-size="12" font-weight="400">Docker</text><text x="794.58" y="769.56" fill="rgb(100, 116, 139)" font-family="-apple-system" font-size="12" font-weight="400">management.</text><text x="597.67" y="785.56" fill="rgb(100, 116, 139)" font-family="-apple-system" font-size="12" font-weight="400">Store</text><text x="628.73" y="785.56" fill="rgb(100, 116, 139)" font-family="-apple-system" font-size="12" font-weight="400">it</text><text x="638.56" y="785.56" fill="rgb(100, 116, 139)" font-family="-apple-system" font-size="12" font-weight="400">securely</text><text x="685.91" y="785.56" fill="rgb(100, 116, 139)" font-family="-apple-system" font-size="12" font-weight="400">—</text><text x="698.25" y="785.56" fill="rgb(100, 116, 139)" font-family="-apple-system" font-size="12" font-weight="400">there</text><text x="728.44" y="785.56" fill="rgb(100, 116, 139)" font-family="-apple-system" font-size="12" font-weight="400">is</text><text x="740.53" y="785.56" fill="rgb(100, 116, 139)" font-family="-apple-system" font-size="12" font-weight="400">no</text><text x="756.97" y="785.56" fill="rgb(100, 116, 139)" font-family="-apple-system" font-size="12" font-weight="400">recovery</text><text x="805.25" y="785.56" fill="rgb(100, 116, 139)" font-family="-apple-system" font-size="12" font-weight="400">option.</text></svg>