<svg xmlns="http://www.w3.org/2000/svg" width="1440" height="1024" viewBox="0 0 1440 1024"><title>Dashgo editable source-verified frame</title><rect x="0" y="0" width="1440" height="1024" rx="0" fill="rgb(15, 23, 42)"/><rect x="0" y="0" width="1440" height="1024" rx="0" fill="rgb(17, 24, 39)"/><rect x="0" y="0" width="256" height="1024" rx="0" fill="rgb(15, 23, 42)" stroke="rgb(51, 65, 85)" stroke-width="1"/><rect x="32" y="24" width="40" height="40" rx="12" fill="rgb(30, 41, 59)" stroke="rgb(51, 65, 85)" stroke-width="1"/><svg fill="none" viewBox="0 0 24 24" stroke="currentColor" x="40" y="32" width="24" height="24" color="rgb(96, 165, 250)" style="color:rgb(96, 165, 250);overflow:visible" xmlns="http://www.w3.org/2000/svg"><path stroke-linecap="round" stroke-linejoin="round" stroke-width="2" d="M19 11H5m14 0a2 2 0 012 2v6a2 2 0 01-2 2H5a2 2 0 01-2-2v-6a2 2 0 012-2m14 0V9a2 2 0 00-2-2M5 11V9a2 2 0 002-2m0 0V5a2 2 0 012-2h6a2 2 0 012 2v2M7 7h10"></path></svg><text x="84" y="49.6" fill="rgb(241, 245, 249)" font-family="-apple-system" font-size="20" font-weight="700" letter-spacing="-0.5">Dashgo</text><rect x="24" y="96" width="207" height="50" rx="8" fill="rgb(30, 41, 59)" stroke="rgba(51, 65, 85, 0.5)" stroke-width="1"/><svg fill="none" viewBox="0 0 24 24" stroke="currentColor" stroke-width="2" x="41" y="111" width="20" height="20" color="rgb(74, 222, 128)" style="color:rgb(74, 222, 128);overflow:visible" xmlns="http://www.w3.org/2000/svg"><path stroke-linecap="round" stroke-linejoin="round" d="M4 6a2 2 0 012-2h2a2 2 0 012 2v2a2 2 0 01-2 2H6a2 2 0 01-2-2V6zM14 6a2 2 0 012-2h2a2 2 0 012 2v2a2 2 0 01-2 2h-2a2 2 0 01-2-2V6zM4 16a2 2 0 012-2h2a2 2 0 012 2v2a2 2 0 01-2 2H6a2 2 0 01-2-2v-2zM14 16a2 2 0 012-2h2a2 2 0 012 2v2a2 2 0 01-2 2h-2a2 2 0 01-2-2v-2z"></path></svg><text x="73" y="125.08" fill="rgb(241, 245, 249)" font-family="-apple-system" font-size="16" font-weight="500">Dashboard</text><svg fill="none" viewBox="0 0 24 24" stroke="currentColor" stroke-width="2" x="40" y="164" width="20" height="20" color="rgb(148, 163, 184)" style="color:rgb(148, 163, 184);overflow:visible" xmlns="http://www.w3.org/2000/svg"><path stroke-linecap="round" stroke-linejoin="round" d="M21 12a9 9 0 01-9 9m9-9a9 9 0 00-9-9m9 9H3m9 9a9 9 0 01-9-9m9 9c1.657 0 3-4.03 3-9s-1.343-9-3-9m0 18c-1.657 0-3-4.03-3-9s1.343-9 3-9m-9 9a9 9 0 019-9"></path></svg><text x="72" y="178.08" fill="rgb(148, 163, 184)" font-family="-apple-system" font-size="16" font-weight="500">Tailnet</text><svg fill="none" viewBox="0 0 24 24" stroke="currentColor" stroke-width="2" x="40" y="216" width="20" height="20" color="rgb(148, 163, 184)" style="color:rgb(148, 163, 184);overflow:visible" xmlns="http://www.w3.org/2000/svg"><path stroke-linecap="round" stroke-linejoin="round" d="M10.325 4.317c.426-1.756 2.924-1.756 3.35 0a1.724 1.724 0 002.573 1.066c1.543-.94 3.31.826 2.37 2.37a1.724 1.724 0 001.065 2.572c1.756.426 1.756 2.924 0 3.35a1.724 1.724 0 00-1.066 2.573c.94 1.543-.826 3.31-2.37 2.37a1.724 1.724 0 00-2.572 1.065c-.426 1.756-2.924 1.756-3.35 0a1.724 1.724 0 00-2.573-1.066c-1.543.94-3.31-.826-2.37-2.37a1.724 1.724 0 00-1.065-2.572c-1.756-.426-1.756-2.924 0-3.35a1.724 1.724 0 001.066-2.573c-.94-1.543.826-3.31 2.37-2.37.996.608 2.296.07 2.572-1.065z"></path><path stroke-linecap="round" stroke-linejoin="round" d="M15 12a3 3 0 11-6 0 3 3 0 016 0z"></path></svg><text x="72" y="230.08" fill="rgb(148, 163, 184)" font-family="-apple-system" font-size="16" font-weight="500">Settings</text><rect x="24" y="881" width="207" height="119" rx="0" fill="none" stroke="rgb(30, 41, 59)" stroke-width="1"/><text x="32" y="917.56" fill="rgb(100, 116, 139)" font-family="-apple-system" font-size="12" font-weight="500" letter-spacing="0.6">Docker</text><text x="84.98" y="917.56" fill="rgb(100, 116, 139)" font-family="-apple-system" font-size="12" font-weight="500" letter-spacing="0.6">Socket</text><rect x="32" y="926" width="191" height="26" rx="4" fill="rgba(30, 41, 59, 0.5)" stroke="rgb(30, 41, 59)" stroke-width="1"/><text x="41" y="942.56" fill="rgb(148, 163, 184)" font-family="ui-monospace" font-size="12" font-weight="400">/var/run/docker.sock</text><svg fill="none" viewBox="0 0 24 24" stroke-width="1.5" stroke="currentColor" x="44" y="976" width="16" height="16" color="rgb(100, 116, 139)" style="color:rgb(100, 116, 139);overflow:visible" xmlns="http://www.w3.org/2000/svg"><path stroke-linecap="round" stroke-linejoin="round" d="M15.75 9V5.25A2.25 2.25 0 0013.5 3h-6a2.25 2.25 0 00-2.25 2.25v13.5A2.25 2.25 0 007.5 21h6a2.25 2.25 0 002.25-2.25V15m3 0l3-3m0 0l-3-3m3 3H9"></path></svg><text x="68" y="987.56" fill="rgb(100, 116, 139)" font-family="-apple-system" font-size="12" font-weight="400">Sign</text><text x="94.38" y="987.56" fill="rgb(100, 116, 139)" font-family="-apple-system" font-size="12" font-weight="400">Out</text><rect x="256" y="0" width="1184" height="1024" rx="0" fill="rgb(15, 23, 42)"/><rect x="288" y="32" width="105.64" height="30" rx="8" fill="rgba(34, 197, 94, 0.1)" stroke="rgba(34, 197, 94, 0.2)" stroke-width="1"/><rect x="301" y="43" width="8" height="8" rx="9999" fill="rgb(74, 222, 128)"/><text x="317" y="50.56" fill="rgb(74, 222, 128)" font-family="-apple-system" font-size="12" font-weight="600">orange-pi-5</text><rect x="405.64" y="32" width="73.2" height="30" rx="8" fill="rgb(30, 41, 59)" stroke="rgba(51, 65, 85, 0.5)" stroke-width="1"/><text x="418.64" y="50.3" fill="rgb(100, 116, 139)" font-family="-apple-system" font-size="10" font-weight="600">CPU</text><text x="444.23" y="50.56" fill="rgb(203, 213, 225)" font-family="ui-monospace" font-size="12" font-weight="500">18%</text><rect x="490.84" y="32" width="147.5" height="30" rx="8" fill="rgb(30, 41, 59)" stroke="rgba(51, 65, 85, 0.5)" stroke-width="1"/><text x="503.84" y="50.3" fill="rgb(100, 116, 139)" font-family="-apple-system" font-size="10" font-weight="600">RAM</text><text x="531.72" y="50.56" fill="rgb(203, 213, 225)" font-family="ui-monospace" font-size="12" font-weight="500">3.2</text><text x="560.52" y="50.56" fill="rgb(203, 213, 225)" font-family="ui-monospace" font-size="12" font-weight="500">GB</text><text x="582.13" y="50.56" fill="rgb(203, 213, 225)" font-family="ui-monospace" font-size="12" font-weight="500">/</text><text x="596.52" y="50.56" fill="rgb(203, 213, 225)" font-family="ui-monospace" font-size="12" font-weight="500">8</text><text x="610.92" y="50.56" fill="rgb(203, 213, 225)" font-family="ui-monospace" font-size="12" font-weight="500">GB</text><rect x="650.34" y="32" width="75.55" height="30" rx="8" fill="rgb(30, 41, 59)" stroke="rgba(51, 65, 85, 0.5)" stroke-width="1"/><text x="663.34" y="50.3" fill="rgb(100, 116, 139)" font-family="-apple-system" font-size="10" font-weight="600">Disk</text><text x="691.28" y="50.56" fill="rgb(203, 213, 225)" font-family="ui-monospace" font-size="12" font-weight="500">48%</text><rect x="737.89" y="32" width="74.81" height="30" rx="8" fill="rgb(30, 41, 59)" stroke="rgba(51, 65, 85, 0.5)" stroke-width="1"/><svg fill="none" viewBox="0 0 24 24" stroke-width="1.5" stroke="currentColor" style="color:rgb(34, 197, 94);overflow:visible" x="750.89" y="40" width="14" height="14" color="rgb(34, 197, 94)" xmlns="http://www.w3.org/2000/svg"><path stroke-linecap="round" stroke-linejoin="round" d="M15.362 5.214A8.252 8.252 0 0112 21 8.25 8.25 0 016.038 7.048 8.287 8.287 0 009 9.6a8.983 8.983 0 013.361-6.867 8.21 8.21 0 003 2.48z"></path></svg><text x="770.89" y="50.56" fill="rgb(34, 197, 94)" font-family="ui-monospace" font-size="12" font-weight="400">54</text><text x="785.3" y="50.56" fill="rgb(34, 197, 94)" font-family="ui-monospace" font-size="12" font-weight="400">°C</text><rect x="824.7" y="32" width="136.47" height="30" rx="8" fill="rgb(30, 41, 59)" stroke="rgba(51, 65, 85, 0.5)" stroke-width="1"/><text x="837.7" y="50.3" fill="rgb(100, 116, 139)" font-family="-apple-system" font-size="10" font-weight="600">Tailnet</text><text x="883.36" y="50.56" fill="rgb(96, 165, 250)" font-family="ui-monospace" font-size="12" font-weight="500">Connected</text><rect x="973.17" y="32" width="79.3" height="30" rx="8" fill="rgba(6, 182, 212, 0.1)" stroke="rgba(6, 182, 212, 0.2)" stroke-width="1"/><text x="986.17" y="50.56" fill="rgb(34, 211, 238)" font-family="-apple-system" font-size="12" font-weight="600">2</text><text x="996.05" y="50.56" fill="rgb(34, 211, 238)" font-family="-apple-system" font-size="12" font-weight="600">update</text><text x="1033.28" y="50.56" fill="rgb(34, 211, 238)" font-family="-apple-system" font-size="12" font-weight="600">s</text><rect x="1318.39" y="32" width="89.61" height="30" rx="8" fill="rgb(30, 41, 59)" stroke="rgba(51, 65, 85, 0.5)" stroke-width="1"/><svg fill="none" viewBox="0 0 24 24" stroke="currentColor" stroke-width="2" x="1331.39" y="40" width="14" height="14" color="rgb(226, 232, 240)" style="color:rgb(226, 232, 240);overflow:visible" xmlns="http://www.w3.org/2000/svg"><path stroke-linecap="round" stroke-linejoin="round" d="M4 4v5h.582m15.356 2A8.001 8.001 0 004.582 9m0 0H9m11 11v-5h-.581m0 0a8.003 8.003 0 01-15.357-2m15.357 2H15"></path></svg><text x="1353.39" y="50.56" fill="rgb(226, 232, 240)" font-family="-apple-system" font-size="12" font-weight="500">Refresh</text><rect x="288" y="86" width="1120" height="138" rx="12" fill="rgba(245, 158, 11, 0.05)" stroke="rgba(245, 158, 11, 0.15)" stroke-width="1"/><text x="305" y="117.32" fill="rgb(251, 191, 36)" font-family="-apple-system" font-size="14" font-weight="600">4</text><text x="316.53" y="117.32" fill="rgb(251, 191, 36)" font-family="-apple-system" font-size="14" font-weight="600">item</text><text x="344.67" y="117.32" fill="rgb(251, 191, 36)" font-family="-apple-system" font-size="14" font-weight="600">s</text><text x="355.38" y="117.32" fill="rgb(251, 191, 36)" font-family="-apple-system" font-size="14" font-weight="600">need</text><text x="389.73" y="117.32" fill="rgb(251, 191, 36)" font-family="-apple-system" font-size="14" font-weight="600">attention</text><text x="305" y="142.56" fill="rgb(203, 213, 225)" font-family="-apple-system" font-size="12" font-weight="400">🔴</text><text x="327.98" y="142.56" fill="rgb(203, 213, 225)" font-family="-apple-system" font-size="12" font-weight="400">Paperless:</text><text x="386.73" y="142.56" fill="rgb(203, 213, 225)" font-family="-apple-system" font-size="12" font-weight="400">unhealthy</text><text x="305" y="162.56" fill="rgb(203, 213, 225)" font-family="-apple-system" font-size="12" font-weight="400">⚪</text><text x="327.98" y="162.56" fill="rgb(203, 213, 225)" font-family="-apple-system" font-size="12" font-weight="400">archive-job:</text><text x="392.02" y="162.56" fill="rgb(203, 213, 225)" font-family="-apple-system" font-size="12" font-weight="400">exited</text><text x="305" y="182.56" fill="rgb(203, 213, 225)" font-family="-apple-system" font-size="12" font-weight="400">🔵</text><text x="327.98" y="182.56" fill="rgb(203, 213, 225)" font-family="-apple-system" font-size="12" font-weight="400">Home</text><text x="363.25" y="182.56" fill="rgb(203, 213, 225)" font-family="-apple-system" font-size="12" font-weight="400">Assistant:</text><text x="419.45" y="182.56" fill="rgb(203, 213, 225)" font-family="-apple-system" font-size="12" font-weight="400">new</text><text x="444.44" y="182.56" fill="rgb(203, 213, 225)" font-family="-apple-system" font-size="12" font-weight="400">image</text><text x="480.48" y="182.56" fill="rgb(203, 213, 225)" font-family="-apple-system" font-size="12" font-weight="400">available</text><text x="305" y="202.56" fill="rgb(203, 213, 225)" font-family="-apple-system" font-size="12" font-weight="400">🔵</text><text x="327.98" y="202.56" fill="rgb(203, 213, 225)" font-family="-apple-system" font-size="12" font-weight="400">Dashgo:</text><text x="374.64" y="202.56" fill="rgb(203, 213, 225)" font-family="-apple-system" font-size="12" font-weight="400">new</text><text x="399.63" y="202.56" fill="rgb(203, 213, 225)" font-family="-apple-system" font-size="12" font-weight="400">image</text><text x="435.67" y="202.56" fill="rgb(203, 213, 225)" font-family="-apple-system" font-size="12" font-weight="400">available</text><rect x="288" y="248" width="268" height="73" rx="12" fill="rgba(30, 41, 59, 0.6)" stroke="rgba(51, 65, 85, 0.4)" stroke-width="1"/><text x="309" y="275.8" fill="rgb(100, 116, 139)" font-family="-apple-system" font-size="10" font-weight="600" letter-spacing="0.5">Containers</text><text x="309" y="298.32" fill="rgb(96, 165, 250)" font-family="-apple-system" font-size="14" font-weight="700">7</text><text x="321.05" y="298.32" fill="rgb(100, 116, 139)" font-family="-apple-system" font-size="14" font-weight="400">running</text><rect x="572" y="248" width="268" height="73" rx="12" fill="rgba(30, 41, 59, 0.6)" stroke="rgba(51, 65, 85, 0.4)" stroke-width="1"/><text x="593" y="275.8" fill="rgb(100, 116, 139)" font-family="-apple-system" font-size="10" font-weight="600" letter-spacing="0.5">Health</text><text x="593" y="298.32" fill="rgb(248, 113, 113)" font-family="-apple-system" font-size="14" font-weight="700">5</text><text x="604.52" y="298.32" fill="rgb(248, 113, 113)" font-family="-apple-system" font-size="14" font-weight="700">healthy</text><text x="654.23" y="298.32" fill="rgb(248, 113, 113)" font-family="-apple-system" font-size="14" font-weight="700">·</text><text x="661.94" y="298.32" fill="rgb(248, 113, 113)" font-family="-apple-system" font-size="14" font-weight="700">1</text><text x="673.45" y="298.32" fill="rgb(248, 113, 113)" font-family="-apple-system" font-size="14" font-weight="700">unhealthy</text><rect x="856" y="248" width="268" height="73" rx="12" fill="rgba(30, 41, 59, 0.6)" stroke="rgba(51, 65, 85, 0.4)" stroke-width="1"/><text x="877" y="275.8" fill="rgb(100, 116, 139)" font-family="-apple-system" font-size="10" font-weight="600" letter-spacing="0.5">Published</text><text x="877" y="298.32" fill="rgb(192, 132, 252)" font-family="-apple-system" font-size="14" font-weight="700">6</text><text x="889.05" y="298.32" fill="rgb(100, 116, 139)" font-family="-apple-system" font-size="14" font-weight="400">services</text><rect x="1140" y="248" width="268" height="73" rx="12" fill="rgba(30, 41, 59, 0.6)" stroke="rgba(51, 65, 85, 0.4)" stroke-width="1"/><text x="1161" y="275.8" fill="rgb(100, 116, 139)" font-family="-apple-system" font-size="10" font-weight="600" letter-spacing="0.5">Updates</text><text x="1161" y="298.32" fill="rgb(34, 211, 238)" font-family="-apple-system" font-size="14" font-weight="700">2</text><text x="1172.52" y="298.32" fill="rgb(34, 211, 238)" font-family="-apple-system" font-size="14" font-weight="700">available</text><rect x="288" y="345" width="371.34" height="38" rx="8" fill="rgb(30, 41, 59)" stroke="rgba(51, 65, 85, 0.5)" stroke-width="1"/><rect x="291" y="348" width="78.53" height="32" rx="6" fill="rgba(51, 65, 85, 0.165)"/><text x="307" y="367.56" fill="rgb(163, 176, 195)" font-family="-apple-system" font-size="12" font-weight="600">Services</text><rect x="369.53" y="348" width="90.81" height="32" rx="6" fill="rgba(51, 65, 85, 0.835)"/><text x="385.53" y="367.56" fill="rgb(226, 232, 238)" font-family="-apple-system" font-size="12" font-weight="600">Containers</text><text x="476.34" y="367.56" fill="rgb(148, 163, 184)" font-family="-apple-system" font-size="12" font-weight="600">Needs</text><text x="513.72" y="367.56" fill="rgb(148, 163, 184)" font-family="-apple-system" font-size="12" font-weight="600">Attention</text><text x="595.77" y="367.56" fill="rgb(148, 163, 184)" font-family="-apple-system" font-size="12" font-weight="600">Updates</text><rect x="1152" y="345" width="256" height="38" rx="8" fill="rgb(30, 41, 59)" stroke="rgba(51, 65, 85, 0.5)" stroke-width="1"/><text x="1168" y="369.32" fill="rgb(241, 245, 249)" font-family="-apple-system" font-size="14" font-weight="400">Search...</text><rect x="288" y="403" width="1120" height="707" rx="12" fill="rgba(30, 41, 59, 0.6)" stroke="rgba(51, 65, 85, 0.4)" stroke-width="1"/><rect x="289" y="404" width="1118" height="39" rx="0" fill="rgba(15, 23, 42, 0.3)"/><text x="309" y="426.8" fill="rgb(100, 116, 139)" font-family="-apple-system" font-size="10" font-weight="600" letter-spacing="0.5">Service</text><text x="571.56" y="426.8" fill="rgb(100, 116, 139)" font-family="-apple-system" font-size="10" font-weight="600" letter-spacing="0.5">State</text><text x="728.45" y="426.8" fill="rgb(100, 116, 139)" font-family="-apple-system" font-size="10" font-weight="600" letter-spacing="0.5">Endpoints</text><text x="1019.17" y="426.8" fill="rgb(100, 116, 139)" font-family="-apple-system" font-size="10" font-weight="600" letter-spacing="0.5">Updates</text><text x="1341.23" y="426.8" fill="rgb(100, 116, 139)" font-family="-apple-system" font-size="10" font-weight="600" letter-spacing="0.5">Actions</text><rect x="289" y="443" width="1118" height="45.5" rx="0" fill="rgba(15, 23, 42, 0.2)"/><svg fill="none" viewBox="0 0 24 24" stroke-width="2" stroke="currentColor" x="309" y="458.5" width="14" height="14" color="rgb(100, 116, 139)" style="color:rgb(100, 116, 139);overflow:visible" xmlns="http://www.w3.org/2000/svg"><path stroke-linecap="round" stroke-linejoin="round" d="M8.25 4.5l7.5 7.5-7.5 7.5"></path></svg><text x="335" y="469.06" fill="rgb(148, 163, 184)" font-family="-apple-system" font-size="12" font-weight="700" letter-spacing="0.6">home-stack</text><text x="429.23" y="468.8" fill="rgb(71, 85, 105)" font-family="ui-monospace" font-size="10" font-weight="400">3</text><text x="435.25" y="468.8" fill="rgb(71, 85, 105)" font-family="ui-monospace" font-size="10" font-weight="400">/</text><text x="441.27" y="468.8" fill="rgb(71, 85, 105)" font-family="ui-monospace" font-size="10" font-weight="400">3</text><rect x="1249.2" y="453" width="50.95" height="25" rx="4" fill="rgba(234, 179, 8, 0.1)" stroke="rgba(234, 179, 8, 0.2)" stroke-width="1"/><text x="1258.2" y="468.8" fill="rgb(250, 204, 21)" font-family="-apple-system" font-size="10" font-weight="600">Restart</text><rect x="1304.16" y="453" width="38.67" height="25" rx="4" fill="rgba(239, 68, 68, 0.1)" stroke="rgba(239, 68, 68, 0.2)" stroke-width="1"/><text x="1313.16" y="468.8" fill="rgb(248, 113, 113)" font-family="-apple-system" font-size="10" font-weight="600">Stop</text><rect x="1346.83" y="453" width="40.17" height="25" rx="4" fill="rgba(34, 197, 94, 0.1)" stroke="rgba(34, 197, 94, 0.2)" stroke-width="1"/><text x="1355.83" y="468.8" fill="rgb(74, 222, 128)" font-family="-apple-system" font-size="10" font-weight="600">Start</text><rect x="289" y="488.5" width="1118" height="61.5" rx="0" fill="none" stroke="rgba(51, 65, 85, 0.3)" stroke-width="1"/><text x="309" y="515.32" fill="rgb(241, 245, 249)" font-family="-apple-system" font-size="14" font-weight="500">Home</text><text x="350.11" y="515.32" fill="rgb(241, 245, 249)" font-family="-apple-system" font-size="14" font-weight="500">Assistant</text><text x="309" y="532.68" fill="rgb(100, 116, 139)" font-family="ui-monospace" font-size="11" font-weight="400">home-assistant:stable</text><rect x="571.56" y="507.25" width="6" height="6" rx="9999" fill="rgb(74, 222, 128)"/><text x="583.56" y="513.81" fill="rgb(74, 222, 128)" font-family="-apple-system" font-size="12" font-weight="500">Running</text><text x="571.56" y="531.81" fill="rgb(74, 222, 128)" font-family="-apple-system" font-size="12" font-weight="500">✓</text><text x="584.63" y="531.81" fill="rgb(74, 222, 128)" font-family="-apple-system" font-size="12" font-weight="500">Healthy</text><rect x="728.45" y="508.75" width="80.94" height="21" rx="4" fill="rgba(59, 130, 246, 0.1)" stroke="rgba(59, 130, 246, 0.2)" stroke-width="1"/><text x="737.45" y="522.55" fill="rgb(96, 165, 250)" font-family="-apple-system" font-size="10" font-weight="500">Local</text><text x="764.25" y="522.55" fill="rgb(96, 165, 250)" font-family="-apple-system" font-size="10" font-weight="500">network</text><rect x="813.39" y="508.75" width="57.53" height="21" rx="4" fill="rgba(59, 130, 246, 0.1)" stroke="rgba(59, 130, 246, 0.2)" stroke-width="1"/><text x="822.39" y="522.55" fill="rgb(96, 165, 250)" font-family="-apple-system" font-size="10" font-weight="500">Tailscale</text><text x="874.92" y="519.55" fill="rgb(100, 116, 139)" font-family="-apple-system" font-size="10" font-weight="400">+</text><text x="880.61" y="519.55" fill="rgb(100, 116, 139)" font-family="-apple-system" font-size="10" font-weight="400">1</text><rect x="1019.17" y="512.25" width="55.41" height="17" rx="6" fill="rgba(6, 182, 212, 0.1)" stroke="rgba(6, 182, 212, 0.2)" stroke-width="1"/><text x="1028.17" y="524.05" fill="rgb(34, 211, 238)" font-family="-apple-system" font-size="10" font-weight="700">Update</text><rect x="1244.98" y="504" width="57.88" height="30.5" rx="8" fill="rgba(234, 179, 8, 0.1)" stroke="rgba(234, 179, 8, 0.2)" stroke-width="1"/><text x="1255.98" y="521.68" fill="rgb(250, 204, 21)" font-family="-apple-system" font-size="11" font-weight="500">Restart</text><rect x="1308.86" y="505" width="44.14" height="28.5" rx="8" fill="rgb(51, 65, 85)"/><text x="1318.86" y="521.68" fill="rgb(203, 213, 225)" font-family="-apple-system" font-size="11" font-weight="500">Logs</text><svg fill="none" viewBox="0 0 24 24" stroke-width="1.5" stroke="currentColor" x="1365" y="511.25" width="16" height="16" color="rgb(100, 116, 139)" style="color:rgb(100, 116, 139);overflow:visible" xmlns="http://www.w3.org/2000/svg"><path stroke-linecap="round" stroke-linejoin="round" d="M6.75 12a.75.75 0 11-1.5 0 .75.75 0 011.5 0zM12.75 12a.75.75 0 11-1.5 0 .75.75 0 011.5 0zM18.75 12a.75.75 0 11-1.5 0 .75.75 0 011.5 0z"></path></svg><rect x="289" y="550" width="1118" height="61.5" rx="0" fill="none" stroke="rgba(51, 65, 85, 0.3)" stroke-width="1"/><text x="309" y="576.82" fill="rgb(241, 245, 249)" font-family="-apple-system" font-size="14" font-weight="500">grafana</text><text x="309" y="594.18" fill="rgb(100, 116, 139)" font-family="ui-monospace" font-size="11" font-weight="400">grafana:11.1.0</text><rect x="571.56" y="568.75" width="6" height="6" rx="9999" fill="rgb(74, 222, 128)"/><text x="583.56" y="575.31" fill="rgb(74, 222, 128)" font-family="-apple-system" font-size="12" font-weight="500">Running</text><text x="571.56" y="593.31" fill="rgb(74, 222, 128)" font-family="-apple-system" font-size="12" font-weight="500">✓</text><text x="584.63" y="593.31" fill="rgb(74, 222, 128)" font-family="-apple-system" font-size="12" font-weight="500">Healthy</text><rect x="728.45" y="570.25" width="80.94" height="21" rx="4" fill="rgba(59, 130, 246, 0.1)" stroke="rgba(59, 130, 246, 0.2)" stroke-width="1"/><text x="737.45" y="584.05" fill="rgb(96, 165, 250)" font-family="-apple-system" font-size="10" font-weight="500">Local</text><text x="764.25" y="584.05" fill="rgb(96, 165, 250)" font-family="-apple-system" font-size="10" font-weight="500">network</text><rect x="813.39" y="570.25" width="57.53" height="21" rx="4" fill="rgba(59, 130, 246, 0.1)" stroke="rgba(59, 130, 246, 0.2)" stroke-width="1"/><text x="822.39" y="584.05" fill="rgb(96, 165, 250)" font-family="-apple-system" font-size="10" font-weight="500">Tailscale</text><text x="874.92" y="581.05" fill="rgb(100, 116, 139)" font-family="-apple-system" font-size="10" font-weight="400">+</text><text x="880.61" y="581.05" fill="rgb(100, 116, 139)" font-family="-apple-system" font-size="10" font-weight="400">1</text><text x="1019.17" y="585.55" fill="rgb(71, 85, 105)" font-family="-apple-system" font-size="10" font-weight="400">—</text><rect x="1244.98" y="565.5" width="57.88" height="30.5" rx="8" fill="rgba(234, 179, 8, 0.1)" stroke="rgba(234, 179, 8, 0.2)" stroke-width="1"/><text x="1255.98" y="583.18" fill="rgb(250, 204, 21)" font-family="-apple-system" font-size="11" font-weight="500">Restart</text><rect x="1308.86" y="566.5" width="44.14" height="28.5" rx="8" fill="rgb(51, 65, 85)"/><text x="1318.86" y="583.18" fill="rgb(203, 213, 225)" font-family="-apple-system" font-size="11" font-weight="500">Logs</text><svg fill="none" viewBox="0 0 24 24" stroke-width="1.5" stroke="currentColor" x="1365" y="572.75" width="16" height="16" color="rgb(100, 116, 139)" style="color:rgb(100, 116, 139);overflow:visible" xmlns="http://www.w3.org/2000/svg"><path stroke-linecap="round" stroke-linejoin="round" d="M6.75 12a.75.75 0 11-1.5 0 .75.75 0 011.5 0zM12.75 12a.75.75 0 11-1.5 0 .75.75 0 011.5 0zM18.75 12a.75.75 0 11-1.5 0 .75.75 0 011.5 0z"></path></svg><rect x="289" y="611.5" width="1118" height="61.5" rx="0" fill="none" stroke="rgba(51, 65, 85, 0.3)" stroke-width="1"/><text x="309" y="638.32" fill="rgb(241, 245, 249)" font-family="-apple-system" font-size="14" font-weight="500">postgres</text><text x="309" y="655.68" fill="rgb(100, 116, 139)" font-family="ui-monospace" font-size="11" font-weight="400">postgres:16-alpine</text><rect x="571.56" y="630.25" width="6" height="6" rx="9999" fill="rgb(74, 222, 128)"/><text x="583.56" y="636.81" fill="rgb(74, 222, 128)" font-family="-apple-system" font-size="12" font-weight="500">Running</text><text x="571.56" y="654.81" fill="rgb(74, 222, 128)" font-family="-apple-system" font-size="12" font-weight="500">✓</text><text x="584.63" y="654.81" fill="rgb(74, 222, 128)" font-family="-apple-system" font-size="12" font-weight="500">Healthy</text><text x="728.45" y="647.05" fill="rgb(71, 85, 105)" font-family="-apple-system" font-size="10" font-weight="400">—</text><text x="1019.17" y="647.05" fill="rgb(71, 85, 105)" font-family="-apple-system" font-size="10" font-weight="400">—</text><rect x="1244.98" y="627" width="57.88" height="30.5" rx="8" fill="rgba(234, 179, 8, 0.1)" stroke="rgba(234, 179, 8, 0.2)" stroke-width="1"/><text x="1255.98" y="644.68" fill="rgb(250, 204, 21)" font-family="-apple-system" font-size="11" font-weight="500">Restart</text><rect x="1308.86" y="628" width="44.14" height="28.5" rx="8" fill="rgb(51, 65, 85)"/><text x="1318.86" y="644.68" fill="rgb(203, 213, 225)" font-family="-apple-system" font-size="11" font-weight="500">Logs</text><svg fill="none" viewBox="0 0 24 24" stroke-width="1.5" stroke="currentColor" x="1365" y="634.25" width="16" height="16" color="rgb(100, 116, 139)" style="color:rgb(100, 116, 139);overflow:visible" xmlns="http://www.w3.org/2000/svg"><path stroke-linecap="round" stroke-linejoin="round" d="M6.75 12a.75.75 0 11-1.5 0 .75.75 0 011.5 0zM12.75 12a.75.75 0 11-1.5 0 .75.75 0 011.5 0zM18.75 12a.75.75 0 11-1.5 0 .75.75 0 011.5 0z"></path></svg><rect x="289" y="673" width="1118" height="46" rx="0" fill="rgba(15, 23, 42, 0.2)" stroke="rgba(51, 65, 85, 0.3)" stroke-width="1"/><svg fill="none" viewBox="0 0 24 24" stroke-width="2" stroke="currentColor" x="309" y="689" width="14" height="14" color="rgb(100, 116, 139)" style="color:rgb(100, 116, 139);overflow:visible" xmlns="http://www.w3.org/2000/svg"><path stroke-linecap="round" stroke-linejoin="round" d="M8.25 4.5l7.5 7.5-7.5 7.5"></path></svg><text x="335" y="699.56" fill="rgb(148, 163, 184)" font-family="-apple-system" font-size="12" font-weight="700" letter-spacing="0.6">media-stack</text><text x="432.56" y="699.3" fill="rgb(71, 85, 105)" font-family="ui-monospace" font-size="10" font-weight="400">2</text><text x="438.58" y="699.3" fill="rgb(71, 85, 105)" font-family="ui-monospace" font-size="10" font-weight="400">/</text><text x="444.59" y="699.3" fill="rgb(71, 85, 105)" font-family="ui-monospace" font-size="10" font-weight="400">2</text><rect x="1249.2" y="683.5" width="50.95" height="25" rx="4" fill="rgba(234, 179, 8, 0.1)" stroke="rgba(234, 179, 8, 0.2)" stroke-width="1"/><text x="1258.2" y="699.3" fill="rgb(250, 204, 21)" font-family="-apple-system" font-size="10" font-weight="600">Restart</text><rect x="1304.16" y="683.5" width="38.67" height="25" rx="4" fill="rgba(239, 68, 68, 0.1)" stroke="rgba(239, 68, 68, 0.2)" stroke-width="1"/><text x="1313.16" y="699.3" fill="rgb(248, 113, 113)" font-family="-apple-system" font-size="10" font-weight="600">Stop</text><rect x="1346.83" y="683.5" width="40.17" height="25" rx="4" fill="rgba(34, 197, 94, 0.1)" stroke="rgba(34, 197, 94, 0.2)" stroke-width="1"/><text x="1355.83" y="699.3" fill="rgb(74, 222, 128)" font-family="-apple-system" font-size="10" font-weight="600">Start</text><rect x="289" y="719" width="1118" height="61.5" rx="0" fill="none" stroke="rgba(51, 65, 85, 0.3)" stroke-width="1"/><text x="309" y="745.82" fill="rgb(241, 245, 249)" font-family="-apple-system" font-size="14" font-weight="500">Plex</text><text x="339.58" y="745.82" fill="rgb(241, 245, 249)" font-family="-apple-system" font-size="14" font-weight="500">Media</text><text x="309" y="763.18" fill="rgb(100, 116, 139)" font-family="ui-monospace" font-size="11" font-weight="400">plex:latest</text><rect x="571.56" y="737.75" width="6" height="6" rx="9999" fill="rgb(74, 222, 128)"/><text x="583.56" y="744.31" fill="rgb(74, 222, 128)" font-family="-apple-system" font-size="12" font-weight="500">Running</text><text x="571.56" y="762.31" fill="rgb(74, 222, 128)" font-family="-apple-system" font-size="12" font-weight="500">✓</text><text x="584.63" y="762.31" fill="rgb(74, 222, 128)" font-family="-apple-system" font-size="12" font-weight="500">Healthy</text><rect x="728.45" y="739.25" width="80.94" height="21" rx="4" fill="rgba(59, 130, 246, 0.1)" stroke="rgba(59, 130, 246, 0.2)" stroke-width="1"/><text x="737.45" y="753.05" fill="rgb(96, 165, 250)" font-family="-apple-system" font-size="10" font-weight="500">Local</text><text x="764.25" y="753.05" fill="rgb(96, 165, 250)" font-family="-apple-system" font-size="10" font-weight="500">network</text><rect x="813.39" y="739.25" width="57.53" height="21" rx="4" fill="rgba(59, 130, 246, 0.1)" stroke="rgba(59, 130, 246, 0.2)" stroke-width="1"/><text x="822.39" y="753.05" fill="rgb(96, 165, 250)" font-family="-apple-system" font-size="10" font-weight="500">Tailscale</text><text x="874.92" y="750.05" fill="rgb(100, 116, 139)" font-family="-apple-system" font-size="10" font-weight="400">+</text><text x="880.61" y="750.05" fill="rgb(100, 116, 139)" font-family="-apple-system" font-size="10" font-weight="400">1</text><text x="1019.17" y="754.55" fill="rgb(71, 85, 105)" font-family="-apple-system" font-size="10" font-weight="400">—</text><rect x="1244.98" y="734.5" width="57.88" height="30.5" rx="8" fill="rgba(234, 179, 8, 0.1)" stroke="rgba(234, 179, 8, 0.2)" stroke-width="1"/><text x="1255.98" y="752.18" fill="rgb(250, 204, 21)" font-family="-apple-system" font-size="11" font-weight="500">Restart</text><rect x="1308.86" y="735.5" width="44.14" height="28.5" rx="8" fill="rgb(51, 65, 85)"/><text x="1318.86" y="752.18" fill="rgb(203, 213, 225)" font-family="-apple-system" font-size="11" font-weight="500">Logs</text><svg fill="none" viewBox="0 0 24 24" stroke-width="1.5" stroke="currentColor" x="1365" y="741.75" width="16" height="16" color="rgb(100, 116, 139)" style="color:rgb(100, 116, 139);overflow:visible" xmlns="http://www.w3.org/2000/svg"><path stroke-linecap="round" stroke-linejoin="round" d="M6.75 12a.75.75 0 11-1.5 0 .75.75 0 011.5 0zM12.75 12a.75.75 0 11-1.5 0 .75.75 0 011.5 0zM18.75 12a.75.75 0 11-1.5 0 .75.75 0 011.5 0z"></path></svg><rect x="289" y="780.5" width="1118" height="61.5" rx="0" fill="none" stroke="rgba(51, 65, 85, 0.3)" stroke-width="1"/><text x="309" y="807.32" fill="rgb(241, 245, 249)" font-family="-apple-system" font-size="14" font-weight="500">minio</text><text x="309" y="824.68" fill="rgb(100, 116, 139)" font-family="ui-monospace" font-size="11" font-weight="400">minio:latest</text><rect x="571.56" y="808.25" width="6" height="6" rx="9999" fill="rgb(74, 222, 128)"/><text x="583.56" y="814.81" fill="rgb(74, 222, 128)" font-family="-apple-system" font-size="12" font-weight="500">Running</text><rect x="728.45" y="800.75" width="80.94" height="21" rx="4" fill="rgba(59, 130, 246, 0.1)" stroke="rgba(59, 130, 246, 0.2)" stroke-width="1"/><text x="737.45" y="814.55" fill="rgb(96, 165, 250)" font-family="-apple-system" font-size="10" font-weight="500">Local</text><text x="764.25" y="814.55" fill="rgb(96, 165, 250)" font-family="-apple-system" font-size="10" font-weight="500">network</text><rect x="813.39" y="800.75" width="57.53" height="21" rx="4" fill="rgba(59, 130, 246, 0.1)" stroke="rgba(59, 130, 246, 0.2)" stroke-width="1"/><text x="822.39" y="814.55" fill="rgb(96, 165, 250)" font-family="-apple-system" font-size="10" font-weight="500">Tailscale</text><text x="874.92" y="811.55" fill="rgb(100, 116, 139)" font-family="-apple-system" font-size="10" font-weight="400">+</text><text x="880.61" y="811.55" fill="rgb(100, 116, 139)" font-family="-apple-system" font-size="10" font-weight="400">1</text><text x="1019.17" y="816.05" fill="rgb(71, 85, 105)" font-family="-apple-system" font-size="10" font-weight="400">—</text><rect x="1244.98" y="796" width="57.88" height="30.5" rx="8" fill="rgba(234, 179, 8, 0.1)" stroke="rgba(234, 179, 8, 0.2)" stroke-width="1"/><text x="1255.98" y="813.68" fill="rgb(250, 204, 21)" font-family="-apple-system" font-size="11" font-weight="500">Restart</text><rect x="1308.86" y="797" width="44.14" height="28.5" rx="8" fill="rgb(51, 65, 85)"/><text x="1318.86" y="813.68" fill="rgb(203, 213, 225)" font-family="-apple-system" font-size="11" font-weight="500">Logs</text><svg fill="none" viewBox="0 0 24 24" stroke-width="1.5" stroke="currentColor" x="1365" y="803.25" width="16" height="16" color="rgb(100, 116, 139)" style="color:rgb(100, 116, 139);overflow:visible" xmlns="http://www.w3.org/2000/svg"><path stroke-linecap="round" stroke-linejoin="round" d="M6.75 12a.75.75 0 11-1.5 0 .75.75 0 011.5 0zM12.75 12a.75.75 0 11-1.5 0 .75.75 0 011.5 0zM18.75 12a.75.75 0 11-1.5 0 .75.75 0 011.5 0z"></path></svg><rect x="289" y="842" width="1118" height="46" rx="0" fill="rgba(15, 23, 42, 0.2)" stroke="rgba(51, 65, 85, 0.3)" stroke-width="1"/><svg fill="none" viewBox="0 0 24 24" stroke-width="2" stroke="currentColor" x="309" y="858" width="14" height="14" color="rgb(100, 116, 139)" style="color:rgb(100, 116, 139);overflow:visible" xmlns="http://www.w3.org/2000/svg"><path stroke-linecap="round" stroke-linejoin="round" d="M8.25 4.5l7.5 7.5-7.5 7.5"></path></svg><text x="335" y="868.56" fill="rgb(148, 163, 184)" font-family="-apple-system" font-size="12" font-weight="700" letter-spacing="0.6">office</text><text x="390.17" y="868.3" fill="rgb(71, 85, 105)" font-family="ui-monospace" font-size="10" font-weight="400">1</text><text x="396.19" y="868.3" fill="rgb(71, 85, 105)" font-family="ui-monospace" font-size="10" font-weight="400">/</text><text x="402.2" y="868.3" fill="rgb(71, 85, 105)" font-family="ui-monospace" font-size="10" font-weight="400">1</text><rect x="1249.2" y="852.5" width="50.95" height="25" rx="4" fill="rgba(234, 179, 8, 0.1)" stroke="rgba(234, 179, 8, 0.2)" stroke-width="1"/><text x="1258.2" y="868.3" fill="rgb(250, 204, 21)" font-family="-apple-system" font-size="10" font-weight="600">Restart</text><rect x="1304.16" y="852.5" width="38.67" height="25" rx="4" fill="rgba(239, 68, 68, 0.1)" stroke="rgba(239, 68, 68, 0.2)" stroke-width="1"/><text x="1313.16" y="868.3" fill="rgb(248, 113, 113)" font-family="-apple-system" font-size="10" font-weight="600">Stop</text><rect x="1346.83" y="852.5" width="40.17" height="25" rx="4" fill="rgba(34, 197, 94, 0.1)" stroke="rgba(34, 197, 94, 0.2)" stroke-width="1"/><text x="1355.83" y="868.3" fill="rgb(74, 222, 128)" font-family="-apple-system" font-size="10" font-weight="600">Start</text><rect x="289" y="888" width="1118" height="61.5" rx="0" fill="none" stroke="rgba(51, 65, 85, 0.3)" stroke-width="1"/><text x="309" y="914.82" fill="rgb(241, 245, 249)" font-family="-apple-system" font-size="14" font-weight="500">Paperless</text><text x="309" y="932.18" fill="rgb(100, 116, 139)" font-family="ui-monospace" font-size="11" font-weight="400">paperless-ngx:latest</text><rect x="571.56" y="906.75" width="6" height="6" rx="9999" fill="rgb(74, 222, 128)"/><text x="583.56" y="913.31" fill="rgb(74, 222, 128)" font-family="-apple-system" font-size="12" font-weight="500">Running</text><text x="571.56" y="931.31" fill="rgb(248, 113, 113)" font-family="-apple-system" font-size="12" font-weight="500">✗</text><text x="584.63" y="931.31" fill="rgb(248, 113, 113)" font-family="-apple-system" font-size="12" font-weight="500">Unhealthy</text><rect x="728.45" y="908.25" width="80.94" height="21" rx="4" fill="rgba(59, 130, 246, 0.1)" stroke="rgba(59, 130, 246, 0.2)" stroke-width="1"/><text x="737.45" y="922.05" fill="rgb(96, 165, 250)" font-family="-apple-system" font-size="10" font-weight="500">Local</text><text x="764.25" y="922.05" fill="rgb(96, 165, 250)" font-family="-apple-system" font-size="10" font-weight="500">network</text><rect x="813.39" y="908.25" width="57.53" height="21" rx="4" fill="rgba(59, 130, 246, 0.1)" stroke="rgba(59, 130, 246, 0.2)" stroke-width="1"/><text x="822.39" y="922.05" fill="rgb(96, 165, 250)" font-family="-apple-system" font-size="10" font-weight="500">Tailscale</text><text x="874.92" y="919.05" fill="rgb(100, 116, 139)" font-family="-apple-system" font-size="10" font-weight="400">+</text><text x="880.61" y="919.05" fill="rgb(100, 116, 139)" font-family="-apple-system" font-size="10" font-weight="400">1</text><text x="1019.17" y="923.55" fill="rgb(71, 85, 105)" font-family="-apple-system" font-size="10" font-weight="400">—</text><rect x="1244.98" y="903.5" width="57.88" height="30.5" rx="8" fill="rgba(234, 179, 8, 0.1)" stroke="rgba(234, 179, 8, 0.2)" stroke-width="1"/><text x="1255.98" y="921.18" fill="rgb(250, 204, 21)" font-family="-apple-system" font-size="11" font-weight="500">Restart</text><rect x="1308.86" y="904.5" width="44.14" height="28.5" rx="8" fill="rgb(51, 65, 85)"/><text x="1318.86" y="921.18" fill="rgb(203, 213, 225)" font-family="-apple-system" font-size="11" font-weight="500">Logs</text><svg fill="none" viewBox="0 0 24 24" stroke-width="1.5" stroke="currentColor" x="1365" y="910.75" width="16" height="16" color="rgb(100, 116, 139)" style="color:rgb(100, 116, 139);overflow:visible" xmlns="http://www.w3.org/2000/svg"><path stroke-linecap="round" stroke-linejoin="round" d="M6.75 12a.75.75 0 11-1.5 0 .75.75 0 011.5 0zM12.75 12a.75.75 0 11-1.5 0 .75.75 0 011.5 0zM18.75 12a.75.75 0 11-1.5 0 .75.75 0 011.5 0z"></path></svg><rect x="289" y="949.5" width="1118" height="37" rx="0" fill="rgba(15, 23, 42, 0.2)" stroke="rgba(51, 65, 85, 0.3)" stroke-width="1"/><svg fill="none" viewBox="0 0 24 24" stroke-width="2" stroke="currentColor" x="309" y="961" width="14" height="14" color="rgb(100, 116, 139)" style="color:rgb(100, 116, 139);overflow:visible" xmlns="http://www.w3.org/2000/svg"><path stroke-linecap="round" stroke-linejoin="round" d="M8.25 4.5l7.5 7.5-7.5 7.5"></path></svg><text x="335" y="971.56" fill="rgb(148, 163, 184)" font-family="-apple-system" font-size="12" font-weight="700" letter-spacing="0.6">Other</text><text x="388.11" y="971.3" fill="rgb(71, 85, 105)" font-family="ui-monospace" font-size="10" font-weight="400">1</text><text x="394.13" y="971.3" fill="rgb(71, 85, 105)" font-family="ui-monospace" font-size="10" font-weight="400">/</text><text x="400.14" y="971.3" fill="rgb(71, 85, 105)" font-family="ui-monospace" font-size="10" font-weight="400">2</text><rect x="289" y="986.5" width="1118" height="61.5" rx="0" fill="none" stroke="rgba(51, 65, 85, 0.3)" stroke-width="1"/><text x="309" y="1013.32" fill="rgb(241, 245, 249)" font-family="-apple-system" font-size="14" font-weight="500">archive-job</text><text x="309" y="1030.68" fill="rgb(100, 116, 139)" font-family="ui-monospace" font-size="11" font-weight="400">alpine:3.20</text><rect x="571.56" y="1014.25" width="6" height="6" rx="9999" fill="rgb(71, 85, 105)"/><text x="583.56" y="1020.81" fill="rgb(100, 116, 139)" font-family="-apple-system" font-size="12" font-weight="500">Stopped</text><text x="728.45" y="1022.05" fill="rgb(71, 85, 105)" font-family="-apple-system" font-size="10" font-weight="400">—</text><text x="1019.17" y="1022.05" fill="rgb(71, 85, 105)" font-family="-apple-system" font-size="10" font-weight="400">—</text><rect x="1256.8" y="1002" width="46.06" height="30.5" rx="8" fill="rgba(34, 197, 94, 0.1)" stroke="rgba(34, 197, 94, 0.2)" stroke-width="1"/><text x="1267.8" y="1019.68" fill="rgb(74, 222, 128)" font-family="-apple-system" font-size="11" font-weight="500">Start</text><rect x="1308.86" y="1003" width="44.14" height="28.5" rx="8" fill="rgb(51, 65, 85)"/><text x="1318.86" y="1019.68" fill="rgb(203, 213, 225)" font-family="-apple-system" font-size="11" font-weight="500">Logs</text><svg fill="none" viewBox="0 0 24 24" stroke-width="1.5" stroke="currentColor" x="1365" y="1009.25" width="16" height="16" color="rgb(100, 116, 139)" style="color:rgb(100, 116, 139);overflow:visible" xmlns="http://www.w3.org/2000/svg"><path stroke-linecap="round" stroke-linejoin="round" d="M6.75 12a.75.75 0 11-1.5 0 .75.75 0 011.5 0zM12.75 12a.75.75 0 11-1.5 0 .75.75 0 011.5 0zM18.75 12a.75.75 0 11-1.5 0 .75.75 0 011.5 0z"></path></svg></svg>