<svg xmlns="http://www.w3.org/2000/svg" width="1440" height="1024" viewBox="0 0 1440 1024"><title>Dashgo editable source-verified frame</title><rect x="0" y="0" width="1440" height="1024" rx="0" fill="rgb(15, 23, 42)"/><rect x="0" y="0" width="1440" height="1024" rx="0" fill="rgb(17, 24, 39)"/><rect x="0" y="0" width="256" height="1024" rx="0" fill="rgb(15, 23, 42)" stroke="rgb(51, 65, 85)" stroke-width="1"/><rect x="32" y="24" width="40" height="40" rx="12" fill="rgb(30, 41, 59)" stroke="rgb(51, 65, 85)" stroke-width="1"/><svg fill="none" viewBox="0 0 24 24" stroke="currentColor" x="40" y="32" width="24" height="24" color="rgb(96, 165, 250)" style="color:rgb(96, 165, 250);overflow:visible" xmlns="http://www.w3.org/2000/svg"><path stroke-linecap="round" stroke-linejoin="round" stroke-width="2" d="M19 11H5m14 0a2 2 0 012 2v6a2 2 0 01-2 2H5a2 2 0 01-2-2v-6a2 2 0 012-2m14 0V9a2 2 0 00-2-2M5 11V9a2 2 0 002-2m0 0V5a2 2 0 012-2h6a2 2 0 012 2v2M7 7h10"></path></svg><text x="84" y="49.6" fill="rgb(241, 245, 249)" font-family="-apple-system" font-size="20" font-weight="700" letter-spacing="-0.5">Dashgo</text><rect x="24" y="96" width="207" height="50" rx="8" fill="rgb(30, 41, 59)" stroke="rgba(51, 65, 85, 0.5)" stroke-width="1"/><svg fill="none" viewBox="0 0 24 24" stroke="currentColor" stroke-width="2" x="41" y="111" width="20" height="20" color="rgb(74, 222, 128)" style="color:rgb(74, 222, 128);overflow:visible" xmlns="http://www.w3.org/2000/svg"><path stroke-linecap="round" stroke-linejoin="round" d="M4 6a2 2 0 012-2h2a2 2 0 012 2v2a2 2 0 01-2 2H6a2 2 0 01-2-2V6zM14 6a2 2 0 012-2h2a2 2 0 012 2v2a2 2 0 01-2 2h-2a2 2 0 01-2-2V6zM4 16a2 2 0 012-2h2a2 2 0 012 2v2a2 2 0 01-2 2H6a2 2 0 01-2-2v-2zM14 16a2 2 0 012-2h2a2 2 0 012 2v2a2 2 0 01-2 2h-2a2 2 0 01-2-2v-2z"></path></svg><text x="73" y="125.08" fill="rgb(241, 245, 249)" font-family="-apple-system" font-size="16" font-weight="500">Dashboard</text><svg fill="none" viewBox="0 0 24 24" stroke="currentColor" stroke-width="2" x="40" y="164" width="20" height="20" color="rgb(148, 163, 184)" style="color:rgb(148, 163, 184);overflow:visible" xmlns="http://www.w3.org/2000/svg"><path stroke-linecap="round" stroke-linejoin="round" d="M21 12a9 9 0 01-9 9m9-9a9 9 0 00-9-9m9 9H3m9 9a9 9 0 01-9-9m9 9c1.657 0 3-4.03 3-9s-1.343-9-3-9m0 18c-1.657 0-3-4.03-3-9s1.343-9 3-9m-9 9a9 9 0 019-9"></path></svg><text x="72" y="178.08" fill="rgb(148, 163, 184)" font-family="-apple-system" font-size="16" font-weight="500">Tailnet</text><svg fill="none" viewBox="0 0 24 24" stroke="currentColor" stroke-width="2" x="40" y="216" width="20" height="20" color="rgb(148, 163, 184)" style="color:rgb(148, 163, 184);overflow:visible" xmlns="http://www.w3.org/2000/svg"><path stroke-linecap="round" stroke-linejoin="round" d="M10.325 4.317c.426-1.756 2.924-1.756 3.35 0a1.724 1.724 0 002.573 1.066c1.543-.94 3.31.826 2.37 2.37a1.724 1.724 0 001.065 2.572c1.756.426 1.756 2.924 0 3.35a1.724 1.724 0 00-1.066 2.573c.94 1.543-.826 3.31-2.37 2.37a1.724 1.724 0 00-2.572 1.065c-.426 1.756-2.924 1.756-3.35 0a1.724 1.724 0 00-2.573-1.066c-1.543.94-3.31-.826-2.37-2.37a1.724 1.724 0 00-1.065-2.572c-1.756-.426-1.756-2.924 0-3.35a1.724 1.724 0 001.066-2.573c-.94-1.543.826-3.31 2.37-2.37.996.608 2.296.07 2.572-1.065z"></path><path stroke-linecap="round" stroke-linejoin="round" d="M15 12a3 3 0 11-6 0 3 3 0 016 0z"></path></svg><text x="72" y="230.08" fill="rgb(148, 163, 184)" font-family="-apple-system" font-size="16" font-weight="500">Settings</text><rect x="24" y="881" width="207" height="119" rx="0" fill="none" stroke="rgb(30, 41, 59)" stroke-width="1"/><text x="32" y="917.56" fill="rgb(100, 116, 139)" font-family="-apple-system" font-size="12" font-weight="500" letter-spacing="0.6">Docker</text><text x="84.98" y="917.56" fill="rgb(100, 116, 139)" font-family="-apple-system" font-size="12" font-weight="500" letter-spacing="0.6">Socket</text><rect x="32" y="926" width="191" height="26" rx="4" fill="rgba(30, 41, 59, 0.5)" stroke="rgb(30, 41, 59)" stroke-width="1"/><text x="41" y="942.56" fill="rgb(148, 163, 184)" font-family="ui-monospace" font-size="12" font-weight="400">/var/run/docker.sock</text><svg fill="none" viewBox="0 0 24 24" stroke-width="1.5" stroke="currentColor" x="44" y="976" width="16" height="16" color="rgb(100, 116, 139)" style="color:rgb(100, 116, 139);overflow:visible" xmlns="http://www.w3.org/2000/svg"><path stroke-linecap="round" stroke-linejoin="round" d="M15.75 9V5.25A2.25 2.25 0 0013.5 3h-6a2.25 2.25 0 00-2.25 2.25v13.5A2.25 2.25 0 007.5 21h6a2.25 2.25 0 002.25-2.25V15m3 0l3-3m0 0l-3-3m3 3H9"></path></svg><text x="68" y="987.56" fill="rgb(100, 116, 139)" font-family="-apple-system" font-size="12" font-weight="400">Sign</text><text x="94.38" y="987.56" fill="rgb(100, 116, 139)" font-family="-apple-system" font-size="12" font-weight="400">Out</text><rect x="256" y="0" width="1184" height="1024" rx="0" fill="rgb(15, 23, 42)"/><rect x="288" y="32" width="105.64" height="30" rx="8" fill="rgba(34, 197, 94, 0.1)" stroke="rgba(34, 197, 94, 0.2)" stroke-width="1"/><rect x="301" y="43" width="8" height="8" rx="9999" fill="rgb(74, 222, 128)"/><text x="317" y="50.56" fill="rgb(74, 222, 128)" font-family="-apple-system" font-size="12" font-weight="600">orange-pi-5</text><rect x="405.64" y="32" width="73.2" height="30" rx="8" fill="rgb(30, 41, 59)" stroke="rgba(51, 65, 85, 0.5)" stroke-width="1"/><text x="418.64" y="50.3" fill="rgb(100, 116, 139)" font-family="-apple-system" font-size="10" font-weight="600">CPU</text><text x="444.23" y="50.56" fill="rgb(203, 213, 225)" font-family="ui-monospace" font-size="12" font-weight="500">18%</text><rect x="490.84" y="32" width="147.5" height="30" rx="8" fill="rgb(30, 41, 59)" stroke="rgba(51, 65, 85, 0.5)" stroke-width="1"/><text x="503.84" y="50.3" fill="rgb(100, 116, 139)" font-family="-apple-system" font-size="10" font-weight="600">RAM</text><text x="531.72" y="50.56" fill="rgb(203, 213, 225)" font-family="ui-monospace" font-size="12" font-weight="500">3.2</text><text x="560.52" y="50.56" fill="rgb(203, 213, 225)" font-family="ui-monospace" font-size="12" font-weight="500">GB</text><text x="582.13" y="50.56" fill="rgb(203, 213, 225)" font-family="ui-monospace" font-size="12" font-weight="500">/</text><text x="596.52" y="50.56" fill="rgb(203, 213, 225)" font-family="ui-monospace" font-size="12" font-weight="500">8</text><text x="610.92" y="50.56" fill="rgb(203, 213, 225)" font-family="ui-monospace" font-size="12" font-weight="500">GB</text><rect x="650.34" y="32" width="75.55" height="30" rx="8" fill="rgb(30, 41, 59)" stroke="rgba(51, 65, 85, 0.5)" stroke-width="1"/><text x="663.34" y="50.3" fill="rgb(100, 116, 139)" font-family="-apple-system" font-size="10" font-weight="600">Disk</text><text x="691.28" y="50.56" fill="rgb(203, 213, 225)" font-family="ui-monospace" font-size="12" font-weight="500">48%</text><rect x="737.89" y="32" width="74.81" height="30" rx="8" fill="rgb(30, 41, 59)" stroke="rgba(51, 65, 85, 0.5)" stroke-width="1"/><svg fill="none" viewBox="0 0 24 24" stroke-width="1.5" stroke="currentColor" style="color:rgb(34, 197, 94);overflow:visible" x="750.89" y="40" width="14" height="14" color="rgb(34, 197, 94)" xmlns="http://www.w3.org/2000/svg"><path stroke-linecap="round" stroke-linejoin="round" d="M15.362 5.214A8.252 8.252 0 0112 21 8.25 8.25 0 016.038 7.048 8.287 8.287 0 009 9.6a8.983 8.983 0 013.361-6.867 8.21 8.21 0 003 2.48z"></path></svg><text x="770.89" y="50.56" fill="rgb(34, 197, 94)" font-family="ui-monospace" font-size="12" font-weight="400">54</text><text x="785.3" y="50.56" fill="rgb(34, 197, 94)" font-family="ui-monospace" font-size="12" font-weight="400">°C</text><rect x="824.7" y="32" width="136.47" height="30" rx="8" fill="rgb(30, 41, 59)" stroke="rgba(51, 65, 85, 0.5)" stroke-width="1"/><text x="837.7" y="50.3" fill="rgb(100, 116, 139)" font-family="-apple-system" font-size="10" font-weight="600">Tailnet</text><text x="883.36" y="50.56" fill="rgb(96, 165, 250)" font-family="ui-monospace" font-size="12" font-weight="500">Connected</text><rect x="973.17" y="32" width="79.3" height="30" rx="8" fill="rgba(6, 182, 212, 0.1)" stroke="rgba(6, 182, 212, 0.2)" stroke-width="1"/><text x="986.17" y="50.56" fill="rgb(34, 211, 238)" font-family="-apple-system" font-size="12" font-weight="600">2</text><text x="996.05" y="50.56" fill="rgb(34, 211, 238)" font-family="-apple-system" font-size="12" font-weight="600">update</text><text x="1033.28" y="50.56" fill="rgb(34, 211, 238)" font-family="-apple-system" font-size="12" font-weight="600">s</text><rect x="1318.39" y="32" width="89.61" height="30" rx="8" fill="rgb(30, 41, 59)" stroke="rgba(51, 65, 85, 0.5)" stroke-width="1"/><svg fill="none" viewBox="0 0 24 24" stroke="currentColor" stroke-width="2" x="1331.39" y="40" width="14" height="14" color="rgb(226, 232, 240)" style="color:rgb(226, 232, 240);overflow:visible" xmlns="http://www.w3.org/2000/svg"><path stroke-linecap="round" stroke-linejoin="round" d="M4 4v5h.582m15.356 2A8.001 8.001 0 004.582 9m0 0H9m11 11v-5h-.581m0 0a8.003 8.003 0 01-15.357-2m15.357 2H15"></path></svg><text x="1353.39" y="50.56" fill="rgb(226, 232, 240)" font-family="-apple-system" font-size="12" font-weight="500">Refresh</text><rect x="288" y="86" width="1120" height="138" rx="12" fill="rgba(245, 158, 11, 0.05)" stroke="rgba(245, 158, 11, 0.15)" stroke-width="1"/><text x="305" y="117.32" fill="rgb(251, 191, 36)" font-family="-apple-system" font-size="14" font-weight="600">4</text><text x="316.53" y="117.32" fill="rgb(251, 191, 36)" font-family="-apple-system" font-size="14" font-weight="600">item</text><text x="344.67" y="117.32" fill="rgb(251, 191, 36)" font-family="-apple-system" font-size="14" font-weight="600">s</text><text x="355.38" y="117.32" fill="rgb(251, 191, 36)" font-family="-apple-system" font-size="14" font-weight="600">need</text><text x="389.73" y="117.32" fill="rgb(251, 191, 36)" font-family="-apple-system" font-size="14" font-weight="600">attention</text><text x="305" y="142.56" fill="rgb(203, 213, 225)" font-family="-apple-system" font-size="12" font-weight="400">🔴</text><text x="327.98" y="142.56" fill="rgb(203, 213, 225)" font-family="-apple-system" font-size="12" font-weight="400">Paperless:</text><text x="386.73" y="142.56" fill="rgb(203, 213, 225)" font-family="-apple-system" font-size="12" font-weight="400">unhealthy</text><text x="305" y="162.56" fill="rgb(203, 213, 225)" font-family="-apple-system" font-size="12" font-weight="400">⚪</text><text x="327.98" y="162.56" fill="rgb(203, 213, 225)" font-family="-apple-system" font-size="12" font-weight="400">archive-job:</text><text x="392.02" y="162.56" fill="rgb(203, 213, 225)" font-family="-apple-system" font-size="12" font-weight="400">exited</text><text x="305" y="182.56" fill="rgb(203, 213, 225)" font-family="-apple-system" font-size="12" font-weight="400">🔵</text><text x="327.98" y="182.56" fill="rgb(203, 213, 225)" font-family="-apple-system" font-size="12" font-weight="400">Home</text><text x="363.25" y="182.56" fill="rgb(203, 213, 225)" font-family="-apple-system" font-size="12" font-weight="400">Assistant:</text><text x="419.45" y="182.56" fill="rgb(203, 213, 225)" font-family="-apple-system" font-size="12" font-weight="400">new</text><text x="444.44" y="182.56" fill="rgb(203, 213, 225)" font-family="-apple-system" font-size="12" font-weight="400">image</text><text x="480.48" y="182.56" fill="rgb(203, 213, 225)" font-family="-apple-system" font-size="12" font-weight="400">available</text><text x="305" y="202.56" fill="rgb(203, 213, 225)" font-family="-apple-system" font-size="12" font-weight="400">🔵</text><text x="327.98" y="202.56" fill="rgb(203, 213, 225)" font-family="-apple-system" font-size="12" font-weight="400">Dashgo:</text><text x="374.64" y="202.56" fill="rgb(203, 213, 225)" font-family="-apple-system" font-size="12" font-weight="400">new</text><text x="399.63" y="202.56" fill="rgb(203, 213, 225)" font-family="-apple-system" font-size="12" font-weight="400">image</text><text x="435.67" y="202.56" fill="rgb(203, 213, 225)" font-family="-apple-system" font-size="12" font-weight="400">available</text><rect x="288" y="248" width="268" height="73" rx="12" fill="rgba(30, 41, 59, 0.6)" stroke="rgba(51, 65, 85, 0.4)" stroke-width="1"/><text x="309" y="275.8" fill="rgb(100, 116, 139)" font-family="-apple-system" font-size="10" font-weight="600" letter-spacing="0.5">Containers</text><text x="309" y="298.32" fill="rgb(96, 165, 250)" font-family="-apple-system" font-size="14" font-weight="700">7</text><text x="321.05" y="298.32" fill="rgb(100, 116, 139)" font-family="-apple-system" font-size="14" font-weight="400">running</text><rect x="572" y="248" width="268" height="73" rx="12" fill="rgba(30, 41, 59, 0.6)" stroke="rgba(51, 65, 85, 0.4)" stroke-width="1"/><text x="593" y="275.8" fill="rgb(100, 116, 139)" font-family="-apple-system" font-size="10" font-weight="600" letter-spacing="0.5">Health</text><text x="593" y="298.32" fill="rgb(248, 113, 113)" font-family="-apple-system" font-size="14" font-weight="700">5</text><text x="604.52" y="298.32" fill="rgb(248, 113, 113)" font-family="-apple-system" font-size="14" font-weight="700">healthy</text><text x="654.23" y="298.32" fill="rgb(248, 113, 113)" font-family="-apple-system" font-size="14" font-weight="700">·</text><text x="661.94" y="298.32" fill="rgb(248, 113, 113)" font-family="-apple-system" font-size="14" font-weight="700">1</text><text x="673.45" y="298.32" fill="rgb(248, 113, 113)" font-family="-apple-system" font-size="14" font-weight="700">unhealthy</text><rect x="856" y="248" width="268" height="73" rx="12" fill="rgba(30, 41, 59, 0.6)" stroke="rgba(51, 65, 85, 0.4)" stroke-width="1"/><text x="877" y="275.8" fill="rgb(100, 116, 139)" font-family="-apple-system" font-size="10" font-weight="600" letter-spacing="0.5">Published</text><text x="877" y="298.32" fill="rgb(192, 132, 252)" font-family="-apple-system" font-size="14" font-weight="700">6</text><text x="889.05" y="298.32" fill="rgb(100, 116, 139)" font-family="-apple-system" font-size="14" font-weight="400">services</text><rect x="1140" y="248" width="268" height="73" rx="12" fill="rgba(30, 41, 59, 0.6)" stroke="rgba(51, 65, 85, 0.4)" stroke-width="1"/><text x="1161" y="275.8" fill="rgb(100, 116, 139)" font-family="-apple-system" font-size="10" font-weight="600" letter-spacing="0.5">Updates</text><text x="1161" y="298.32" fill="rgb(34, 211, 238)" font-family="-apple-system" font-size="14" font-weight="700">2</text><text x="1172.52" y="298.32" fill="rgb(34, 211, 238)" font-family="-apple-system" font-size="14" font-weight="700">available</text><rect x="288" y="345" width="371.34" height="38" rx="8" fill="rgb(30, 41, 59)" stroke="rgba(51, 65, 85, 0.5)" stroke-width="1"/><rect x="291" y="348" width="78.53" height="32" rx="6" fill="rgba(51, 65, 85, 0.992)"/><text x="307" y="367.56" fill="rgb(240, 244, 249)" font-family="-apple-system" font-size="12" font-weight="600">Services</text><text x="385.53" y="367.56" fill="rgb(148, 163, 184)" font-family="-apple-system" font-size="12" font-weight="600">Containers</text><text x="476.34" y="367.56" fill="rgb(148, 163, 184)" font-family="-apple-system" font-size="12" font-weight="600">Needs</text><text x="513.72" y="367.56" fill="rgb(148, 163, 184)" font-family="-apple-system" font-size="12" font-weight="600">Attention</text><text x="595.77" y="367.56" fill="rgb(148, 163, 184)" font-family="-apple-system" font-size="12" font-weight="600">Updates</text><rect x="1152" y="345" width="256" height="38" rx="8" fill="rgb(30, 41, 59)" stroke="rgba(96, 111, 134, 0.918)" stroke-width="1"/><text x="1168" y="369.32" fill="rgb(241, 245, 249)" font-family="-apple-system" font-size="14" font-weight="400">does-not-exist</text><rect x="288" y="403" width="1120" height="157" rx="12" fill="rgba(30, 41, 59, 0.6)" stroke="rgba(51, 65, 85, 0.4)" stroke-width="1"/><rect x="289" y="404" width="1118" height="39" rx="0" fill="rgba(15, 23, 42, 0.3)"/><text x="309" y="426.8" fill="rgb(100, 116, 139)" font-family="-apple-system" font-size="10" font-weight="600" letter-spacing="0.5">Service</text><text x="526.64" y="426.8" fill="rgb(100, 116, 139)" font-family="-apple-system" font-size="10" font-weight="600" letter-spacing="0.5">State</text><text x="715.55" y="426.8" fill="rgb(100, 116, 139)" font-family="-apple-system" font-size="10" font-weight="600" letter-spacing="0.5">Endpoints</text><text x="974.92" y="426.8" fill="rgb(100, 116, 139)" font-family="-apple-system" font-size="10" font-weight="600" letter-spacing="0.5">Updates</text><text x="1341.23" y="426.8" fill="rgb(100, 116, 139)" font-family="-apple-system" font-size="10" font-weight="600" letter-spacing="0.5">Actions</text><text x="748.61" y="505.32" fill="rgb(100, 116, 139)" font-family="-apple-system" font-size="14" font-weight="400">No</text><text x="770.05" y="505.32" fill="rgb(100, 116, 139)" font-family="-apple-system" font-size="14" font-weight="400">containers</text><text x="839.28" y="505.32" fill="rgb(100, 116, 139)" font-family="-apple-system" font-size="14" font-weight="400">match</text><text x="882.27" y="505.32" fill="rgb(100, 116, 139)" font-family="-apple-system" font-size="14" font-weight="400">the</text><text x="905.45" y="505.32" fill="rgb(100, 116, 139)" font-family="-apple-system" font-size="14" font-weight="400">search</text></svg>