<svg xmlns="http://www.w3.org/2000/svg" width="1440" height="1024" viewBox="0 0 1440 1024"><title>Dashgo editable source-verified frame</title><rect x="0" y="0" width="1440" height="1024" rx="0" fill="rgb(15, 23, 42)"/><rect x="0" y="0" width="1440" height="1024" rx="0" fill="rgb(17, 24, 39)"/><rect x="0" y="0" width="256" height="1024" rx="0" fill="rgb(15, 23, 42)" stroke="rgb(51, 65, 85)" stroke-width="1"/><rect x="32" y="24" width="40" height="40" rx="12" fill="rgb(30, 41, 59)" stroke="rgb(51, 65, 85)" stroke-width="1"/><svg fill="none" viewBox="0 0 24 24" stroke="currentColor" x="40" y="32" width="24" height="24" color="rgb(96, 165, 250)" style="color:rgb(96, 165, 250);overflow:visible" xmlns="http://www.w3.org/2000/svg"><path stroke-linecap="round" stroke-linejoin="round" stroke-width="2" d="M19 11H5m14 0a2 2 0 012 2v6a2 2 0 01-2 2H5a2 2 0 01-2-2v-6a2 2 0 012-2m14 0V9a2 2 0 00-2-2M5 11V9a2 2 0 002-2m0 0V5a2 2 0 012-2h6a2 2 0 012 2v2M7 7h10"></path></svg><text x="84" y="49.6" fill="rgb(241, 245, 249)" font-family="-apple-system" font-size="20" font-weight="700" letter-spacing="-0.5">Dashgo</text><svg fill="none" viewBox="0 0 24 24" stroke="currentColor" stroke-width="2" x="40" y="110" width="20" height="20" color="rgb(148, 163, 184)" style="color:rgb(148, 163, 184);overflow:visible" xmlns="http://www.w3.org/2000/svg"><path stroke-linecap="round" stroke-linejoin="round" d="M4 6a2 2 0 012-2h2a2 2 0 012 2v2a2 2 0 01-2 2H6a2 2 0 01-2-2V6zM14 6a2 2 0 012-2h2a2 2 0 012 2v2a2 2 0 01-2 2h-2a2 2 0 01-2-2V6zM4 16a2 2 0 012-2h2a2 2 0 012 2v2a2 2 0 01-2 2H6a2 2 0 01-2-2v-2zM14 16a2 2 0 012-2h2a2 2 0 012 2v2a2 2 0 01-2 2h-2a2 2 0 01-2-2v-2z"></path></svg><text x="72" y="124.08" fill="rgb(148, 163, 184)" font-family="-apple-system" font-size="16" font-weight="500">Dashboard</text><svg fill="none" viewBox="0 0 24 24" stroke="currentColor" stroke-width="2" x="40" y="162" width="20" height="20" color="rgb(148, 163, 184)" style="color:rgb(148, 163, 184);overflow:visible" xmlns="http://www.w3.org/2000/svg"><path stroke-linecap="round" stroke-linejoin="round" d="M21 12a9 9 0 01-9 9m9-9a9 9 0 00-9-9m9 9H3m9 9a9 9 0 01-9-9m9 9c1.657 0 3-4.03 3-9s-1.343-9-3-9m0 18c-1.657 0-3-4.03-3-9s1.343-9 3-9m-9 9a9 9 0 019-9"></path></svg><text x="72" y="176.08" fill="rgb(148, 163, 184)" font-family="-apple-system" font-size="16" font-weight="500">Tailnet</text><rect x="24" y="200" width="207" height="50" rx="8" fill="rgb(30, 41, 59)" stroke="rgba(51, 65, 85, 0.5)" stroke-width="1"/><svg fill="none" viewBox="0 0 24 24" stroke="currentColor" stroke-width="2" x="41" y="215" width="20" height="20" color="rgb(74, 222, 128)" style="color:rgb(74, 222, 128);overflow:visible" xmlns="http://www.w3.org/2000/svg"><path stroke-linecap="round" stroke-linejoin="round" d="M10.325 4.317c.426-1.756 2.924-1.756 3.35 0a1.724 1.724 0 002.573 1.066c1.543-.94 3.31.826 2.37 2.37a1.724 1.724 0 001.065 2.572c1.756.426 1.756 2.924 0 3.35a1.724 1.724 0 00-1.066 2.573c.94 1.543-.826 3.31-2.37 2.37a1.724 1.724 0 00-2.572 1.065c-.426 1.756-2.924 1.756-3.35 0a1.724 1.724 0 00-2.573-1.066c-1.543.94-3.31-.826-2.37-2.37a1.724 1.724 0 00-1.065-2.572c-1.756-.426-1.756-2.924 0-3.35a1.724 1.724 0 001.066-2.573c-.94-1.543.826-3.31 2.37-2.37.996.608 2.296.07 2.572-1.065z"></path><path stroke-linecap="round" stroke-linejoin="round" d="M15 12a3 3 0 11-6 0 3 3 0 016 0z"></path></svg><text x="73" y="229.08" fill="rgb(241, 245, 249)" font-family="-apple-system" font-size="16" font-weight="500">Settings</text><rect x="24" y="881" width="207" height="119" rx="0" fill="none" stroke="rgb(30, 41, 59)" stroke-width="1"/><text x="32" y="917.56" fill="rgb(100, 116, 139)" font-family="-apple-system" font-size="12" font-weight="500" letter-spacing="0.6">Docker</text><text x="84.98" y="917.56" fill="rgb(100, 116, 139)" font-family="-apple-system" font-size="12" font-weight="500" letter-spacing="0.6">Socket</text><rect x="32" y="926" width="191" height="26" rx="4" fill="rgba(30, 41, 59, 0.5)" stroke="rgb(30, 41, 59)" stroke-width="1"/><text x="41" y="942.56" fill="rgb(148, 163, 184)" font-family="ui-monospace" font-size="12" font-weight="400">/var/run/docker.sock</text><svg fill="none" viewBox="0 0 24 24" stroke-width="1.5" stroke="currentColor" x="44" y="976" width="16" height="16" color="rgb(100, 116, 139)" style="color:rgb(100, 116, 139);overflow:visible" xmlns="http://www.w3.org/2000/svg"><path stroke-linecap="round" stroke-linejoin="round" d="M15.75 9V5.25A2.25 2.25 0 0013.5 3h-6a2.25 2.25 0 00-2.25 2.25v13.5A2.25 2.25 0 007.5 21h6a2.25 2.25 0 002.25-2.25V15m3 0l3-3m0 0l-3-3m3 3H9"></path></svg><text x="68" y="987.56" fill="rgb(100, 116, 139)" font-family="-apple-system" font-size="12" font-weight="400">Sign</text><text x="94.38" y="987.56" fill="rgb(100, 116, 139)" font-family="-apple-system" font-size="12" font-weight="400">Out</text><rect x="256" y="0" width="1184" height="1024" rx="0" fill="rgb(15, 23, 42)"/><rect x="256" y="0" width="224" height="1024" rx="0" fill="none" stroke="rgb(30, 41, 59)" stroke-width="1"/><text x="284" y="35.6" fill="rgb(241, 245, 249)" font-family="-apple-system" font-size="20" font-weight="700">Settings</text><svg fill="none" viewBox="0 0 24 24" stroke-width="1.5" stroke="currentColor" x="284" y="80" width="16" height="16" color="rgb(148, 163, 184)" style="color:rgb(148, 163, 184);overflow:visible" xmlns="http://www.w3.org/2000/svg"><path stroke-linecap="round" stroke-linejoin="round" d="M9.594 3.94c.09-.542.56-.94 1.11-.94h2.593c.55 0 1.02.398 1.11.94l.213 1.281c.063.374.313.686.645.87.074.04.147.083.22.127.324.196.72.257 1.075.124l1.217-.456a1.125 1.125 0 011.37.49l1.296 2.247a1.125 1.125 0 01-.26 1.431l-1.003.827c-.293.24-.438.613-.431.992a6.759 6.759 0 010 .255c-.007.378.138.75.43.99l1.005.828c.424.35.534.954.26 1.43l-1.298 2.247a1.125 1.125 0 01-1.369.491l-1.217-.456c-.355-.133-.75-.072-1.076.124a6.57 6.57 0 01-.22.128c-.331.183-.581.495-.644.869l-.213 1.28c-.09.543-.56.941-1.11.941h-2.594c-.55 0-1.02-.398-1.11-.94l-.213-1.281c-.062-.374-.312-.686-.644-.87a6.52 6.52 0 01-.22-.127c-.325-.196-.72-.257-1.076-.124l-1.217.456a1.125 1.125 0 01-1.369-.49l-1.297-2.247a1.125 1.125 0 01.26-1.431l1.004-.827c.292-.24.437-.613.43-.992a6.932 6.932 0 010-.255c.007-.378-.138-.75-.43-.99l-1.004-.828a1.125 1.125 0 01-.26-1.43l1.297-2.247a1.125 1.125 0 011.37-.491l1.216.456c.356.133.751.072 1.076-.124.072-.044.146-.087.22-.128.332-.183.582-.495.644-.869l.214-1.281z"></path><circle cx="12" cy="12" r="3"></circle></svg><text x="310" y="92.32" fill="rgb(148, 163, 184)" font-family="-apple-system" font-size="14" font-weight="500">General</text><svg fill="none" viewBox="0 0 24 24" stroke-width="1.5" stroke="currentColor" x="284" y="122" width="16" height="16" color="rgb(148, 163, 184)" style="color:rgb(148, 163, 184);overflow:visible" xmlns="http://www.w3.org/2000/svg"><path stroke-linecap="round" stroke-linejoin="round" d="M12 21a9.004 9.004 0 008.716-6.747M12 21a9.004 9.004 0 01-8.716-6.747M12 21c2.485 0 4.5-4.03 4.5-9S14.485 3 12 3m0 18c-2.485 0-4.5-4.03-4.5-9S9.515 3 12 3m0 0a8.997 8.997 0 017.843 4.582M12 3a8.997 8.997 0 00-7.843 4.582m15.686 0A11.953 11.953 0 0112 10.5c-2.998 0-5.74-1.1-7.843-2.918m15.686 0A8.959 8.959 0 0121 12c0 .778-.099 1.533-.284 2.253m0 0A17.919 17.919 0 0112 16.5c-3.162 0-6.133-.815-8.716-2.247m0 0A9.015 9.015 0 013 12c0-1.605.42-3.113 1.157-4.418"></path></svg><text x="310" y="134.32" fill="rgb(148, 163, 184)" font-family="-apple-system" font-size="14" font-weight="500">Network</text><text x="366.2" y="134.32" fill="rgb(148, 163, 184)" font-family="-apple-system" font-size="14" font-weight="500">&amp;</text><text x="378.64" y="134.32" fill="rgb(148, 163, 184)" font-family="-apple-system" font-size="14" font-weight="500">Links</text><rect x="272" y="152" width="191" height="42" rx="8" fill="rgb(30, 41, 59)" stroke="rgba(51, 65, 85, 0.5)" stroke-width="1"/><svg fill="none" viewBox="0 0 24 24" stroke-width="1.5" stroke="currentColor" x="285" y="165" width="16" height="16" color="rgb(96, 165, 250)" style="color:rgb(96, 165, 250);overflow:visible" xmlns="http://www.w3.org/2000/svg"><path stroke-linecap="round" stroke-linejoin="round" d="M13.19 8.688a4.5 4.5 0 011.242 7.244l-4.5 4.5a4.5 4.5 0 01-6.364-6.364l1.757-1.757m13.35-.622l1.757-1.757a4.5 4.5 0 00-6.364-6.364l-4.5 4.5a4.5 4.5 0 001.242 7.244"></path></svg><text x="311" y="177.32" fill="rgb(241, 245, 249)" font-family="-apple-system" font-size="14" font-weight="500">Tailscale</text><svg fill="none" viewBox="0 0 24 24" stroke-width="1.5" stroke="currentColor" x="284" y="208" width="16" height="16" color="rgb(148, 163, 184)" style="color:rgb(148, 163, 184);overflow:visible" xmlns="http://www.w3.org/2000/svg"><path stroke-linecap="round" stroke-linejoin="round" d="M14.857 17.082a23.848 23.848 0 005.454-1.31A8.967 8.967 0 0118 9.75v-.7V9A6 6 0 006 9v.75a8.967 8.967 0 01-2.312 6.022c1.733.64 3.56 1.085 5.455 1.31m5.714 0a24.255 24.255 0 01-5.714 0m5.714 0a3 3 0 11-5.714 0"></path></svg><text x="310" y="220.32" fill="rgb(148, 163, 184)" font-family="-apple-system" font-size="14" font-weight="500">Notifications</text><svg fill="none" viewBox="0 0 24 24" stroke-width="1.5" stroke="currentColor" x="284" y="250" width="16" height="16" color="rgb(148, 163, 184)" style="color:rgb(148, 163, 184);overflow:visible" xmlns="http://www.w3.org/2000/svg"><path stroke-linecap="round" stroke-linejoin="round" d="M9 12.75L11.25 15 15 9.75m-3-7.036A11.959 11.959 0 013.598 6 11.99 11.99 0 003 9.749c0 5.592 3.824 10.29 9 11.623 5.176-1.332 9-6.03 9-11.622 0-1.31-.21-2.571-.598-3.751h-.152c-3.196 0-6.1-1.248-8.25-3.285z"></path></svg><text x="310" y="262.32" fill="rgb(148, 163, 184)" font-family="-apple-system" font-size="14" font-weight="500">Security</text><svg fill="none" viewBox="0 0 24 24" stroke-width="1.5" stroke="currentColor" x="284" y="292" width="16" height="16" color="rgb(148, 163, 184)" style="color:rgb(148, 163, 184);overflow:visible" xmlns="http://www.w3.org/2000/svg"><path stroke-linecap="round" stroke-linejoin="round" d="M6.75 7.5l3 2.25-3 2.25m4.5 0h3m-9 8.25h13.5A2.25 2.25 0 0021 18V6a2.25 2.25 0 00-2.25-2.25H5.25A2.25 2.25 0 003 6v12a2.25 2.25 0 002.25 2.25z"></path></svg><text x="310" y="304.32" fill="rgb(148, 163, 184)" font-family="-apple-system" font-size="14" font-weight="500">Advanced</text><rect x="512" y="-266" width="672" height="322" rx="12" fill="rgba(30, 41, 59, 0.6)" stroke="rgba(51, 65, 85, 0.4)" stroke-width="1"/><rect x="537" y="-11" width="622" height="42" rx="8" fill="rgba(15, 23, 42, 0.5)" stroke="rgb(51, 65, 85)" stroke-width="1"/><text x="553" y="15.32" fill="rgb(241, 245, 249)" font-family="ui-monospace" font-size="14" font-weight="400">example.com</text><rect x="512" y="80" width="672" height="404" rx="12" fill="rgba(30, 41, 59, 0.6)" stroke="rgba(51, 65, 85, 0.4)" stroke-width="1"/><text x="537" y="123.84" fill="rgb(241, 245, 249)" font-family="-apple-system" font-size="18" font-weight="700">Tailscale</text><text x="537" y="151.32" fill="rgb(148, 163, 184)" font-family="-apple-system" font-size="14" font-weight="400">VPN</text><text x="568.2" y="151.32" fill="rgb(148, 163, 184)" font-family="-apple-system" font-size="14" font-weight="400">integration</text><text x="638.45" y="151.32" fill="rgb(148, 163, 184)" font-family="-apple-system" font-size="14" font-weight="400">configuration</text><rect x="537" y="177" width="622" height="62" rx="8" fill="rgba(15, 23, 42, 0.4)" stroke="rgba(51, 65, 85, 0.5)" stroke-width="1"/><rect x="554" y="203" width="10" height="10" rx="9999" fill="rgb(74, 222, 128)"/><text x="576" y="204.32" fill="rgb(226, 232, 240)" font-family="-apple-system" font-size="14" font-weight="500">Integration</text><text x="647.63" y="204.32" fill="rgb(226, 232, 240)" font-family="-apple-system" font-size="14" font-weight="500">Active</text><text x="576" y="221.56" fill="rgb(100, 116, 139)" font-family="-apple-system" font-size="12" font-weight="400">Tailscale</text><text x="626.11" y="221.56" fill="rgb(100, 116, 139)" font-family="-apple-system" font-size="12" font-weight="400">daemon</text><text x="672.75" y="221.56" fill="rgb(100, 116, 139)" font-family="-apple-system" font-size="12" font-weight="400">detected</text><text x="722.48" y="221.56" fill="rgb(100, 116, 139)" font-family="-apple-system" font-size="12" font-weight="400">on</text><text x="738.92" y="221.56" fill="rgb(100, 116, 139)" font-family="-apple-system" font-size="12" font-weight="400">host</text><rect x="1063.17" y="197.5" width="78.83" height="21" rx="4" fill="rgba(34, 197, 94, 0.1)" stroke="rgba(34, 197, 94, 0.2)" stroke-width="1"/><text x="1072.17" y="211.3" fill="rgb(74, 222, 128)" font-family="-apple-system" font-size="10" font-weight="700">Configured</text><text x="537" y="273.32" fill="rgb(203, 213, 225)" font-family="-apple-system" font-size="14" font-weight="500">Tailscale</text><text x="595.83" y="273.32" fill="rgb(203, 213, 225)" font-family="-apple-system" font-size="14" font-weight="500">IP</text><text x="537" y="296.56" fill="rgb(100, 116, 139)" font-family="-apple-system" font-size="12" font-weight="400">Auto-detected</text><text x="615.08" y="296.56" fill="rgb(100, 116, 139)" font-family="-apple-system" font-size="12" font-weight="400">if</text><text x="625.14" y="296.56" fill="rgb(100, 116, 139)" font-family="-apple-system" font-size="12" font-weight="400">empty.</text><text x="663.89" y="296.56" fill="rgb(100, 116, 139)" font-family="-apple-system" font-size="12" font-weight="400">Used</text><text x="693.97" y="296.56" fill="rgb(100, 116, 139)" font-family="-apple-system" font-size="12" font-weight="400">for</text><text x="711.8" y="296.56" fill="rgb(100, 116, 139)" font-family="-apple-system" font-size="12" font-weight="400">Tailnet</text><text x="750.55" y="296.56" fill="rgb(100, 116, 139)" font-family="-apple-system" font-size="12" font-weight="400">access</text><text x="791.36" y="296.56" fill="rgb(100, 116, 139)" font-family="-apple-system" font-size="12" font-weight="400">links.</text><rect x="537" y="307" width="622" height="42" rx="8" fill="rgba(15, 23, 42, 0.5)" stroke="rgb(51, 65, 85)" stroke-width="1"/><text x="553" y="333.32" fill="rgb(241, 245, 249)" font-family="ui-monospace" font-size="14" font-weight="400">100.76.12.44</text><text x="537" y="383.32" fill="rgb(203, 213, 225)" font-family="-apple-system" font-size="14" font-weight="500">MagicDNS</text><text x="606.72" y="383.32" fill="rgb(203, 213, 225)" font-family="-apple-system" font-size="14" font-weight="500">Hostname</text><text x="537" y="406.56" fill="rgb(100, 116, 139)" font-family="-apple-system" font-size="12" font-weight="400">The</text><text x="560.11" y="406.56" fill="rgb(100, 116, 139)" font-family="-apple-system" font-size="12" font-weight="400">MagicDNS</text><text x="619.58" y="406.56" fill="rgb(100, 116, 139)" font-family="-apple-system" font-size="12" font-weight="400">name</text><text x="652.59" y="406.56" fill="rgb(100, 116, 139)" font-family="-apple-system" font-size="12" font-weight="400">for</text><text x="670.66" y="406.56" fill="rgb(100, 116, 139)" font-family="-apple-system" font-size="12" font-weight="400">this</text><text x="693.28" y="406.56" fill="rgb(100, 116, 139)" font-family="-apple-system" font-size="12" font-weight="400">device</text><rect x="537" y="417" width="622" height="42" rx="8" fill="rgba(15, 23, 42, 0.5)" stroke="rgb(51, 65, 85)" stroke-width="1"/><text x="553" y="443.32" fill="rgb(241, 245, 249)" font-family="ui-monospace" font-size="14" font-weight="400">orange-pi.tailnet.ts.net</text><rect x="512" y="508" width="672" height="457" rx="12" fill="rgba(30, 41, 59, 0.6)" stroke="rgba(51, 65, 85, 0.4)" stroke-width="1"/><text x="537" y="551.84" fill="rgb(241, 245, 249)" font-family="-apple-system" font-size="18" font-weight="700">Notifications</text><text x="537" y="579.32" fill="rgb(148, 163, 184)" font-family="-apple-system" font-size="14" font-weight="400">Get</text><text x="562" y="579.32" fill="rgb(148, 163, 184)" font-family="-apple-system" font-size="14" font-weight="400">alerted</text><text x="608.91" y="579.32" fill="rgb(148, 163, 184)" font-family="-apple-system" font-size="14" font-weight="400">when</text><text x="645.77" y="579.32" fill="rgb(148, 163, 184)" font-family="-apple-system" font-size="14" font-weight="400">something</text><text x="715.44" y="579.32" fill="rgb(148, 163, 184)" font-family="-apple-system" font-size="14" font-weight="400">goes</text><text x="749.41" y="579.32" fill="rgb(148, 163, 184)" font-family="-apple-system" font-size="14" font-weight="400">wrong</text><text x="537" y="619.32" fill="rgb(203, 213, 225)" font-family="-apple-system" font-size="14" font-weight="500">Webhook</text><text x="599.02" y="619.32" fill="rgb(203, 213, 225)" font-family="-apple-system" font-size="14" font-weight="500">URL</text><text x="537" y="642.56" fill="rgb(100, 116, 139)" font-family="-apple-system" font-size="12" font-weight="400">Receives</text><text x="587.58" y="642.56" fill="rgb(100, 116, 139)" font-family="-apple-system" font-size="12" font-weight="400">POST</text><text x="620.44" y="642.56" fill="rgb(100, 116, 139)" font-family="-apple-system" font-size="12" font-weight="400">when</text><text x="652.03" y="642.56" fill="rgb(100, 116, 139)" font-family="-apple-system" font-size="12" font-weight="400">containers</text><text x="711.38" y="642.56" fill="rgb(100, 116, 139)" font-family="-apple-system" font-size="12" font-weight="400">stop</text><text x="737.94" y="642.56" fill="rgb(100, 116, 139)" font-family="-apple-system" font-size="12" font-weight="400">or</text><text x="751.83" y="642.56" fill="rgb(100, 116, 139)" font-family="-apple-system" font-size="12" font-weight="400">become</text><text x="797.92" y="642.56" fill="rgb(100, 116, 139)" font-family="-apple-system" font-size="12" font-weight="400">unhealthy</text><rect x="537" y="653" width="622" height="42" rx="8" fill="rgba(15, 23, 42, 0.5)" stroke="rgb(51, 65, 85)" stroke-width="1"/><text x="553" y="679.32" fill="rgb(241, 245, 249)" font-family="ui-monospace" font-size="14" font-weight="400">https://hooks.example.com/dashgo</text><rect x="537" y="707" width="118.05" height="36" rx="8" fill="rgb(51, 65, 85)"/><svg fill="none" viewBox="0 0 24 24" stroke-width="1.5" stroke="currentColor" x="553" y="717" width="16" height="16" color="rgb(226, 232, 240)" style="color:rgb(226, 232, 240);overflow:visible" xmlns="http://www.w3.org/2000/svg"><path stroke-linecap="round" stroke-linejoin="round" d="M6 12L3.269 3.126A59.768 59.768 0 0121.485 12 59.77 59.77 0 013.27 20.876L5.999 12zm0 0h7.5"></path></svg><text x="577" y="729.32" fill="rgb(226, 232, 240)" font-family="-apple-system" font-size="14" font-weight="500">Send</text><text x="611.73" y="729.32" fill="rgb(226, 232, 240)" font-family="-apple-system" font-size="14" font-weight="500">Test</text><text x="537" y="782.56" fill="rgb(148, 163, 184)" font-family="-apple-system" font-size="12" font-weight="600" letter-spacing="0.6">Events</text><rect x="537" y="799" width="307" height="34" rx="8" fill="rgba(15, 23, 42, 0.4)" stroke="rgba(51, 65, 85, 0.5)" stroke-width="1"/><rect x="550" y="809.5" width="13" height="13" rx="0" fill="rgb(51, 65, 85)"/><rect x="550" y="809.5" width="13" height="13" rx="3" fill="rgb(37,99,235)" stroke="rgb(71,85,105)" stroke-width="1"/><path d="M 553 816 l 3.25 3.25 l 5.85 -5.85" fill="none" stroke="white" stroke-width="1.6" stroke-linecap="round" stroke-linejoin="round"/><text x="571" y="819.56" fill="rgb(203, 213, 225)" font-family="-apple-system" font-size="12" font-weight="400">Container</text><text x="625.67" y="819.56" fill="rgb(203, 213, 225)" font-family="-apple-system" font-size="12" font-weight="400">Unhealthy</text><rect x="852" y="799" width="307" height="34" rx="8" fill="rgba(15, 23, 42, 0.4)" stroke="rgba(51, 65, 85, 0.5)" stroke-width="1"/><rect x="865" y="809.5" width="13" height="13" rx="0" fill="rgb(51, 65, 85)"/><rect x="865" y="809.5" width="13" height="13" rx="3" fill="rgb(37,99,235)" stroke="rgb(71,85,105)" stroke-width="1"/><path d="M 868 816 l 3.25 3.25 l 5.85 -5.85" fill="none" stroke="white" stroke-width="1.6" stroke-linecap="round" stroke-linejoin="round"/><text x="886" y="819.56" fill="rgb(203, 213, 225)" font-family="-apple-system" font-size="12" font-weight="400">Container</text><text x="940.67" y="819.56" fill="rgb(203, 213, 225)" font-family="-apple-system" font-size="12" font-weight="400">Stopped</text><rect x="537" y="841" width="307" height="34" rx="8" fill="rgba(15, 23, 42, 0.4)" stroke="rgba(51, 65, 85, 0.5)" stroke-width="1"/><rect x="550" y="851.5" width="13" height="13" rx="0" fill="rgb(51, 65, 85)"/><rect x="550" y="851.5" width="13" height="13" rx="3" fill="rgb(37,99,235)" stroke="rgb(71,85,105)" stroke-width="1"/><path d="M 553 858 l 3.25 3.25 l 5.85 -5.85" fill="none" stroke="white" stroke-width="1.6" stroke-linecap="round" stroke-linejoin="round"/><text x="571" y="861.56" fill="rgb(203, 213, 225)" font-family="-apple-system" font-size="12" font-weight="400">Container</text><text x="625.67" y="861.56" fill="rgb(203, 213, 225)" font-family="-apple-system" font-size="12" font-weight="400">Restarted</text><rect x="852" y="841" width="307" height="34" rx="8" fill="rgba(15, 23, 42, 0.4)" stroke="rgba(51, 65, 85, 0.5)" stroke-width="1"/><rect x="865" y="851.5" width="13" height="13" rx="0" fill="rgb(51, 65, 85)"/><rect x="865" y="851.5" width="13" height="13" rx="3" fill="rgb(37,99,235)" stroke="rgb(71,85,105)" stroke-width="1"/><path d="M 868 858 l 3.25 3.25 l 5.85 -5.85" fill="none" stroke="white" stroke-width="1.6" stroke-linecap="round" stroke-linejoin="round"/><text x="886" y="861.56" fill="rgb(203, 213, 225)" font-family="-apple-system" font-size="12" font-weight="400">Update</text><text x="927.08" y="861.56" fill="rgb(203, 213, 225)" font-family="-apple-system" font-size="12" font-weight="400">Available</text><rect x="537" y="883" width="307" height="34" rx="8" fill="rgba(15, 23, 42, 0.4)" stroke="rgba(51, 65, 85, 0.5)" stroke-width="1"/><rect x="550" y="893.5" width="13" height="13" rx="0" fill="rgb(51, 65, 85)"/><rect x="550" y="893.5" width="13" height="13" rx="3" fill="rgb(37,99,235)" stroke="rgb(71,85,105)" stroke-width="1"/><path d="M 553 900 l 3.25 3.25 l 5.85 -5.85" fill="none" stroke="white" stroke-width="1.6" stroke-linecap="round" stroke-linejoin="round"/><text x="571" y="903.56" fill="rgb(203, 213, 225)" font-family="-apple-system" font-size="12" font-weight="400">High</text><text x="598.56" y="903.56" fill="rgb(203, 213, 225)" font-family="-apple-system" font-size="12" font-weight="400">Temperature</text><rect x="852" y="883" width="307" height="34" rx="8" fill="rgba(15, 23, 42, 0.4)" stroke="rgba(51, 65, 85, 0.5)" stroke-width="1"/><rect x="865" y="893.5" width="13" height="13" rx="0" fill="rgb(51, 65, 85)"/><rect x="865" y="893.5" width="13" height="13" rx="3" fill="rgb(37,99,235)" stroke="rgb(71,85,105)" stroke-width="1"/><path d="M 868 900 l 3.25 3.25 l 5.85 -5.85" fill="none" stroke="white" stroke-width="1.6" stroke-linecap="round" stroke-linejoin="round"/><text x="886" y="903.56" fill="rgb(203, 213, 225)" font-family="-apple-system" font-size="12" font-weight="400">Low</text><text x="911.3" y="903.56" fill="rgb(203, 213, 225)" font-family="-apple-system" font-size="12" font-weight="400">Disk</text><text x="937.34" y="903.56" fill="rgb(203, 213, 225)" font-family="-apple-system" font-size="12" font-weight="400">Space</text><text x="537" y="935.8" fill="rgb(71, 85, 105)" font-family="-apple-system" font-size="10" font-weight="400" font-style="italic">Event</text><text x="563.14" y="935.8" fill="rgb(71, 85, 105)" font-family="-apple-system" font-size="10" font-weight="400" font-style="italic">filtering</text><text x="598.09" y="935.8" fill="rgb(71, 85, 105)" font-family="-apple-system" font-size="10" font-weight="400" font-style="italic">coming</text><text x="632.83" y="935.8" fill="rgb(71, 85, 105)" font-family="-apple-system" font-size="10" font-weight="400" font-style="italic">in</text><text x="643" y="935.8" fill="rgb(71, 85, 105)" font-family="-apple-system" font-size="10" font-weight="400" font-style="italic">a</text><text x="650.73" y="935.8" fill="rgb(71, 85, 105)" font-family="-apple-system" font-size="10" font-weight="400" font-style="italic">future</text><text x="678.77" y="935.8" fill="rgb(71, 85, 105)" font-family="-apple-system" font-size="10" font-weight="400" font-style="italic">update</text><rect x="512" y="989" width="672" height="338" rx="12" fill="rgba(30, 41, 59, 0.6)" stroke="rgba(51, 65, 85, 0.4)" stroke-width="1"/><text x="537" y="1032.84" fill="rgb(241, 245, 249)" font-family="-apple-system" font-size="18" font-weight="700">Security</text></svg>