<svg xmlns="http://www.w3.org/2000/svg" width="1440" height="1024" viewBox="0 0 1440 1024"><title>Dashgo editable source-verified frame</title><rect x="0" y="0" width="1440" height="1024" rx="0" fill="rgb(15, 23, 42)"/><rect x="0" y="0" width="1440" height="1024" rx="0" fill="rgb(17, 24, 39)"/><rect x="0" y="0" width="256" height="1024" rx="0" fill="rgb(15, 23, 42)" stroke="rgb(51, 65, 85)" stroke-width="1"/><rect x="32" y="24" width="40" height="40" rx="12" fill="rgb(30, 41, 59)" stroke="rgb(51, 65, 85)" stroke-width="1"/><svg fill="none" viewBox="0 0 24 24" stroke="currentColor" x="40" y="32" width="24" height="24" color="rgb(96, 165, 250)" style="color:rgb(96, 165, 250);overflow:visible" xmlns="http://www.w3.org/2000/svg"><path stroke-linecap="round" stroke-linejoin="round" stroke-width="2" d="M19 11H5m14 0a2 2 0 012 2v6a2 2 0 01-2 2H5a2 2 0 01-2-2v-6a2 2 0 012-2m14 0V9a2 2 0 00-2-2M5 11V9a2 2 0 002-2m0 0V5a2 2 0 012-2h6a2 2 0 012 2v2M7 7h10"></path></svg><text x="84" y="49.6" fill="rgb(241, 245, 249)" font-family="-apple-system" font-size="20" font-weight="700" letter-spacing="-0.5">Dashgo</text><svg fill="none" viewBox="0 0 24 24" stroke="currentColor" stroke-width="2" x="40" y="110" width="20" height="20" color="rgb(148, 163, 184)" style="color:rgb(148, 163, 184);overflow:visible" xmlns="http://www.w3.org/2000/svg"><path stroke-linecap="round" stroke-linejoin="round" d="M4 6a2 2 0 012-2h2a2 2 0 012 2v2a2 2 0 01-2 2H6a2 2 0 01-2-2V6zM14 6a2 2 0 012-2h2a2 2 0 012 2v2a2 2 0 01-2 2h-2a2 2 0 01-2-2V6zM4 16a2 2 0 012-2h2a2 2 0 012 2v2a2 2 0 01-2 2H6a2 2 0 01-2-2v-2zM14 16a2 2 0 012-2h2a2 2 0 012 2v2a2 2 0 01-2 2h-2a2 2 0 01-2-2v-2z"></path></svg><text x="72" y="124.08" fill="rgb(148, 163, 184)" font-family="-apple-system" font-size="16" font-weight="500">Dashboard</text><svg fill="none" viewBox="0 0 24 24" stroke="currentColor" stroke-width="2" x="40" y="162" width="20" height="20" color="rgb(148, 163, 184)" style="color:rgb(148, 163, 184);overflow:visible" xmlns="http://www.w3.org/2000/svg"><path stroke-linecap="round" stroke-linejoin="round" d="M21 12a9 9 0 01-9 9m9-9a9 9 0 00-9-9m9 9H3m9 9a9 9 0 01-9-9m9 9c1.657 0 3-4.03 3-9s-1.343-9-3-9m0 18c-1.657 0-3-4.03-3-9s1.343-9 3-9m-9 9a9 9 0 019-9"></path></svg><text x="72" y="176.08" fill="rgb(148, 163, 184)" font-family="-apple-system" font-size="16" font-weight="500">Tailnet</text><rect x="24" y="200" width="207" height="50" rx="8" fill="rgb(30, 41, 59)" stroke="rgba(51, 65, 85, 0.5)" stroke-width="1"/><svg fill="none" viewBox="0 0 24 24" stroke="currentColor" stroke-width="2" x="41" y="215" width="20" height="20" color="rgb(74, 222, 128)" style="color:rgb(74, 222, 128);overflow:visible" xmlns="http://www.w3.org/2000/svg"><path stroke-linecap="round" stroke-linejoin="round" d="M10.325 4.317c.426-1.756 2.924-1.756 3.35 0a1.724 1.724 0 002.573 1.066c1.543-.94 3.31.826 2.37 2.37a1.724 1.724 0 001.065 2.572c1.756.426 1.756 2.924 0 3.35a1.724 1.724 0 00-1.066 2.573c.94 1.543-.826 3.31-2.37 2.37a1.724 1.724 0 00-2.572 1.065c-.426 1.756-2.924 1.756-3.35 0a1.724 1.724 0 00-2.573-1.066c-1.543.94-3.31-.826-2.37-2.37a1.724 1.724 0 00-1.065-2.572c-1.756-.426-1.756-2.924 0-3.35a1.724 1.724 0 001.066-2.573c-.94-1.543.826-3.31 2.37-2.37.996.608 2.296.07 2.572-1.065z"></path><path stroke-linecap="round" stroke-linejoin="round" d="M15 12a3 3 0 11-6 0 3 3 0 016 0z"></path></svg><text x="73" y="229.08" fill="rgb(241, 245, 249)" font-family="-apple-system" font-size="16" font-weight="500">Settings</text><rect x="24" y="881" width="207" height="119" rx="0" fill="none" stroke="rgb(30, 41, 59)" stroke-width="1"/><text x="32" y="917.56" fill="rgb(100, 116, 139)" font-family="-apple-system" font-size="12" font-weight="500" letter-spacing="0.6">Docker</text><text x="84.98" y="917.56" fill="rgb(100, 116, 139)" font-family="-apple-system" font-size="12" font-weight="500" letter-spacing="0.6">Socket</text><rect x="32" y="926" width="191" height="26" rx="4" fill="rgba(30, 41, 59, 0.5)" stroke="rgb(30, 41, 59)" stroke-width="1"/><text x="41" y="942.56" fill="rgb(148, 163, 184)" font-family="ui-monospace" font-size="12" font-weight="400">/var/run/docker.sock</text><svg fill="none" viewBox="0 0 24 24" stroke-width="1.5" stroke="currentColor" x="44" y="976" width="16" height="16" color="rgb(100, 116, 139)" style="color:rgb(100, 116, 139);overflow:visible" xmlns="http://www.w3.org/2000/svg"><path stroke-linecap="round" stroke-linejoin="round" d="M15.75 9V5.25A2.25 2.25 0 0013.5 3h-6a2.25 2.25 0 00-2.25 2.25v13.5A2.25 2.25 0 007.5 21h6a2.25 2.25 0 002.25-2.25V15m3 0l3-3m0 0l-3-3m3 3H9"></path></svg><text x="68" y="987.56" fill="rgb(100, 116, 139)" font-family="-apple-system" font-size="12" font-weight="400">Sign</text><text x="94.38" y="987.56" fill="rgb(100, 116, 139)" font-family="-apple-system" font-size="12" font-weight="400">Out</text><rect x="256" y="0" width="1184" height="1024" rx="0" fill="rgb(15, 23, 42)"/><rect x="256" y="0" width="224" height="1024" rx="0" fill="none" stroke="rgb(30, 41, 59)" stroke-width="1"/><text x="284" y="35.6" fill="rgb(241, 245, 249)" font-family="-apple-system" font-size="20" font-weight="700">Settings</text><svg fill="none" viewBox="0 0 24 24" stroke-width="1.5" stroke="currentColor" x="284" y="80" width="16" height="16" color="rgb(148, 163, 184)" style="color:rgb(148, 163, 184);overflow:visible" xmlns="http://www.w3.org/2000/svg"><path stroke-linecap="round" stroke-linejoin="round" d="M9.594 3.94c.09-.542.56-.94 1.11-.94h2.593c.55 0 1.02.398 1.11.94l.213 1.281c.063.374.313.686.645.87.074.04.147.083.22.127.324.196.72.257 1.075.124l1.217-.456a1.125 1.125 0 011.37.49l1.296 2.247a1.125 1.125 0 01-.26 1.431l-1.003.827c-.293.24-.438.613-.431.992a6.759 6.759 0 010 .255c-.007.378.138.75.43.99l1.005.828c.424.35.534.954.26 1.43l-1.298 2.247a1.125 1.125 0 01-1.369.491l-1.217-.456c-.355-.133-.75-.072-1.076.124a6.57 6.57 0 01-.22.128c-.331.183-.581.495-.644.869l-.213 1.28c-.09.543-.56.941-1.11.941h-2.594c-.55 0-1.02-.398-1.11-.94l-.213-1.281c-.062-.374-.312-.686-.644-.87a6.52 6.52 0 01-.22-.127c-.325-.196-.72-.257-1.076-.124l-1.217.456a1.125 1.125 0 01-1.369-.49l-1.297-2.247a1.125 1.125 0 01.26-1.431l1.004-.827c.292-.24.437-.613.43-.992a6.932 6.932 0 010-.255c.007-.378-.138-.75-.43-.99l-1.004-.828a1.125 1.125 0 01-.26-1.43l1.297-2.247a1.125 1.125 0 011.37-.491l1.216.456c.356.133.751.072 1.076-.124.072-.044.146-.087.22-.128.332-.183.582-.495.644-.869l.214-1.281z"></path><circle cx="12" cy="12" r="3"></circle></svg><text x="310" y="92.32" fill="rgb(148, 163, 184)" font-family="-apple-system" font-size="14" font-weight="500">General</text><svg fill="none" viewBox="0 0 24 24" stroke-width="1.5" stroke="currentColor" x="284" y="122" width="16" height="16" color="rgb(148, 163, 184)" style="color:rgb(148, 163, 184);overflow:visible" xmlns="http://www.w3.org/2000/svg"><path stroke-linecap="round" stroke-linejoin="round" d="M12 21a9.004 9.004 0 008.716-6.747M12 21a9.004 9.004 0 01-8.716-6.747M12 21c2.485 0 4.5-4.03 4.5-9S14.485 3 12 3m0 18c-2.485 0-4.5-4.03-4.5-9S9.515 3 12 3m0 0a8.997 8.997 0 017.843 4.582M12 3a8.997 8.997 0 00-7.843 4.582m15.686 0A11.953 11.953 0 0112 10.5c-2.998 0-5.74-1.1-7.843-2.918m15.686 0A8.959 8.959 0 0121 12c0 .778-.099 1.533-.284 2.253m0 0A17.919 17.919 0 0112 16.5c-3.162 0-6.133-.815-8.716-2.247m0 0A9.015 9.015 0 013 12c0-1.605.42-3.113 1.157-4.418"></path></svg><text x="310" y="134.32" fill="rgb(148, 163, 184)" font-family="-apple-system" font-size="14" font-weight="500">Network</text><text x="366.2" y="134.32" fill="rgb(148, 163, 184)" font-family="-apple-system" font-size="14" font-weight="500">&amp;</text><text x="378.64" y="134.32" fill="rgb(148, 163, 184)" font-family="-apple-system" font-size="14" font-weight="500">Links</text><svg fill="none" viewBox="0 0 24 24" stroke-width="1.5" stroke="currentColor" x="284" y="164" width="16" height="16" color="rgb(148, 163, 184)" style="color:rgb(148, 163, 184);overflow:visible" xmlns="http://www.w3.org/2000/svg"><path stroke-linecap="round" stroke-linejoin="round" d="M13.19 8.688a4.5 4.5 0 011.242 7.244l-4.5 4.5a4.5 4.5 0 01-6.364-6.364l1.757-1.757m13.35-.622l1.757-1.757a4.5 4.5 0 00-6.364-6.364l-4.5 4.5a4.5 4.5 0 001.242 7.244"></path></svg><text x="310" y="176.32" fill="rgb(148, 163, 184)" font-family="-apple-system" font-size="14" font-weight="500">Tailscale</text><svg fill="none" viewBox="0 0 24 24" stroke-width="1.5" stroke="currentColor" x="284" y="206" width="16" height="16" color="rgb(148, 163, 184)" style="color:rgb(148, 163, 184);overflow:visible" xmlns="http://www.w3.org/2000/svg"><path stroke-linecap="round" stroke-linejoin="round" d="M14.857 17.082a23.848 23.848 0 005.454-1.31A8.967 8.967 0 0118 9.75v-.7V9A6 6 0 006 9v.75a8.967 8.967 0 01-2.312 6.022c1.733.64 3.56 1.085 5.455 1.31m5.714 0a24.255 24.255 0 01-5.714 0m5.714 0a3 3 0 11-5.714 0"></path></svg><text x="310" y="218.32" fill="rgb(148, 163, 184)" font-family="-apple-system" font-size="14" font-weight="500">Notifications</text><svg fill="none" viewBox="0 0 24 24" stroke-width="1.5" stroke="currentColor" x="284" y="248" width="16" height="16" color="rgb(148, 163, 184)" style="color:rgb(148, 163, 184);overflow:visible" xmlns="http://www.w3.org/2000/svg"><path stroke-linecap="round" stroke-linejoin="round" d="M9 12.75L11.25 15 15 9.75m-3-7.036A11.959 11.959 0 013.598 6 11.99 11.99 0 003 9.749c0 5.592 3.824 10.29 9 11.623 5.176-1.332 9-6.03 9-11.622 0-1.31-.21-2.571-.598-3.751h-.152c-3.196 0-6.1-1.248-8.25-3.285z"></path></svg><text x="310" y="260.32" fill="rgb(148, 163, 184)" font-family="-apple-system" font-size="14" font-weight="500">Security</text><rect x="272" y="278" width="191" height="42" rx="8" fill="rgb(30, 41, 59)" stroke="rgba(51, 65, 85, 0.5)" stroke-width="1"/><svg fill="none" viewBox="0 0 24 24" stroke-width="1.5" stroke="currentColor" x="285" y="291" width="16" height="16" color="rgb(96, 165, 250)" style="color:rgb(96, 165, 250);overflow:visible" xmlns="http://www.w3.org/2000/svg"><path stroke-linecap="round" stroke-linejoin="round" d="M6.75 7.5l3 2.25-3 2.25m4.5 0h3m-9 8.25h13.5A2.25 2.25 0 0021 18V6a2.25 2.25 0 00-2.25-2.25H5.25A2.25 2.25 0 003 6v12a2.25 2.25 0 002.25 2.25z"></path></svg><text x="311" y="303.32" fill="rgb(241, 245, 249)" font-family="-apple-system" font-size="14" font-weight="500">Advanced</text><rect x="512" y="-160" width="672" height="636" rx="12" fill="rgba(30, 41, 59, 0.6)" stroke="rgba(51, 65, 85, 0.4)" stroke-width="1"/><rect x="537" y="-63" width="622" height="62" rx="8" fill="rgba(15, 23, 42, 0.4)" stroke="rgba(51, 65, 85, 0.5)" stroke-width="1"/><rect x="537" y="19" width="622" height="322" rx="8" fill="rgba(15, 23, 42, 0.4)" stroke="rgba(51, 65, 85, 0.5)" stroke-width="1"/><text x="554" y="50.32" fill="rgb(203, 213, 225)" font-family="-apple-system" font-size="14" font-weight="500">Current</text><text x="604.08" y="50.32" fill="rgb(203, 213, 225)" font-family="-apple-system" font-size="14" font-weight="500">Password</text><rect x="554" y="62" width="588" height="46" rx="8" fill="rgba(15, 23, 42, 0.5)" stroke="rgb(51, 65, 85)" stroke-width="1"/><text x="554" y="134.32" fill="rgb(203, 213, 225)" font-family="-apple-system" font-size="14" font-weight="500">New</text><text x="585.34" y="134.32" fill="rgb(203, 213, 225)" font-family="-apple-system" font-size="14" font-weight="500">Password</text><rect x="554" y="146" width="588" height="46" rx="8" fill="rgba(15, 23, 42, 0.5)" stroke="rgb(51, 65, 85)" stroke-width="1"/><text x="554" y="218.32" fill="rgb(203, 213, 225)" font-family="-apple-system" font-size="14" font-weight="500">Confirm</text><text x="607.64" y="218.32" fill="rgb(203, 213, 225)" font-family="-apple-system" font-size="14" font-weight="500">New</text><text x="638.98" y="218.32" fill="rgb(203, 213, 225)" font-family="-apple-system" font-size="14" font-weight="500">Password</text><rect x="554" y="230" width="588" height="46" rx="8" fill="rgba(15, 23, 42, 0.5)" stroke="rgb(51, 65, 85)" stroke-width="1"/><rect x="554" y="288" width="142.17" height="36" rx="8" fill="rgb(37, 99, 235)"/><text x="570" y="310.32" fill="rgb(255, 255, 255)" font-family="-apple-system" font-size="14" font-weight="500">Update</text><text x="618.16" y="310.32" fill="rgb(255, 255, 255)" font-family="-apple-system" font-size="14" font-weight="500">Password</text><rect x="704.17" y="288" width="74.94" height="36" rx="8" fill="rgb(51, 65, 85)"/><text x="720.17" y="310.32" fill="rgb(226, 232, 240)" font-family="-apple-system" font-size="14" font-weight="500">Cancel</text><text x="537" y="375.32" fill="rgb(203, 213, 225)" font-family="-apple-system" font-size="14" font-weight="500">Session</text><text x="589.84" y="375.32" fill="rgb(203, 213, 225)" font-family="-apple-system" font-size="14" font-weight="500">Timeout</text><text x="537" y="398.56" fill="rgb(100, 116, 139)" font-family="-apple-system" font-size="12" font-weight="400">How</text><text x="564.39" y="398.56" fill="rgb(100, 116, 139)" font-family="-apple-system" font-size="12" font-weight="400">long</text><text x="590.5" y="398.56" fill="rgb(100, 116, 139)" font-family="-apple-system" font-size="12" font-weight="400">login</text><text x="619.52" y="398.56" fill="rgb(100, 116, 139)" font-family="-apple-system" font-size="12" font-weight="400">sessions</text><text x="670.02" y="398.56" fill="rgb(100, 116, 139)" font-family="-apple-system" font-size="12" font-weight="400">last</text><rect x="537" y="409" width="622" height="42" rx="8" fill="rgba(15, 23, 42, 0.5)" stroke="rgb(51, 65, 85)" stroke-width="1"/><text x="554" y="434.32" fill="rgb(148, 163, 184)" font-family="-apple-system" font-size="14" font-weight="400">24</text><text x="573.2" y="434.32" fill="rgb(148, 163, 184)" font-family="-apple-system" font-size="14" font-weight="400">hours</text><text x="612.06" y="434.32" fill="rgb(148, 163, 184)" font-family="-apple-system" font-size="14" font-weight="400">(default)</text><rect x="512" y="500" width="672" height="428" rx="12" fill="rgba(30, 41, 59, 0.6)" stroke="rgba(51, 65, 85, 0.4)" stroke-width="1"/><text x="537" y="543.84" fill="rgb(241, 245, 249)" font-family="-apple-system" font-size="18" font-weight="700">Advanced</text><text x="537" y="571.32" fill="rgb(148, 163, 184)" font-family="-apple-system" font-size="14" font-weight="400">Low-level</text><text x="598.64" y="571.32" fill="rgb(148, 163, 184)" font-family="-apple-system" font-size="14" font-weight="400">configuration</text><text x="684.28" y="571.32" fill="rgb(148, 163, 184)" font-family="-apple-system" font-size="14" font-weight="400">for</text><text x="705.34" y="571.32" fill="rgb(148, 163, 184)" font-family="-apple-system" font-size="14" font-weight="400">power</text><text x="747.36" y="571.32" fill="rgb(148, 163, 184)" font-family="-apple-system" font-size="14" font-weight="400">users</text><text x="537" y="611.32" fill="rgb(203, 213, 225)" font-family="-apple-system" font-size="14" font-weight="500">Docker</text><text x="584.53" y="611.32" fill="rgb(203, 213, 225)" font-family="-apple-system" font-size="14" font-weight="500">Socket</text><text x="631.13" y="611.32" fill="rgb(203, 213, 225)" font-family="-apple-system" font-size="14" font-weight="500">Path</text><rect x="537" y="623" width="622" height="42" rx="8" fill="rgba(15, 23, 42, 0.5)" stroke="rgb(51, 65, 85)" stroke-width="1"/><text x="554" y="648.32" fill="rgb(148, 163, 184)" font-family="ui-monospace" font-size="14" font-weight="400">/var/run/docker.sock</text><text x="537" y="699.32" fill="rgb(203, 213, 225)" font-family="-apple-system" font-size="14" font-weight="500">Data</text><text x="569.45" y="699.32" fill="rgb(203, 213, 225)" font-family="-apple-system" font-size="14" font-weight="500">Directory</text><rect x="537" y="711" width="622" height="42" rx="8" fill="rgba(15, 23, 42, 0.5)" stroke="rgb(51, 65, 85)" stroke-width="1"/><text x="554" y="736.32" fill="rgb(148, 163, 184)" font-family="ui-monospace" font-size="14" font-weight="400">/app/data</text><text x="537" y="787.32" fill="rgb(203, 213, 225)" font-family="-apple-system" font-size="14" font-weight="500">Thermal</text><text x="592.55" y="787.32" fill="rgb(203, 213, 225)" font-family="-apple-system" font-size="14" font-weight="500">Zone</text><text x="627.59" y="787.32" fill="rgb(203, 213, 225)" font-family="-apple-system" font-size="14" font-weight="500">Path</text><rect x="537" y="799" width="622" height="42" rx="8" fill="rgba(15, 23, 42, 0.5)" stroke="rgb(51, 65, 85)" stroke-width="1"/><text x="554" y="824.32" fill="rgb(148, 163, 184)" font-family="ui-monospace" font-size="14" font-weight="400">/host/sys/class/thermal/</text><rect x="537" y="861" width="622" height="30" rx="0" fill="none" stroke="rgba(51, 65, 85, 0.4)" stroke-width="1"/><text x="537" y="885.56" fill="rgb(100, 116, 139)" font-family="-apple-system" font-size="12" font-weight="400">Configuration</text><text x="611.92" y="885.56" fill="rgb(100, 116, 139)" font-family="-apple-system" font-size="12" font-weight="400">is</text><text x="624.02" y="885.56" fill="rgb(100, 116, 139)" font-family="-apple-system" font-size="12" font-weight="400">stored</text><text x="660.92" y="885.56" fill="rgb(100, 116, 139)" font-family="-apple-system" font-size="12" font-weight="400">in</text><rect x="673.45" y="874" width="163.23" height="18" rx="4" fill="rgba(15, 23, 42, 0.5)"/><text x="673.45" y="884.56" fill="rgb(148, 163, 184)" font-family="source-code-pro" font-size="12" font-weight="400" xml:space="preserve">/app/data/config.json</text><text x="839.66" y="885.56" fill="rgb(100, 116, 139)" font-family="-apple-system" font-size="12" font-weight="400">and</text><text x="862.56" y="885.56" fill="rgb(100, 116, 139)" font-family="-apple-system" font-size="12" font-weight="400">persists</text><text x="908.13" y="885.56" fill="rgb(100, 116, 139)" font-family="-apple-system" font-size="12" font-weight="400">across</text><text x="947.09" y="885.56" fill="rgb(100, 116, 139)" font-family="-apple-system" font-size="12" font-weight="400">container</text><text x="1000.25" y="885.56" fill="rgb(100, 116, 139)" font-family="-apple-system" font-size="12" font-weight="400">restarts.</text></svg>