<svg xmlns="http://www.w3.org/2000/svg" width="1440" height="1024" viewBox="0 0 1440 1024"><title>Dashgo editable source-verified frame</title><rect x="0" y="0" width="1440" height="1024" rx="0" fill="rgb(15, 23, 42)"/><rect x="0" y="0" width="1440" height="1024" rx="0" fill="rgb(17, 24, 39)"/><rect x="0" y="0" width="256" height="1024" rx="0" fill="rgb(15, 23, 42)" stroke="rgb(51, 65, 85)" stroke-width="1"/><rect x="32" y="24" width="40" height="40" rx="12" fill="rgb(30, 41, 59)" stroke="rgb(51, 65, 85)" stroke-width="1"/><svg fill="none" viewBox="0 0 24 24" stroke="currentColor" x="40" y="32" width="24" height="24" color="rgb(96, 165, 250)" style="color:rgb(96, 165, 250);overflow:visible" xmlns="http://www.w3.org/2000/svg"><path stroke-linecap="round" stroke-linejoin="round" stroke-width="2" d="M19 11H5m14 0a2 2 0 012 2v6a2 2 0 01-2 2H5a2 2 0 01-2-2v-6a2 2 0 012-2m14 0V9a2 2 0 00-2-2M5 11V9a2 2 0 002-2m0 0V5a2 2 0 012-2h6a2 2 0 012 2v2M7 7h10"></path></svg><text x="84" y="49.6" fill="rgb(241, 245, 249)" font-family="-apple-system" font-size="20" font-weight="700" letter-spacing="-0.5">Dashgo</text><svg fill="none" viewBox="0 0 24 24" stroke="currentColor" stroke-width="2" x="40" y="110" width="20" height="20" color="rgb(148, 163, 184)" style="color:rgb(148, 163, 184);overflow:visible" xmlns="http://www.w3.org/2000/svg"><path stroke-linecap="round" stroke-linejoin="round" d="M4 6a2 2 0 012-2h2a2 2 0 012 2v2a2 2 0 01-2 2H6a2 2 0 01-2-2V6zM14 6a2 2 0 012-2h2a2 2 0 012 2v2a2 2 0 01-2 2h-2a2 2 0 01-2-2V6zM4 16a2 2 0 012-2h2a2 2 0 012 2v2a2 2 0 01-2 2H6a2 2 0 01-2-2v-2zM14 16a2 2 0 012-2h2a2 2 0 012 2v2a2 2 0 01-2 2h-2a2 2 0 01-2-2v-2z"></path></svg><text x="72" y="124.08" fill="rgb(148, 163, 184)" font-family="-apple-system" font-size="16" font-weight="500">Dashboard</text><svg fill="none" viewBox="0 0 24 24" stroke="currentColor" stroke-width="2" x="40" y="162" width="20" height="20" color="rgb(148, 163, 184)" style="color:rgb(148, 163, 184);overflow:visible" xmlns="http://www.w3.org/2000/svg"><path stroke-linecap="round" stroke-linejoin="round" d="M21 12a9 9 0 01-9 9m9-9a9 9 0 00-9-9m9 9H3m9 9a9 9 0 01-9-9m9 9c1.657 0 3-4.03 3-9s-1.343-9-3-9m0 18c-1.657 0-3-4.03-3-9s1.343-9 3-9m-9 9a9 9 0 019-9"></path></svg><text x="72" y="176.08" fill="rgb(148, 163, 184)" font-family="-apple-system" font-size="16" font-weight="500">Tailnet</text><rect x="24" y="200" width="207" height="50" rx="8" fill="rgb(30, 41, 59)" stroke="rgba(51, 65, 85, 0.5)" stroke-width="1"/><svg fill="none" viewBox="0 0 24 24" stroke="currentColor" stroke-width="2" x="41" y="215" width="20" height="20" color="rgb(74, 222, 128)" style="color:rgb(74, 222, 128);overflow:visible" xmlns="http://www.w3.org/2000/svg"><path stroke-linecap="round" stroke-linejoin="round" d="M10.325 4.317c.426-1.756 2.924-1.756 3.35 0a1.724 1.724 0 002.573 1.066c1.543-.94 3.31.826 2.37 2.37a1.724 1.724 0 001.065 2.572c1.756.426 1.756 2.924 0 3.35a1.724 1.724 0 00-1.066 2.573c.94 1.543-.826 3.31-2.37 2.37a1.724 1.724 0 00-2.572 1.065c-.426 1.756-2.924 1.756-3.35 0a1.724 1.724 0 00-2.573-1.066c-1.543.94-3.31-.826-2.37-2.37a1.724 1.724 0 00-1.065-2.572c-1.756-.426-1.756-2.924 0-3.35a1.724 1.724 0 001.066-2.573c-.94-1.543.826-3.31 2.37-2.37.996.608 2.296.07 2.572-1.065z"></path><path stroke-linecap="round" stroke-linejoin="round" d="M15 12a3 3 0 11-6 0 3 3 0 016 0z"></path></svg><text x="73" y="229.08" fill="rgb(241, 245, 249)" font-family="-apple-system" font-size="16" font-weight="500">Settings</text><rect x="24" y="881" width="207" height="119" rx="0" fill="none" stroke="rgb(30, 41, 59)" stroke-width="1"/><text x="32" y="917.56" fill="rgb(100, 116, 139)" font-family="-apple-system" font-size="12" font-weight="500" letter-spacing="0.6">Docker</text><text x="84.98" y="917.56" fill="rgb(100, 116, 139)" font-family="-apple-system" font-size="12" font-weight="500" letter-spacing="0.6">Socket</text><rect x="32" y="926" width="191" height="26" rx="4" fill="rgba(30, 41, 59, 0.5)" stroke="rgb(30, 41, 59)" stroke-width="1"/><text x="41" y="942.56" fill="rgb(148, 163, 184)" font-family="ui-monospace" font-size="12" font-weight="400">/var/run/docker.sock</text><svg fill="none" viewBox="0 0 24 24" stroke-width="1.5" stroke="currentColor" x="44" y="976" width="16" height="16" color="rgb(100, 116, 139)" style="color:rgb(100, 116, 139);overflow:visible" xmlns="http://www.w3.org/2000/svg"><path stroke-linecap="round" stroke-linejoin="round" d="M15.75 9V5.25A2.25 2.25 0 0013.5 3h-6a2.25 2.25 0 00-2.25 2.25v13.5A2.25 2.25 0 007.5 21h6a2.25 2.25 0 002.25-2.25V15m3 0l3-3m0 0l-3-3m3 3H9"></path></svg><text x="68" y="987.56" fill="rgb(100, 116, 139)" font-family="-apple-system" font-size="12" font-weight="400">Sign</text><text x="94.38" y="987.56" fill="rgb(100, 116, 139)" font-family="-apple-system" font-size="12" font-weight="400">Out</text><rect x="256" y="0" width="1184" height="1024" rx="0" fill="rgb(15, 23, 42)"/><rect x="256" y="0" width="224" height="1024" rx="0" fill="none" stroke="rgb(30, 41, 59)" stroke-width="1"/><text x="284" y="35.6" fill="rgb(241, 245, 249)" font-family="-apple-system" font-size="20" font-weight="700">Settings</text><svg fill="none" viewBox="0 0 24 24" stroke-width="1.5" stroke="currentColor" x="284" y="80" width="16" height="16" color="rgb(148, 163, 184)" style="color:rgb(148, 163, 184);overflow:visible" xmlns="http://www.w3.org/2000/svg"><path stroke-linecap="round" stroke-linejoin="round" d="M9.594 3.94c.09-.542.56-.94 1.11-.94h2.593c.55 0 1.02.398 1.11.94l.213 1.281c.063.374.313.686.645.87.074.04.147.083.22.127.324.196.72.257 1.075.124l1.217-.456a1.125 1.125 0 011.37.49l1.296 2.247a1.125 1.125 0 01-.26 1.431l-1.003.827c-.293.24-.438.613-.431.992a6.759 6.759 0 010 .255c-.007.378.138.75.43.99l1.005.828c.424.35.534.954.26 1.43l-1.298 2.247a1.125 1.125 0 01-1.369.491l-1.217-.456c-.355-.133-.75-.072-1.076.124a6.57 6.57 0 01-.22.128c-.331.183-.581.495-.644.869l-.213 1.28c-.09.543-.56.941-1.11.941h-2.594c-.55 0-1.02-.398-1.11-.94l-.213-1.281c-.062-.374-.312-.686-.644-.87a6.52 6.52 0 01-.22-.127c-.325-.196-.72-.257-1.076-.124l-1.217.456a1.125 1.125 0 01-1.369-.49l-1.297-2.247a1.125 1.125 0 01.26-1.431l1.004-.827c.292-.24.437-.613.43-.992a6.932 6.932 0 010-.255c.007-.378-.138-.75-.43-.99l-1.004-.828a1.125 1.125 0 01-.26-1.43l1.297-2.247a1.125 1.125 0 011.37-.491l1.216.456c.356.133.751.072 1.076-.124.072-.044.146-.087.22-.128.332-.183.582-.495.644-.869l.214-1.281z"></path><circle cx="12" cy="12" r="3"></circle></svg><text x="310" y="92.32" fill="rgb(148, 163, 184)" font-family="-apple-system" font-size="14" font-weight="500">General</text><rect x="272" y="110" width="191" height="42" rx="8" fill="rgb(30, 41, 59)" stroke="rgba(51, 65, 85, 0.5)" stroke-width="1"/><svg fill="none" viewBox="0 0 24 24" stroke-width="1.5" stroke="currentColor" x="285" y="123" width="16" height="16" color="rgb(96, 165, 250)" style="color:rgb(96, 165, 250);overflow:visible" xmlns="http://www.w3.org/2000/svg"><path stroke-linecap="round" stroke-linejoin="round" d="M12 21a9.004 9.004 0 008.716-6.747M12 21a9.004 9.004 0 01-8.716-6.747M12 21c2.485 0 4.5-4.03 4.5-9S14.485 3 12 3m0 18c-2.485 0-4.5-4.03-4.5-9S9.515 3 12 3m0 0a8.997 8.997 0 017.843 4.582M12 3a8.997 8.997 0 00-7.843 4.582m15.686 0A11.953 11.953 0 0112 10.5c-2.998 0-5.74-1.1-7.843-2.918m15.686 0A8.959 8.959 0 0121 12c0 .778-.099 1.533-.284 2.253m0 0A17.919 17.919 0 0112 16.5c-3.162 0-6.133-.815-8.716-2.247m0 0A9.015 9.015 0 013 12c0-1.605.42-3.113 1.157-4.418"></path></svg><text x="311" y="135.32" fill="rgb(241, 245, 249)" font-family="-apple-system" font-size="14" font-weight="500">Network</text><text x="367.2" y="135.32" fill="rgb(241, 245, 249)" font-family="-apple-system" font-size="14" font-weight="500">&amp;</text><text x="379.64" y="135.32" fill="rgb(241, 245, 249)" font-family="-apple-system" font-size="14" font-weight="500">Links</text><svg fill="none" viewBox="0 0 24 24" stroke-width="1.5" stroke="currentColor" x="284" y="166" width="16" height="16" color="rgb(148, 163, 184)" style="color:rgb(148, 163, 184);overflow:visible" xmlns="http://www.w3.org/2000/svg"><path stroke-linecap="round" stroke-linejoin="round" d="M13.19 8.688a4.5 4.5 0 011.242 7.244l-4.5 4.5a4.5 4.5 0 01-6.364-6.364l1.757-1.757m13.35-.622l1.757-1.757a4.5 4.5 0 00-6.364-6.364l-4.5 4.5a4.5 4.5 0 001.242 7.244"></path></svg><text x="310" y="178.32" fill="rgb(148, 163, 184)" font-family="-apple-system" font-size="14" font-weight="500">Tailscale</text><svg fill="none" viewBox="0 0 24 24" stroke-width="1.5" stroke="currentColor" x="284" y="208" width="16" height="16" color="rgb(148, 163, 184)" style="color:rgb(148, 163, 184);overflow:visible" xmlns="http://www.w3.org/2000/svg"><path stroke-linecap="round" stroke-linejoin="round" d="M14.857 17.082a23.848 23.848 0 005.454-1.31A8.967 8.967 0 0118 9.75v-.7V9A6 6 0 006 9v.75a8.967 8.967 0 01-2.312 6.022c1.733.64 3.56 1.085 5.455 1.31m5.714 0a24.255 24.255 0 01-5.714 0m5.714 0a3 3 0 11-5.714 0"></path></svg><text x="310" y="220.32" fill="rgb(148, 163, 184)" font-family="-apple-system" font-size="14" font-weight="500">Notifications</text><svg fill="none" viewBox="0 0 24 24" stroke-width="1.5" stroke="currentColor" x="284" y="250" width="16" height="16" color="rgb(148, 163, 184)" style="color:rgb(148, 163, 184);overflow:visible" xmlns="http://www.w3.org/2000/svg"><path stroke-linecap="round" stroke-linejoin="round" d="M9 12.75L11.25 15 15 9.75m-3-7.036A11.959 11.959 0 013.598 6 11.99 11.99 0 003 9.749c0 5.592 3.824 10.29 9 11.623 5.176-1.332 9-6.03 9-11.622 0-1.31-.21-2.571-.598-3.751h-.152c-3.196 0-6.1-1.248-8.25-3.285z"></path></svg><text x="310" y="262.32" fill="rgb(148, 163, 184)" font-family="-apple-system" font-size="14" font-weight="500">Security</text><svg fill="none" viewBox="0 0 24 24" stroke-width="1.5" stroke="currentColor" x="284" y="292" width="16" height="16" color="rgb(148, 163, 184)" style="color:rgb(148, 163, 184);overflow:visible" xmlns="http://www.w3.org/2000/svg"><path stroke-linecap="round" stroke-linejoin="round" d="M6.75 7.5l3 2.25-3 2.25m4.5 0h3m-9 8.25h13.5A2.25 2.25 0 0021 18V6a2.25 2.25 0 00-2.25-2.25H5.25A2.25 2.25 0 003 6v12a2.25 2.25 0 002.25 2.25z"></path></svg><text x="310" y="304.32" fill="rgb(148, 163, 184)" font-family="-apple-system" font-size="14" font-weight="500">Advanced</text><rect x="512" y="-364" width="672" height="419" rx="12" fill="rgba(30, 41, 59, 0.6)" stroke="rgba(51, 65, 85, 0.4)" stroke-width="1"/><rect x="537" y="-13" width="622" height="43" rx="8" fill="rgba(15, 23, 42, 0.5)" stroke="rgb(51, 65, 85)" stroke-width="1"/><text x="553" y="14.58" fill="rgb(241, 245, 249)" font-family="-apple-system" font-size="16" font-weight="400">HTTP</text><path d="M 1141 6.5 l 5 5 l 5 -5" fill="none" stroke="rgb(241, 245, 249)" stroke-width="1.4"/><rect x="512" y="79" width="672" height="322" rx="12" fill="rgba(30, 41, 59, 0.6)" stroke="rgba(51, 65, 85, 0.4)" stroke-width="1"/><text x="537" y="122.84" fill="rgb(241, 245, 249)" font-family="-apple-system" font-size="18" font-weight="700">Network</text><text x="609.59" y="122.84" fill="rgb(241, 245, 249)" font-family="-apple-system" font-size="18" font-weight="700">&amp;</text><text x="625.89" y="122.84" fill="rgb(241, 245, 249)" font-family="-apple-system" font-size="18" font-weight="700">Links</text><text x="537" y="150.32" fill="rgb(148, 163, 184)" font-family="-apple-system" font-size="14" font-weight="400">How</text><text x="568.95" y="150.32" fill="rgb(148, 163, 184)" font-family="-apple-system" font-size="14" font-weight="400">container</text><text x="630.97" y="150.32" fill="rgb(148, 163, 184)" font-family="-apple-system" font-size="14" font-weight="400">access</text><text x="678.59" y="150.32" fill="rgb(148, 163, 184)" font-family="-apple-system" font-size="14" font-weight="400">links</text><text x="710.92" y="150.32" fill="rgb(148, 163, 184)" font-family="-apple-system" font-size="14" font-weight="400">are</text><text x="734.05" y="150.32" fill="rgb(148, 163, 184)" font-family="-apple-system" font-size="14" font-weight="400">generated</text><text x="537" y="190.32" fill="rgb(203, 213, 225)" font-family="-apple-system" font-size="14" font-weight="500">Local</text><text x="574.53" y="190.32" fill="rgb(203, 213, 225)" font-family="-apple-system" font-size="14" font-weight="500">Network</text><text x="630.73" y="190.32" fill="rgb(203, 213, 225)" font-family="-apple-system" font-size="14" font-weight="500">IP</text><text x="537" y="213.56" fill="rgb(100, 116, 139)" font-family="-apple-system" font-size="12" font-weight="400">Auto-detected</text><text x="615.08" y="213.56" fill="rgb(100, 116, 139)" font-family="-apple-system" font-size="12" font-weight="400">if</text><text x="625.14" y="213.56" fill="rgb(100, 116, 139)" font-family="-apple-system" font-size="12" font-weight="400">empty.</text><text x="663.89" y="213.56" fill="rgb(100, 116, 139)" font-family="-apple-system" font-size="12" font-weight="400">Used</text><text x="693.97" y="213.56" fill="rgb(100, 116, 139)" font-family="-apple-system" font-size="12" font-weight="400">for</text><text x="712.03" y="213.56" fill="rgb(100, 116, 139)" font-family="-apple-system" font-size="12" font-weight="400">LAN</text><text x="737.97" y="213.56" fill="rgb(100, 116, 139)" font-family="-apple-system" font-size="12" font-weight="400">access</text><text x="778.78" y="213.56" fill="rgb(100, 116, 139)" font-family="-apple-system" font-size="12" font-weight="400">links.</text><rect x="537" y="224" width="622" height="42" rx="8" fill="rgba(15, 23, 42, 0.5)" stroke="rgb(51, 65, 85)" stroke-width="1"/><text x="553" y="250.32" fill="rgb(241, 245, 249)" font-family="ui-monospace" font-size="14" font-weight="400">192.168.1.42</text><text x="537" y="300.32" fill="rgb(203, 213, 225)" font-family="-apple-system" font-size="14" font-weight="500">Domain</text><text x="588.73" y="300.32" fill="rgb(203, 213, 225)" font-family="-apple-system" font-size="14" font-weight="500">Name</text><text x="537" y="323.56" fill="rgb(100, 116, 139)" font-family="-apple-system" font-size="12" font-weight="400">Used</text><text x="567.08" y="323.56" fill="rgb(100, 116, 139)" font-family="-apple-system" font-size="12" font-weight="400">for</text><text x="585.14" y="323.56" fill="rgb(100, 116, 139)" font-family="-apple-system" font-size="12" font-weight="400">domain-based</text><text x="664.22" y="323.56" fill="rgb(100, 116, 139)" font-family="-apple-system" font-size="12" font-weight="400">access</text><text x="705.05" y="323.56" fill="rgb(100, 116, 139)" font-family="-apple-system" font-size="12" font-weight="400">links</text><text x="732.75" y="323.56" fill="rgb(100, 116, 139)" font-family="-apple-system" font-size="12" font-weight="400">(optional)</text><rect x="537" y="334" width="622" height="42" rx="8" fill="rgba(15, 23, 42, 0.5)" stroke="rgb(57, 110, 197)" stroke-width="1"/><text x="553" y="360.32" fill="rgb(241, 245, 249)" font-family="ui-monospace" font-size="14" font-weight="400">new.example.com</text><rect x="512" y="425" width="672" height="404" rx="12" fill="rgba(30, 41, 59, 0.6)" stroke="rgba(51, 65, 85, 0.4)" stroke-width="1"/><text x="537" y="468.84" fill="rgb(241, 245, 249)" font-family="-apple-system" font-size="18" font-weight="700">Tailscale</text><text x="537" y="496.32" fill="rgb(148, 163, 184)" font-family="-apple-system" font-size="14" font-weight="400">VPN</text><text x="568.2" y="496.32" fill="rgb(148, 163, 184)" font-family="-apple-system" font-size="14" font-weight="400">integration</text><text x="638.45" y="496.32" fill="rgb(148, 163, 184)" font-family="-apple-system" font-size="14" font-weight="400">configuration</text><rect x="537" y="522" width="622" height="62" rx="8" fill="rgba(15, 23, 42, 0.4)" stroke="rgba(51, 65, 85, 0.5)" stroke-width="1"/><rect x="554" y="548" width="10" height="10" rx="9999" fill="rgb(74, 222, 128)"/><text x="576" y="549.32" fill="rgb(226, 232, 240)" font-family="-apple-system" font-size="14" font-weight="500">Integration</text><text x="647.63" y="549.32" fill="rgb(226, 232, 240)" font-family="-apple-system" font-size="14" font-weight="500">Active</text><text x="576" y="566.56" fill="rgb(100, 116, 139)" font-family="-apple-system" font-size="12" font-weight="400">Tailscale</text><text x="626.11" y="566.56" fill="rgb(100, 116, 139)" font-family="-apple-system" font-size="12" font-weight="400">daemon</text><text x="672.75" y="566.56" fill="rgb(100, 116, 139)" font-family="-apple-system" font-size="12" font-weight="400">detected</text><text x="722.48" y="566.56" fill="rgb(100, 116, 139)" font-family="-apple-system" font-size="12" font-weight="400">on</text><text x="738.92" y="566.56" fill="rgb(100, 116, 139)" font-family="-apple-system" font-size="12" font-weight="400">host</text><rect x="1063.17" y="542.5" width="78.83" height="21" rx="4" fill="rgba(34, 197, 94, 0.1)" stroke="rgba(34, 197, 94, 0.2)" stroke-width="1"/><text x="1072.17" y="556.3" fill="rgb(74, 222, 128)" font-family="-apple-system" font-size="10" font-weight="700">Configured</text><text x="537" y="618.32" fill="rgb(203, 213, 225)" font-family="-apple-system" font-size="14" font-weight="500">Tailscale</text><text x="595.83" y="618.32" fill="rgb(203, 213, 225)" font-family="-apple-system" font-size="14" font-weight="500">IP</text><text x="537" y="641.56" fill="rgb(100, 116, 139)" font-family="-apple-system" font-size="12" font-weight="400">Auto-detected</text><text x="615.08" y="641.56" fill="rgb(100, 116, 139)" font-family="-apple-system" font-size="12" font-weight="400">if</text><text x="625.14" y="641.56" fill="rgb(100, 116, 139)" font-family="-apple-system" font-size="12" font-weight="400">empty.</text><text x="663.89" y="641.56" fill="rgb(100, 116, 139)" font-family="-apple-system" font-size="12" font-weight="400">Used</text><text x="693.97" y="641.56" fill="rgb(100, 116, 139)" font-family="-apple-system" font-size="12" font-weight="400">for</text><text x="711.8" y="641.56" fill="rgb(100, 116, 139)" font-family="-apple-system" font-size="12" font-weight="400">Tailnet</text><text x="750.55" y="641.56" fill="rgb(100, 116, 139)" font-family="-apple-system" font-size="12" font-weight="400">access</text><text x="791.36" y="641.56" fill="rgb(100, 116, 139)" font-family="-apple-system" font-size="12" font-weight="400">links.</text><rect x="537" y="652" width="622" height="42" rx="8" fill="rgba(15, 23, 42, 0.5)" stroke="rgb(51, 65, 85)" stroke-width="1"/><text x="553" y="678.32" fill="rgb(241, 245, 249)" font-family="ui-monospace" font-size="14" font-weight="400">100.76.12.44</text><text x="537" y="728.32" fill="rgb(203, 213, 225)" font-family="-apple-system" font-size="14" font-weight="500">MagicDNS</text><text x="606.72" y="728.32" fill="rgb(203, 213, 225)" font-family="-apple-system" font-size="14" font-weight="500">Hostname</text><text x="537" y="751.56" fill="rgb(100, 116, 139)" font-family="-apple-system" font-size="12" font-weight="400">The</text><text x="560.11" y="751.56" fill="rgb(100, 116, 139)" font-family="-apple-system" font-size="12" font-weight="400">MagicDNS</text><text x="619.58" y="751.56" fill="rgb(100, 116, 139)" font-family="-apple-system" font-size="12" font-weight="400">name</text><text x="652.59" y="751.56" fill="rgb(100, 116, 139)" font-family="-apple-system" font-size="12" font-weight="400">for</text><text x="670.66" y="751.56" fill="rgb(100, 116, 139)" font-family="-apple-system" font-size="12" font-weight="400">this</text><text x="693.28" y="751.56" fill="rgb(100, 116, 139)" font-family="-apple-system" font-size="12" font-weight="400">device</text><rect x="537" y="762" width="622" height="42" rx="8" fill="rgba(15, 23, 42, 0.5)" stroke="rgb(51, 65, 85)" stroke-width="1"/><text x="553" y="788.32" fill="rgb(241, 245, 249)" font-family="ui-monospace" font-size="14" font-weight="400">orange-pi.tailnet.ts.net</text><rect x="512" y="853" width="672" height="457" rx="12" fill="rgba(30, 41, 59, 0.6)" stroke="rgba(51, 65, 85, 0.4)" stroke-width="1"/><text x="537" y="896.84" fill="rgb(241, 245, 249)" font-family="-apple-system" font-size="18" font-weight="700">Notifications</text><text x="537" y="924.32" fill="rgb(148, 163, 184)" font-family="-apple-system" font-size="14" font-weight="400">Get</text><text x="562" y="924.32" fill="rgb(148, 163, 184)" font-family="-apple-system" font-size="14" font-weight="400">alerted</text><text x="608.91" y="924.32" fill="rgb(148, 163, 184)" font-family="-apple-system" font-size="14" font-weight="400">when</text><text x="645.77" y="924.32" fill="rgb(148, 163, 184)" font-family="-apple-system" font-size="14" font-weight="400">something</text><text x="715.44" y="924.32" fill="rgb(148, 163, 184)" font-family="-apple-system" font-size="14" font-weight="400">goes</text><text x="749.41" y="924.32" fill="rgb(148, 163, 184)" font-family="-apple-system" font-size="14" font-weight="400">wrong</text><text x="537" y="964.32" fill="rgb(203, 213, 225)" font-family="-apple-system" font-size="14" font-weight="500">Webhook</text><text x="599.02" y="964.32" fill="rgb(203, 213, 225)" font-family="-apple-system" font-size="14" font-weight="500">URL</text><text x="537" y="987.56" fill="rgb(100, 116, 139)" font-family="-apple-system" font-size="12" font-weight="400">Receives</text><text x="587.58" y="987.56" fill="rgb(100, 116, 139)" font-family="-apple-system" font-size="12" font-weight="400">POST</text><text x="620.44" y="987.56" fill="rgb(100, 116, 139)" font-family="-apple-system" font-size="12" font-weight="400">when</text><text x="652.03" y="987.56" fill="rgb(100, 116, 139)" font-family="-apple-system" font-size="12" font-weight="400">containers</text><text x="711.38" y="987.56" fill="rgb(100, 116, 139)" font-family="-apple-system" font-size="12" font-weight="400">stop</text><text x="737.94" y="987.56" fill="rgb(100, 116, 139)" font-family="-apple-system" font-size="12" font-weight="400">or</text><text x="751.83" y="987.56" fill="rgb(100, 116, 139)" font-family="-apple-system" font-size="12" font-weight="400">become</text><text x="797.92" y="987.56" fill="rgb(100, 116, 139)" font-family="-apple-system" font-size="12" font-weight="400">unhealthy</text><rect x="537" y="998" width="622" height="42" rx="8" fill="rgba(15, 23, 42, 0.5)" stroke="rgb(51, 65, 85)" stroke-width="1"/><text x="553" y="1024.32" fill="rgb(241, 245, 249)" font-family="ui-monospace" font-size="14" font-weight="400">https://hooks.example.com/dashgo</text><rect x="480" y="955" width="960" height="69" rx="0" fill="rgba(30, 41, 59, 0.95)" stroke="rgba(51, 65, 85, 0.5)" stroke-width="1"/><svg fill="none" viewBox="0 0 24 24" stroke-width="1.5" stroke="currentColor" x="512" y="982" width="16" height="16" color="rgb(251, 191, 36)" style="color:rgb(251, 191, 36);overflow:visible" xmlns="http://www.w3.org/2000/svg"><path stroke-linecap="round" stroke-linejoin="round" d="M12 9v3.75m-9.303 3.376c-.866 1.5.217 3.374 1.948 3.374h14.71c1.73 0 2.813-1.874 1.948-3.374L13.949 3.378c-.866-1.5-3.032-1.5-3.898 0L2.697 16.126zM12 15.75h.007v.008H12v-.008z"></path></svg><text x="536" y="994.32" fill="rgb(251, 191, 36)" font-family="-apple-system" font-size="14" font-weight="400">You</text><text x="563.13" y="994.32" fill="rgb(251, 191, 36)" font-family="-apple-system" font-size="14" font-weight="400">have</text><text x="595.94" y="994.32" fill="rgb(251, 191, 36)" font-family="-apple-system" font-size="14" font-weight="400">unsaved</text><text x="651.61" y="994.32" fill="rgb(251, 191, 36)" font-family="-apple-system" font-size="14" font-weight="400">changes</text><rect x="1179.23" y="972" width="79.58" height="36" rx="8" fill="rgb(51, 65, 85)"/><text x="1195.23" y="994.32" fill="rgb(226, 232, 240)" font-family="-apple-system" font-size="14" font-weight="500">Discard</text><rect x="1270.81" y="972" width="137.19" height="36" rx="8" fill="rgb(37, 99, 235)"/><text x="1294.81" y="994.32" fill="rgb(255, 255, 255)" font-family="-apple-system" font-size="14" font-weight="700">Save</text><text x="1328.86" y="994.32" fill="rgb(255, 255, 255)" font-family="-apple-system" font-size="14" font-weight="700">Changes</text></svg>