<svg xmlns="http://www.w3.org/2000/svg" width="1440" height="1024" viewBox="0 0 1440 1024"><title>Dashgo editable source-verified frame</title><rect x="0" y="0" width="1440" height="1024" rx="0" fill="rgb(15, 23, 42)"/><rect x="0" y="0" width="1440" height="1024" rx="0" fill="rgb(17, 24, 39)"/><rect x="0" y="0" width="256" height="1024" rx="0" fill="rgb(15, 23, 42)" stroke="rgb(51, 65, 85)" stroke-width="1"/><rect x="32" y="24" width="40" height="40" rx="12" fill="rgb(30, 41, 59)" stroke="rgb(51, 65, 85)" stroke-width="1"/><svg fill="none" viewBox="0 0 24 24" stroke="currentColor" x="40" y="32" width="24" height="24" color="rgb(96, 165, 250)" style="color:rgb(96, 165, 250);overflow:visible" xmlns="http://www.w3.org/2000/svg"><path stroke-linecap="round" stroke-linejoin="round" stroke-width="2" d="M19 11H5m14 0a2 2 0 012 2v6a2 2 0 01-2 2H5a2 2 0 01-2-2v-6a2 2 0 012-2m14 0V9a2 2 0 00-2-2M5 11V9a2 2 0 002-2m0 0V5a2 2 0 012-2h6a2 2 0 012 2v2M7 7h10"></path></svg><text x="84" y="49.6" fill="rgb(241, 245, 249)" font-family="-apple-system" font-size="20" font-weight="700" letter-spacing="-0.5">Dashgo</text><rect x="24" y="96" width="207" height="50" rx="8" fill="rgba(30, 41, 59, 0.08)" stroke="rgba(222, 224, 229, 0.96)" stroke-width="1"/><svg fill="none" viewBox="0 0 24 24" stroke="currentColor" stroke-width="2" x="41" y="111" width="20" height="20" color="rgb(155, 169, 189)" style="color:rgb(155, 169, 189);overflow:visible" xmlns="http://www.w3.org/2000/svg"><path stroke-linecap="round" stroke-linejoin="round" d="M4 6a2 2 0 012-2h2a2 2 0 012 2v2a2 2 0 01-2 2H6a2 2 0 01-2-2V6zM14 6a2 2 0 012-2h2a2 2 0 012 2v2a2 2 0 01-2 2h-2a2 2 0 01-2-2V6zM4 16a2 2 0 012-2h2a2 2 0 012 2v2a2 2 0 01-2 2H6a2 2 0 01-2-2v-2zM14 16a2 2 0 012-2h2a2 2 0 012 2v2a2 2 0 01-2 2h-2a2 2 0 01-2-2v-2z"></path></svg><text x="73" y="125.08" fill="rgb(155, 169, 189)" font-family="-apple-system" font-size="16" font-weight="500">Dashboard</text><rect x="24" y="150" width="207" height="50" rx="8" fill="rgba(30, 41, 59, 0.92)" stroke="rgba(77, 89, 107, 0.54)" stroke-width="1"/><svg fill="none" viewBox="0 0 24 24" stroke="currentColor" stroke-width="2" x="41" y="165" width="20" height="20" color="rgb(74, 222, 128)" style="color:rgb(74, 222, 128);overflow:visible" xmlns="http://www.w3.org/2000/svg"><path stroke-linecap="round" stroke-linejoin="round" d="M21 12a9 9 0 01-9 9m9-9a9 9 0 00-9-9m9 9H3m9 9a9 9 0 01-9-9m9 9c1.657 0 3-4.03 3-9s-1.343-9-3-9m0 18c-1.657 0-3-4.03-3-9s1.343-9 3-9m-9 9a9 9 0 019-9"></path></svg><text x="73" y="179.08" fill="rgb(234, 239, 244)" font-family="-apple-system" font-size="16" font-weight="500">Tailnet</text><svg fill="none" viewBox="0 0 24 24" stroke="currentColor" stroke-width="2" x="40" y="218" width="20" height="20" color="rgb(148, 163, 184)" style="color:rgb(148, 163, 184);overflow:visible" xmlns="http://www.w3.org/2000/svg"><path stroke-linecap="round" stroke-linejoin="round" d="M10.325 4.317c.426-1.756 2.924-1.756 3.35 0a1.724 1.724 0 002.573 1.066c1.543-.94 3.31.826 2.37 2.37a1.724 1.724 0 001.065 2.572c1.756.426 1.756 2.924 0 3.35a1.724 1.724 0 00-1.066 2.573c.94 1.543-.826 3.31-2.37 2.37a1.724 1.724 0 00-2.572 1.065c-.426 1.756-2.924 1.756-3.35 0a1.724 1.724 0 00-2.573-1.066c-1.543.94-3.31-.826-2.37-2.37a1.724 1.724 0 00-1.065-2.572c-1.756-.426-1.756-2.924 0-3.35a1.724 1.724 0 001.066-2.573c-.94-1.543.826-3.31 2.37-2.37.996.608 2.296.07 2.572-1.065z"></path><path stroke-linecap="round" stroke-linejoin="round" d="M15 12a3 3 0 11-6 0 3 3 0 016 0z"></path></svg><text x="72" y="232.08" fill="rgb(148, 163, 184)" font-family="-apple-system" font-size="16" font-weight="500">Settings</text><rect x="24" y="881" width="207" height="119" rx="0" fill="none" stroke="rgb(30, 41, 59)" stroke-width="1"/><text x="32" y="917.56" fill="rgb(100, 116, 139)" font-family="-apple-system" font-size="12" font-weight="500" letter-spacing="0.6">Docker</text><text x="84.98" y="917.56" fill="rgb(100, 116, 139)" font-family="-apple-system" font-size="12" font-weight="500" letter-spacing="0.6">Socket</text><rect x="32" y="926" width="191" height="26" rx="4" fill="rgba(30, 41, 59, 0.5)" stroke="rgb(30, 41, 59)" stroke-width="1"/><text x="41" y="942.56" fill="rgb(148, 163, 184)" font-family="ui-monospace" font-size="12" font-weight="400">/var/run/docker.sock</text><svg fill="none" viewBox="0 0 24 24" stroke-width="1.5" stroke="currentColor" x="44" y="976" width="16" height="16" color="rgb(100, 116, 139)" style="color:rgb(100, 116, 139);overflow:visible" xmlns="http://www.w3.org/2000/svg"><path stroke-linecap="round" stroke-linejoin="round" d="M15.75 9V5.25A2.25 2.25 0 0013.5 3h-6a2.25 2.25 0 00-2.25 2.25v13.5A2.25 2.25 0 007.5 21h6a2.25 2.25 0 002.25-2.25V15m3 0l3-3m0 0l-3-3m3 3H9"></path></svg><text x="68" y="987.56" fill="rgb(100, 116, 139)" font-family="-apple-system" font-size="12" font-weight="400">Sign</text><text x="94.38" y="987.56" fill="rgb(100, 116, 139)" font-family="-apple-system" font-size="12" font-weight="400">Out</text><rect x="256" y="0" width="1184" height="1024" rx="0" fill="rgb(15, 23, 42)"/><rect x="288" y="32" width="1120" height="374" rx="12" fill="rgb(31, 41, 55)" stroke="rgba(55, 65, 81, 0.5)" stroke-width="1" opacity="0.98"/><rect x="289" y="33" width="320" height="372" rx="0" fill="none" stroke="rgba(55, 65, 81, 0.5)" stroke-width="1"/><rect x="313" y="59" width="40" height="40" rx="6" fill="rgb(55, 65, 81)"/><rect x="365" y="57" width="164.25" height="20" rx="4" fill="rgb(55, 65, 81)"/><rect x="365" y="85" width="54.75" height="16" rx="4" fill="rgb(55, 65, 81)"/><rect x="313" y="133" width="67.75" height="12" rx="4" fill="rgb(55, 65, 81)"/><rect x="313" y="153" width="271" height="16" rx="4" fill="rgb(55, 65, 81)"/><rect x="313" y="185" width="67.75" height="12" rx="4" fill="rgb(55, 65, 81)"/><rect x="313" y="205" width="271" height="16" rx="4" fill="rgb(55, 65, 81)"/><rect x="633" y="57" width="128" height="20" rx="4" fill="rgb(55, 65, 81)"/><rect x="1319" y="57" width="64" height="20" rx="4" fill="rgb(55, 65, 81)"/><rect x="633" y="101" width="750" height="64" rx="4" fill="rgba(55, 65, 81, 0.5)"/><rect x="649" y="127" width="12" height="12" rx="9999" fill="rgb(55, 65, 81)"/><rect x="673" y="115" width="216.66" height="16" rx="4" fill="rgb(55, 65, 81)"/><rect x="673" y="139" width="325" height="12" rx="4" fill="rgb(55, 65, 81)"/><rect x="1335" y="117" width="32" height="32" rx="4" fill="rgb(55, 65, 81)"/><rect x="633" y="173" width="750" height="64" rx="4" fill="rgba(55, 65, 81, 0.5)"/><rect x="649" y="199" width="12" height="12" rx="9999" fill="rgb(55, 65, 81)"/><rect x="673" y="187" width="216.66" height="16" rx="4" fill="rgb(55, 65, 81)"/><rect x="673" y="211" width="325" height="12" rx="4" fill="rgb(55, 65, 81)"/><rect x="1335" y="189" width="32" height="32" rx="4" fill="rgb(55, 65, 81)"/><rect x="633" y="245" width="750" height="64" rx="4" fill="rgba(55, 65, 81, 0.5)"/><rect x="649" y="271" width="12" height="12" rx="9999" fill="rgb(55, 65, 81)"/><rect x="673" y="259" width="216.66" height="16" rx="4" fill="rgb(55, 65, 81)"/><rect x="673" y="283" width="325" height="12" rx="4" fill="rgb(55, 65, 81)"/><rect x="1335" y="261" width="32" height="32" rx="4" fill="rgb(55, 65, 81)"/><rect x="633" y="317" width="750" height="64" rx="4" fill="rgba(55, 65, 81, 0.5)"/><rect x="649" y="343" width="12" height="12" rx="9999" fill="rgb(55, 65, 81)"/><rect x="673" y="331" width="216.66" height="16" rx="4" fill="rgb(55, 65, 81)"/><rect x="673" y="355" width="325" height="12" rx="4" fill="rgb(55, 65, 81)"/><rect x="1335" y="333" width="32" height="32" rx="4" fill="rgb(55, 65, 81)"/></svg>