<svg xmlns="http://www.w3.org/2000/svg" width="1440" height="1024" viewBox="0 0 1440 1024"><title>Dashgo editable source-verified frame</title><rect x="0" y="0" width="1440" height="1024" rx="0" fill="rgb(15, 23, 42)"/><rect x="0" y="0" width="1440" height="1024" rx="0" fill="rgb(17, 24, 39)"/><rect x="0" y="0" width="256" height="1024" rx="0" fill="rgb(15, 23, 42)" stroke="rgb(51, 65, 85)" stroke-width="1"/><rect x="32" y="24" width="40" height="40" rx="12" fill="rgb(30, 41, 59)" stroke="rgb(51, 65, 85)" stroke-width="1"/><svg fill="none" viewBox="0 0 24 24" stroke="currentColor" x="40" y="32" width="24" height="24" color="rgb(96, 165, 250)" style="color:rgb(96, 165, 250);overflow:visible" xmlns="http://www.w3.org/2000/svg"><path stroke-linecap="round" stroke-linejoin="round" stroke-width="2" d="M19 11H5m14 0a2 2 0 012 2v6a2 2 0 01-2 2H5a2 2 0 01-2-2v-6a2 2 0 012-2m14 0V9a2 2 0 00-2-2M5 11V9a2 2 0 002-2m0 0V5a2 2 0 012-2h6a2 2 0 012 2v2M7 7h10"></path></svg><text x="84" y="49.6" fill="rgb(241, 245, 249)" font-family="-apple-system" font-size="20" font-weight="700" letter-spacing="-0.5">Dashgo</text><rect x="24" y="96" width="207" height="50" rx="8" fill="rgba(30, 41, 59, 0.08)" stroke="rgba(222, 224, 229, 0.96)" stroke-width="1"/><svg fill="none" viewBox="0 0 24 24" stroke="currentColor" stroke-width="2" x="41" y="111" width="20" height="20" color="rgb(155, 169, 189)" style="color:rgb(155, 169, 189);overflow:visible" xmlns="http://www.w3.org/2000/svg"><path stroke-linecap="round" stroke-linejoin="round" d="M4 6a2 2 0 012-2h2a2 2 0 012 2v2a2 2 0 01-2 2H6a2 2 0 01-2-2V6zM14 6a2 2 0 012-2h2a2 2 0 012 2v2a2 2 0 01-2 2h-2a2 2 0 01-2-2V6zM4 16a2 2 0 012-2h2a2 2 0 012 2v2a2 2 0 01-2 2H6a2 2 0 01-2-2v-2zM14 16a2 2 0 012-2h2a2 2 0 012 2v2a2 2 0 01-2 2h-2a2 2 0 01-2-2v-2z"></path></svg><text x="73" y="125.08" fill="rgb(155, 169, 189)" font-family="-apple-system" font-size="16" font-weight="500">Dashboard</text><rect x="24" y="150" width="207" height="50" rx="8" fill="rgba(30, 41, 59, 0.92)" stroke="rgba(77, 89, 107, 0.54)" stroke-width="1"/><svg fill="none" viewBox="0 0 24 24" stroke="currentColor" stroke-width="2" x="41" y="165" width="20" height="20" color="rgb(74, 222, 128)" style="color:rgb(74, 222, 128);overflow:visible" xmlns="http://www.w3.org/2000/svg"><path stroke-linecap="round" stroke-linejoin="round" d="M21 12a9 9 0 01-9 9m9-9a9 9 0 00-9-9m9 9H3m9 9a9 9 0 01-9-9m9 9c1.657 0 3-4.03 3-9s-1.343-9-3-9m0 18c-1.657 0-3-4.03-3-9s1.343-9 3-9m-9 9a9 9 0 019-9"></path></svg><text x="73" y="179.08" fill="rgb(234, 239, 244)" font-family="-apple-system" font-size="16" font-weight="500">Tailnet</text><svg fill="none" viewBox="0 0 24 24" stroke="currentColor" stroke-width="2" x="40" y="218" width="20" height="20" color="rgb(148, 163, 184)" style="color:rgb(148, 163, 184);overflow:visible" xmlns="http://www.w3.org/2000/svg"><path stroke-linecap="round" stroke-linejoin="round" d="M10.325 4.317c.426-1.756 2.924-1.756 3.35 0a1.724 1.724 0 002.573 1.066c1.543-.94 3.31.826 2.37 2.37a1.724 1.724 0 001.065 2.572c1.756.426 1.756 2.924 0 3.35a1.724 1.724 0 00-1.066 2.573c.94 1.543-.826 3.31-2.37 2.37a1.724 1.724 0 00-2.572 1.065c-.426 1.756-2.924 1.756-3.35 0a1.724 1.724 0 00-2.573-1.066c-1.543.94-3.31-.826-2.37-2.37a1.724 1.724 0 00-1.065-2.572c-1.756-.426-1.756-2.924 0-3.35a1.724 1.724 0 001.066-2.573c-.94-1.543.826-3.31 2.37-2.37.996.608 2.296.07 2.572-1.065z"></path><path stroke-linecap="round" stroke-linejoin="round" d="M15 12a3 3 0 11-6 0 3 3 0 016 0z"></path></svg><text x="72" y="232.08" fill="rgb(148, 163, 184)" font-family="-apple-system" font-size="16" font-weight="500">Settings</text><rect x="24" y="881" width="207" height="119" rx="0" fill="none" stroke="rgb(30, 41, 59)" stroke-width="1"/><text x="32" y="917.56" fill="rgb(100, 116, 139)" font-family="-apple-system" font-size="12" font-weight="500" letter-spacing="0.6">Docker</text><text x="84.98" y="917.56" fill="rgb(100, 116, 139)" font-family="-apple-system" font-size="12" font-weight="500" letter-spacing="0.6">Socket</text><rect x="32" y="926" width="191" height="26" rx="4" fill="rgba(30, 41, 59, 0.5)" stroke="rgb(30, 41, 59)" stroke-width="1"/><text x="41" y="942.56" fill="rgb(148, 163, 184)" font-family="ui-monospace" font-size="12" font-weight="400">/var/run/docker.sock</text><svg fill="none" viewBox="0 0 24 24" stroke-width="1.5" stroke="currentColor" x="44" y="976" width="16" height="16" color="rgb(100, 116, 139)" style="color:rgb(100, 116, 139);overflow:visible" xmlns="http://www.w3.org/2000/svg"><path stroke-linecap="round" stroke-linejoin="round" d="M15.75 9V5.25A2.25 2.25 0 0013.5 3h-6a2.25 2.25 0 00-2.25 2.25v13.5A2.25 2.25 0 007.5 21h6a2.25 2.25 0 002.25-2.25V15m3 0l3-3m0 0l-3-3m3 3H9"></path></svg><text x="68" y="987.56" fill="rgb(100, 116, 139)" font-family="-apple-system" font-size="12" font-weight="400">Sign</text><text x="94.38" y="987.56" fill="rgb(100, 116, 139)" font-family="-apple-system" font-size="12" font-weight="400">Out</text><rect x="256" y="0" width="1184" height="1024" rx="0" fill="rgb(15, 23, 42)"/><rect x="288" y="32" width="167.91" height="38" rx="12" fill="rgba(34, 197, 94, 0.1)" stroke="rgba(34, 197, 94, 0.2)" stroke-width="1"/><rect x="305" y="46" width="10" height="10" rx="9999" fill="rgb(74, 222, 128)"/><text x="325" y="55.32" fill="rgb(74, 222, 128)" font-family="-apple-system" font-size="14" font-weight="600">Tailnet</text><text x="371.06" y="55.32" fill="rgb(74, 222, 128)" font-family="-apple-system" font-size="14" font-weight="600">Connected</text><rect x="471.91" y="38" width="86.81" height="26" rx="8" fill="rgb(30, 41, 59)" stroke="rgba(51, 65, 85, 0.5)" stroke-width="1"/><text x="482.91" y="54.56" fill="rgb(148, 163, 184)" font-family="ui-monospace" font-size="12" font-weight="400">5</text><text x="497.3" y="54.56" fill="rgb(148, 163, 184)" font-family="ui-monospace" font-size="12" font-weight="400">devices</text><rect x="570.72" y="38" width="79.63" height="26" rx="8" fill="rgb(30, 41, 59)" stroke="rgba(51, 65, 85, 0.5)" stroke-width="1"/><text x="581.72" y="54.56" fill="rgb(148, 163, 184)" font-family="ui-monospace" font-size="12" font-weight="400">4</text><text x="596.11" y="54.56" fill="rgb(148, 163, 184)" font-family="ui-monospace" font-size="12" font-weight="400">online</text><rect x="662.34" y="38" width="101.22" height="26" rx="8" fill="rgb(30, 41, 59)" stroke="rgba(51, 65, 85, 0.5)" stroke-width="1"/><text x="673.34" y="54.56" fill="rgb(148, 163, 184)" font-family="ui-monospace" font-size="12" font-weight="400">6</text><text x="687.73" y="54.56" fill="rgb(148, 163, 184)" font-family="ui-monospace" font-size="12" font-weight="400">published</text><text x="775.56" y="54.56" fill="rgb(100, 116, 139)" font-family="-apple-system" font-size="12" font-weight="400">synced</text><text x="816.45" y="54.56" fill="rgb(100, 116, 139)" font-family="-apple-system" font-size="12" font-weight="400">0</text><text x="823.2" y="54.56" fill="rgb(100, 116, 139)" font-family="-apple-system" font-size="12" font-weight="400">s</text><text x="832.36" y="54.56" fill="rgb(100, 116, 139)" font-family="-apple-system" font-size="12" font-weight="400">ago</text><rect x="1140" y="32" width="106.53" height="38" rx="8" fill="rgb(30, 41, 59)" stroke="rgba(51, 65, 85, 0.5)" stroke-width="1"/><svg fill="none" viewBox="0 0 24 24" stroke-width="1.5" stroke="currentColor" x="1157" y="43" width="16" height="16" color="rgb(226, 232, 240)" style="color:rgb(226, 232, 240);overflow:visible" xmlns="http://www.w3.org/2000/svg"><path stroke-linecap="round" stroke-linejoin="round" d="M16.023 9.348h4.992v-.001M2.985 19.644v-4.992m0 0h4.992m-4.993 0l3.181 3.183a8.25 8.25 0 0013.803-3.7M4.031 9.865a8.25 8.25 0 0113.803-3.7l3.181 3.182"></path></svg><text x="1181" y="55.32" fill="rgb(226, 232, 240)" font-family="-apple-system" font-size="14" font-weight="500">Refresh</text><rect x="1254.53" y="32" width="153.47" height="38" rx="8" fill="rgb(30, 41, 59)" stroke="rgba(51, 65, 85, 0.5)" stroke-width="1"/><svg fill="none" viewBox="0 0 24 24" stroke-width="1.5" stroke="currentColor" x="1271.53" y="43" width="16" height="16" color="rgb(226, 232, 240)" style="color:rgb(226, 232, 240);overflow:visible" xmlns="http://www.w3.org/2000/svg"><path stroke-linecap="round" stroke-linejoin="round" d="M13.5 6H5.25A2.25 2.25 0 003 8.25v10.5A2.25 2.25 0 005.25 21h10.5A2.25 2.25 0 0018 18.75V10.5m-10.5 6L21 3m0 0h-5.25M21 3v5.25"></path></svg><text x="1295.53" y="55.32" fill="rgb(226, 232, 240)" font-family="-apple-system" font-size="14" font-weight="500">Admin</text><text x="1339.8" y="55.32" fill="rgb(226, 232, 240)" font-family="-apple-system" font-size="14" font-weight="500">Console</text><rect x="288" y="102" width="262" height="328" rx="12" fill="rgba(30, 41, 59, 0.6)" stroke="rgba(51, 65, 85, 0.4)" stroke-width="1"/><rect x="309" y="127" width="12" height="12" rx="9999" fill="rgb(74, 222, 128)"/><text x="329" y="137.32" fill="rgb(226, 232, 240)" font-family="-apple-system" font-size="14" font-weight="700" letter-spacing="0.7">This</text><text x="367.23" y="137.32" fill="rgb(226, 232, 240)" font-family="-apple-system" font-size="14" font-weight="700" letter-spacing="0.7">Device</text><text x="309" y="177.84" fill="rgb(241, 245, 249)" font-family="-apple-system" font-size="18" font-weight="700" letter-spacing="-0.45">orange-pi-5</text><rect x="309" y="191" width="53" height="21" rx="6" fill="rgba(34, 197, 94, 0.1)" stroke="rgba(34, 197, 94, 0.2)" stroke-width="1"/><text x="318" y="204.8" fill="rgb(74, 222, 128)" font-family="-apple-system" font-size="10" font-weight="700">Online</text><text x="309" y="239.56" fill="rgb(100, 116, 139)" font-family="-apple-system" font-size="12" font-weight="600" letter-spacing="0.6">Tailscale</text><text x="379.34" y="239.56" fill="rgb(100, 116, 139)" font-family="-apple-system" font-size="12" font-weight="600" letter-spacing="0.6">IP</text><rect x="309" y="248" width="220" height="34" rx="8" fill="rgba(15, 23, 42, 0.5)" stroke="rgba(51, 65, 85, 0.5)" stroke-width="1"/><text x="322" y="268.56" fill="rgb(203, 213, 225)" font-family="ui-monospace" font-size="12" font-weight="400">100.76.12.44</text><svg fill="none" viewBox="0 0 24 24" stroke-width="1.5" stroke="currentColor" x="502" y="258" width="14" height="14" color="rgb(100, 116, 139)" style="color:rgb(100, 116, 139);overflow:visible" xmlns="http://www.w3.org/2000/svg"><path stroke-linecap="round" stroke-linejoin="round" d="M15.666 3.888A2.25 2.25 0 0013.5 2.25h-3c-1.03 0-1.9.693-2.166 1.638m7.332 0c.055.194.084.4.084.612v0a.75.75 0 01-.75.75H9.75a.75.75 0 01-.75-.75v0c0-.212.03-.418.084-.612m7.332 0c.646.049 1.288.11 1.927.184 1.1.128 1.907 1.077 1.907 2.185V19.5a2.25 2.25 0 01-2.25 2.25H6.75A2.25 2.25 0 014.5 19.5V6.257c0-1.108.806-2.057 1.907-2.185a48.208 48.208 0 011.927-.184"></path></svg><text x="309" y="305.56" fill="rgb(100, 116, 139)" font-family="-apple-system" font-size="12" font-weight="600" letter-spacing="0.6">MagicDNS</text><rect x="309" y="314" width="220" height="34" rx="8" fill="rgba(15, 23, 42, 0.5)" stroke="rgba(51, 65, 85, 0.5)" stroke-width="1"/><text x="322" y="334.68" fill="rgb(203, 213, 225)" font-family="ui-monospace" font-size="11" font-weight="400">orange-pi-5.tailnet.ts.net</text><svg fill="none" viewBox="0 0 24 24" stroke-width="1.5" stroke="currentColor" x="502" y="324" width="14" height="14" color="rgb(100, 116, 139)" style="color:rgb(100, 116, 139);overflow:visible" xmlns="http://www.w3.org/2000/svg"><path stroke-linecap="round" stroke-linejoin="round" d="M15.666 3.888A2.25 2.25 0 0013.5 2.25h-3c-1.03 0-1.9.693-2.166 1.638m7.332 0c.055.194.084.4.084.612v0a.75.75 0 01-.75.75H9.75a.75.75 0 01-.75-.75v0c0-.212.03-.418.084-.612m7.332 0c.646.049 1.288.11 1.927.184 1.1.128 1.907 1.077 1.907 2.185V19.5a2.25 2.25 0 01-2.25 2.25H6.75A2.25 2.25 0 014.5 19.5V6.257c0-1.108.806-2.057 1.907-2.185a48.208 48.208 0 011.927-.184"></path></svg><rect x="309" y="360" width="220" height="49" rx="0" fill="none" stroke="rgba(51, 65, 85, 0.4)" stroke-width="1"/><text x="309" y="380.56" fill="rgb(100, 116, 139)" font-family="-apple-system" font-size="12" font-weight="400">OS</text><svg viewBox="0 0 24 24" x="481.97" y="369" width="16" height="16" color="rgb(203, 213, 225)" style="color:rgb(203, 213, 225);overflow:visible" xmlns="http://www.w3.org/2000/svg"><path fill="#0F172A" stroke="#CBD5E1" stroke-width=".8" d="M12 2.4c-2.95 0-4.43 2.55-4.43 6.04 0 1.08-.39 2.13-1.11 3.2C5.17 13.52 4 15.72 4 17.76c0 1.39.79 2.27 2.02 2.27.91 0 1.79-.45 2.5-1.18.9.99 2.04 1.51 3.48 1.51s2.58-.52 3.48-1.51c.71.73 1.59 1.18 2.5 1.18 1.23 0 2.02-.88 2.02-2.27 0-2.04-1.17-4.24-2.46-6.12-.72-1.07-1.11-2.12-1.11-3.2C16.43 4.95 14.95 2.4 12 2.4Z"></path><ellipse cx="12" cy="14.2" rx="3.55" ry="4.45" fill="#F8FAFC"></ellipse><ellipse cx="10.45" cy="7.58" rx="1.22" ry="1.52" fill="#F8FAFC"></ellipse><ellipse cx="13.55" cy="7.58" rx="1.22" ry="1.52" fill="#F8FAFC"></ellipse><circle cx="10.75" cy="7.75" r=".45" fill="#0F172A"></circle><circle cx="13.25" cy="7.75" r=".45" fill="#0F172A"></circle><path fill="#FACC15" d="m12 8.45 1.72 1.02L12 10.6l-1.72-1.13L12 8.45Zm-4.16 9.94c-.63.96-1.46 1.48-2.27 1.33-.61-.11-.76-.58-.24-.94.71-.49 1.49-.83 2.51-1.05v.66Zm8.32 0c.63.96 1.46 1.48 2.27 1.33.61-.11.76-.58.24-.94-.71-.49-1.49-.83-2.51-1.05v.66Z"></path></svg><text x="503.97" y="380.56" fill="rgb(203, 213, 225)" font-family="-apple-system" font-size="12" font-weight="400">linux</text><text x="309" y="404.56" fill="rgb(100, 116, 139)" font-family="-apple-system" font-size="12" font-weight="400">Connection</text><text x="497.67" y="404.56" fill="rgb(74, 222, 128)" font-family="-apple-system" font-size="12" font-weight="400">Direct</text><rect x="574" y="102" width="548" height="431" rx="12" fill="rgba(30, 41, 59, 0.6)" stroke="rgba(51, 65, 85, 0.4)" stroke-width="1"/><rect x="575" y="103" width="546" height="71" rx="0" fill="none" stroke="rgba(51, 65, 85, 0.4)" stroke-width="1"/><rect x="591" y="119" width="280" height="38" rx="8" fill="rgba(15, 23, 42, 0.5)" stroke="rgb(51, 65, 85)" stroke-width="1"/><text x="603" y="143.32" fill="rgb(241, 245, 249)" font-family="-apple-system" font-size="14" font-weight="400">Search by name or IP...</text><rect x="883" y="119" width="106" height="38" rx="8" fill="rgba(15, 23, 42, 0.5)" stroke="rgb(51, 65, 85)" stroke-width="1"/><text x="895" y="143.32" fill="rgb(241, 245, 249)" font-family="-apple-system" font-size="14" font-weight="400">All Status</text><path d="M 971 136 l 5 5 l 5 -5" fill="none" stroke="rgb(241, 245, 249)" stroke-width="1.4"/><rect x="1001" y="119" width="104" height="38" rx="8" fill="rgba(15, 23, 42, 0.5)" stroke="rgb(51, 65, 85)" stroke-width="1"/><text x="1013" y="143.32" fill="rgb(241, 245, 249)" font-family="-apple-system" font-size="14" font-weight="400">All OS</text><path d="M 1087 136 l 5 5 l 5 -5" fill="none" stroke="rgb(241, 245, 249)" stroke-width="1.4"/><rect x="575" y="174" width="561.7" height="54" rx="0" fill="rgba(15, 23, 42, 0.3)"/><text x="591" y="204.3" fill="rgb(100, 116, 139)" font-family="-apple-system" font-size="10" font-weight="600" letter-spacing="0.5">Device</text><text x="703.84" y="204.3" fill="rgb(100, 116, 139)" font-family="-apple-system" font-size="10" font-weight="600" letter-spacing="0.5">Status</text><text x="792.75" y="204.3" fill="rgb(100, 116, 139)" font-family="-apple-system" font-size="10" font-weight="600" letter-spacing="0.5">OS</text><text x="880.05" y="204.3" fill="rgb(100, 116, 139)" font-family="-apple-system" font-size="10" font-weight="600" letter-spacing="0.5">Tailscale</text><text x="938.67" y="204.3" fill="rgb(100, 116, 139)" font-family="-apple-system" font-size="10" font-weight="600" letter-spacing="0.5">IP</text><text x="1016.47" y="196.8" fill="rgb(100, 116, 139)" font-family="-apple-system" font-size="10" font-weight="600" letter-spacing="0.5">Last</text><text x="1016.47" y="211.8" fill="rgb(100, 116, 139)" font-family="-apple-system" font-size="10" font-weight="600" letter-spacing="0.5">Seen</text><text x="1074.94" y="204.3" fill="rgb(100, 116, 139)" font-family="-apple-system" font-size="10" font-weight="600" letter-spacing="0.5">Actions</text><rect x="591" y="255.5" width="8.19" height="10" rx="9999" fill="rgb(74, 222, 128)"/><text x="607.19" y="254.82" fill="rgb(226, 232, 240)" font-family="-apple-system" font-size="14" font-weight="500">macbook-air</text><rect x="703.84" y="251.5" width="53" height="21" rx="6" fill="rgba(34, 197, 94, 0.1)" stroke="rgba(34, 197, 94, 0.2)" stroke-width="1"/><text x="712.84" y="265.3" fill="rgb(74, 222, 128)" font-family="-apple-system" font-size="10" font-weight="700">Online</text><svg viewBox="0 0 24 24" fill="currentColor" x="792.75" y="240" width="16" height="16" color="rgb(226, 232, 240)" style="color:rgb(226, 232, 240);overflow:visible" xmlns="http://www.w3.org/2000/svg"><path d="M17.05 20.28c-.98.95-2.05.8-3.08.35-1.09-.46-2.09-.48-3.24 0-1.44.62-2.2.44-3.06-.35C2.79 15.25 3.51 7.59 9.05 7.31c1.33-.07 2.29.74 3.08.78 1.18-.24 2.31-.93 3.57-.84 1.51.12 2.65.72 3.4 1.8-3.12 1.87-2.38 5.98.48 7.13-.57 1.5-1.31 2.99-2.53 4.1ZM12.03 7.25C11.88 5.02 13.69 3.18 15.77 3c.29 2.58-2.34 4.5-3.74 4.25Z"></path></svg><text x="792.75" y="275.32" fill="rgb(148, 163, 184)" font-family="-apple-system" font-size="14" font-weight="400">macOS</text><rect x="880.05" y="248" width="97.22" height="26" rx="4" fill="rgba(15, 23, 42, 0.4)" stroke="rgba(51, 65, 85, 0.5)" stroke-width="1"/><text x="889.05" y="264.56" fill="rgb(203, 213, 225)" font-family="ui-monospace" font-size="12" font-weight="400">100.88.4.21</text><text x="1016.47" y="264.06" fill="rgb(100, 116, 139)" font-family="-apple-system" font-size="12" font-weight="400">Now</text><svg fill="none" viewBox="0 0 24 24" stroke-width="1.5" stroke="currentColor" x="1098.7" y="252" width="16" height="16" color="rgb(100, 116, 139)" style="color:rgb(100, 116, 139);overflow:visible" xmlns="http://www.w3.org/2000/svg"><path stroke-linecap="round" stroke-linejoin="round" d="M14.74 9l-.346 9m-4.788 0L9.26 9m9.968-3.21c.342.052.682.107 1.022.166m-1.022-.165L18.16 19.673a2.25 2.25 0 01-2.244 2.077H8.084a2.25 2.25 0 01-2.244-2.077L4.772 5.79m14.456 0a48.108 48.108 0 00-3.478-.397m-12 .562c.34-.059.68-.114 1.022-.165m0 0a48.11 48.11 0 013.478-.397m7.5 0v-.916c0-1.18-.91-2.164-2.09-2.201a51.964 51.964 0 00-3.32 0c-1.18.037-2.09 1.022-2.09 2.201v.916m7.5 0a48.667 48.667 0 00-7.5 0"></path></svg><rect x="575" y="293.5" width="561.7" height="65" rx="0" fill="none" stroke="rgba(51, 65, 85, 0.3)" stroke-width="1"/><rect x="591" y="321" width="7.36" height="10" rx="9999" fill="rgb(74, 222, 128)"/><text x="606.36" y="320.32" fill="rgb(226, 232, 240)" font-family="-apple-system" font-size="14" font-weight="500">iphone-camila</text><rect x="703.84" y="317" width="53" height="21" rx="6" fill="rgba(34, 197, 94, 0.1)" stroke="rgba(34, 197, 94, 0.2)" stroke-width="1"/><text x="712.84" y="330.8" fill="rgb(74, 222, 128)" font-family="-apple-system" font-size="10" font-weight="700">Online</text><svg viewBox="0 0 24 24" fill="currentColor" x="792.75" y="315.5" width="16" height="16" color="rgb(226, 232, 240)" style="color:rgb(226, 232, 240);overflow:visible" xmlns="http://www.w3.org/2000/svg"><path d="M17.05 20.28c-.98.95-2.05.8-3.08.35-1.09-.46-2.09-.48-3.24 0-1.44.62-2.2.44-3.06-.35C2.79 15.25 3.51 7.59 9.05 7.31c1.33-.07 2.29.74 3.08.78 1.18-.24 2.31-.93 3.57-.84 1.51.12 2.65.72 3.4 1.8-3.12 1.87-2.38 5.98.48 7.13-.57 1.5-1.31 2.99-2.53 4.1ZM12.03 7.25C11.88 5.02 13.69 3.18 15.77 3c.29 2.58-2.34 4.5-3.74 4.25Z"></path></svg><text x="812.75" y="330.82" fill="rgb(148, 163, 184)" font-family="-apple-system" font-size="14" font-weight="400">iOS</text><rect x="880.05" y="313.5" width="97.22" height="26" rx="4" fill="rgba(15, 23, 42, 0.4)" stroke="rgba(51, 65, 85, 0.5)" stroke-width="1"/><text x="889.05" y="330.06" fill="rgb(203, 213, 225)" font-family="ui-monospace" font-size="12" font-weight="400">100.91.2.12</text><text x="1016.47" y="329.56" fill="rgb(100, 116, 139)" font-family="-apple-system" font-size="12" font-weight="400">Now</text><svg fill="none" viewBox="0 0 24 24" stroke-width="1.5" stroke="currentColor" x="1098.7" y="317.5" width="16" height="16" color="rgb(100, 116, 139)" style="color:rgb(100, 116, 139);overflow:visible" xmlns="http://www.w3.org/2000/svg"><path stroke-linecap="round" stroke-linejoin="round" d="M14.74 9l-.346 9m-4.788 0L9.26 9m9.968-3.21c.342.052.682.107 1.022.166m-1.022-.165L18.16 19.673a2.25 2.25 0 01-2.244 2.077H8.084a2.25 2.25 0 01-2.244-2.077L4.772 5.79m14.456 0a48.108 48.108 0 00-3.478-.397m-12 .562c.34-.059.68-.114 1.022-.165m0 0a48.11 48.11 0 013.478-.397m7.5 0v-.916c0-1.18-.91-2.164-2.09-2.201a51.964 51.964 0 00-3.32 0c-1.18.037-2.09 1.022-2.09 2.201v.916m7.5 0a48.667 48.667 0 00-7.5 0"></path></svg><rect x="575" y="358.5" width="561.7" height="66" rx="0" fill="none" stroke="rgba(51, 65, 85, 0.3)" stroke-width="1"/><rect x="591" y="386.5" width="10" height="10" rx="9999" fill="rgb(71, 85, 105)"/><text x="609" y="395.82" fill="rgb(226, 232, 240)" font-family="-apple-system" font-size="14" font-weight="500">office-pc</text><rect x="703.84" y="382.5" width="56.91" height="21" rx="6" fill="rgba(51, 65, 85, 0.5)" stroke="rgba(71, 85, 105, 0.3)" stroke-width="1"/><text x="712.84" y="396.3" fill="rgb(100, 116, 139)" font-family="-apple-system" font-size="10" font-weight="700">Offline</text><svg viewBox="0 0 24 24" x="792.75" y="371" width="16" height="16" color="rgb(148, 163, 184)" style="color:rgb(148, 163, 184);overflow:visible" xmlns="http://www.w3.org/2000/svg"><path fill="#00A4EF" d="M2.5 4.8 10.9 3.6v7.8H2.5V4.8Zm9.4-1.4L21.5 2v9.4h-9.6v-8Zm-9.4 9h8.4v7.9l-8.4-1.2v-6.7Zm9.4 0h9.6V22l-9.6-1.4v-8.2Z"></path></svg><text x="792.75" y="406.32" fill="rgb(148, 163, 184)" font-family="-apple-system" font-size="14" font-weight="400">windows</text><rect x="880.05" y="379" width="104.42" height="26" rx="4" fill="rgba(15, 23, 42, 0.4)" stroke="rgba(51, 65, 85, 0.5)" stroke-width="1"/><text x="889.05" y="395.56" fill="rgb(203, 213, 225)" font-family="ui-monospace" font-size="12" font-weight="400">100.115.77.3</text><text x="1016.47" y="387.06" fill="rgb(100, 116, 139)" font-family="-apple-system" font-size="12" font-weight="400">1d</text><text x="1016.47" y="403.06" fill="rgb(100, 116, 139)" font-family="-apple-system" font-size="12" font-weight="400">ago</text><svg fill="none" viewBox="0 0 24 24" stroke-width="1.5" stroke="currentColor" x="1098.7" y="383" width="16" height="16" color="rgb(100, 116, 139)" style="color:rgb(100, 116, 139);overflow:visible" xmlns="http://www.w3.org/2000/svg"><path stroke-linecap="round" stroke-linejoin="round" d="M14.74 9l-.346 9m-4.788 0L9.26 9m9.968-3.21c.342.052.682.107 1.022.166m-1.022-.165L18.16 19.673a2.25 2.25 0 01-2.244 2.077H8.084a2.25 2.25 0 01-2.244-2.077L4.772 5.79m14.456 0a48.108 48.108 0 00-3.478-.397m-12 .562c.34-.059.68-.114 1.022-.165m0 0a48.11 48.11 0 013.478-.397m7.5 0v-.916c0-1.18-.91-2.164-2.09-2.201a51.964 51.964 0 00-3.32 0c-1.18.037-2.09 1.022-2.09 2.201v.916m7.5 0a48.667 48.667 0 00-7.5 0"></path></svg><rect x="575" y="424.5" width="561.7" height="54" rx="0" fill="none" stroke="rgba(51, 65, 85, 0.3)" stroke-width="1"/><rect x="591" y="446.5" width="10" height="10" rx="9999" fill="rgb(74, 222, 128)"/><text x="609" y="455.82" fill="rgb(226, 232, 240)" font-family="-apple-system" font-size="14" font-weight="500">nas-home</text><rect x="703.84" y="442.5" width="53" height="21" rx="6" fill="rgba(34, 197, 94, 0.1)" stroke="rgba(34, 197, 94, 0.2)" stroke-width="1"/><text x="712.84" y="456.3" fill="rgb(74, 222, 128)" font-family="-apple-system" font-size="10" font-weight="700">Online</text><svg viewBox="0 0 24 24" x="792.75" y="441" width="16" height="16" color="rgb(148, 163, 184)" style="color:rgb(148, 163, 184);overflow:visible" xmlns="http://www.w3.org/2000/svg"><path fill="#0F172A" stroke="#CBD5E1" stroke-width=".8" d="M12 2.4c-2.95 0-4.43 2.55-4.43 6.04 0 1.08-.39 2.13-1.11 3.2C5.17 13.52 4 15.72 4 17.76c0 1.39.79 2.27 2.02 2.27.91 0 1.79-.45 2.5-1.18.9.99 2.04 1.51 3.48 1.51s2.58-.52 3.48-1.51c.71.73 1.59 1.18 2.5 1.18 1.23 0 2.02-.88 2.02-2.27 0-2.04-1.17-4.24-2.46-6.12-.72-1.07-1.11-2.12-1.11-3.2C16.43 4.95 14.95 2.4 12 2.4Z"></path><ellipse cx="12" cy="14.2" rx="3.55" ry="4.45" fill="#F8FAFC"></ellipse><ellipse cx="10.45" cy="7.58" rx="1.22" ry="1.52" fill="#F8FAFC"></ellipse><ellipse cx="13.55" cy="7.58" rx="1.22" ry="1.52" fill="#F8FAFC"></ellipse><circle cx="10.75" cy="7.75" r=".45" fill="#0F172A"></circle><circle cx="13.25" cy="7.75" r=".45" fill="#0F172A"></circle><path fill="#FACC15" d="m12 8.45 1.72 1.02L12 10.6l-1.72-1.13L12 8.45Zm-4.16 9.94c-.63.96-1.46 1.48-2.27 1.33-.61-.11-.76-.58-.24-.94.71-.49 1.49-.83 2.51-1.05v.66Zm8.32 0c.63.96 1.46 1.48 2.27 1.33.61-.11.76-.58.24-.94-.71-.49-1.49-.83-2.51-1.05v.66Z"></path></svg><text x="812.75" y="456.32" fill="rgb(148, 163, 184)" font-family="-apple-system" font-size="14" font-weight="400">linux</text><rect x="880.05" y="439" width="97.22" height="26" rx="4" fill="rgba(15, 23, 42, 0.4)" stroke="rgba(51, 65, 85, 0.5)" stroke-width="1"/><text x="889.05" y="455.56" fill="rgb(203, 213, 225)" font-family="ui-monospace" font-size="12" font-weight="400">100.64.8.90</text><text x="1016.47" y="455.06" fill="rgb(100, 116, 139)" font-family="-apple-system" font-size="12" font-weight="400">Now</text><svg fill="none" viewBox="0 0 24 24" stroke-width="1.5" stroke="currentColor" x="1098.7" y="443" width="16" height="16" color="rgb(100, 116, 139)" style="color:rgb(100, 116, 139);overflow:visible" xmlns="http://www.w3.org/2000/svg"><path stroke-linecap="round" stroke-linejoin="round" d="M14.74 9l-.346 9m-4.788 0L9.26 9m9.968-3.21c.342.052.682.107 1.022.166m-1.022-.165L18.16 19.673a2.25 2.25 0 01-2.244 2.077H8.084a2.25 2.25 0 01-2.244-2.077L4.772 5.79m14.456 0a48.108 48.108 0 00-3.478-.397m-12 .562c.34-.059.68-.114 1.022-.165m0 0a48.11 48.11 0 013.478-.397m7.5 0v-.916c0-1.18-.91-2.164-2.09-2.201a51.964 51.964 0 00-3.32 0c-1.18.037-2.09 1.022-2.09 2.201v.916m7.5 0a48.667 48.667 0 00-7.5 0"></path></svg><rect x="575" y="478.5" width="561.7" height="53.5" rx="0" fill="none" stroke="rgba(51, 65, 85, 0.3)" stroke-width="1"/><rect x="591" y="500.5" width="10" height="10" rx="9999" fill="rgb(74, 222, 128)"/><text x="609" y="509.82" fill="rgb(226, 232, 240)" font-family="-apple-system" font-size="14" font-weight="500">ipad</text><rect x="703.84" y="496.5" width="53" height="21" rx="6" fill="rgba(34, 197, 94, 0.1)" stroke="rgba(34, 197, 94, 0.2)" stroke-width="1"/><text x="712.84" y="510.3" fill="rgb(74, 222, 128)" font-family="-apple-system" font-size="10" font-weight="700">Online</text><svg viewBox="0 0 24 24" fill="currentColor" x="792.75" y="495" width="16" height="16" color="rgb(226, 232, 240)" style="color:rgb(226, 232, 240);overflow:visible" xmlns="http://www.w3.org/2000/svg"><path d="M17.05 20.28c-.98.95-2.05.8-3.08.35-1.09-.46-2.09-.48-3.24 0-1.44.62-2.2.44-3.06-.35C2.79 15.25 3.51 7.59 9.05 7.31c1.33-.07 2.29.74 3.08.78 1.18-.24 2.31-.93 3.57-.84 1.51.12 2.65.72 3.4 1.8-3.12 1.87-2.38 5.98.48 7.13-.57 1.5-1.31 2.99-2.53 4.1ZM12.03 7.25C11.88 5.02 13.69 3.18 15.77 3c.29 2.58-2.34 4.5-3.74 4.25Z"></path></svg><text x="812.75" y="510.32" fill="rgb(148, 163, 184)" font-family="-apple-system" font-size="14" font-weight="400">iOS</text><rect x="880.05" y="493" width="97.22" height="26" rx="4" fill="rgba(15, 23, 42, 0.4)" stroke="rgba(51, 65, 85, 0.5)" stroke-width="1"/><text x="889.05" y="509.56" fill="rgb(203, 213, 225)" font-family="ui-monospace" font-size="12" font-weight="400">100.98.24.6</text><text x="1016.47" y="509.06" fill="rgb(100, 116, 139)" font-family="-apple-system" font-size="12" font-weight="400">Now</text><svg fill="none" viewBox="0 0 24 24" stroke-width="1.5" stroke="currentColor" x="1098.7" y="497" width="16" height="16" color="rgb(100, 116, 139)" style="color:rgb(100, 116, 139);overflow:visible" xmlns="http://www.w3.org/2000/svg"><path stroke-linecap="round" stroke-linejoin="round" d="M14.74 9l-.346 9m-4.788 0L9.26 9m9.968-3.21c.342.052.682.107 1.022.166m-1.022-.165L18.16 19.673a2.25 2.25 0 01-2.244 2.077H8.084a2.25 2.25 0 01-2.244-2.077L4.772 5.79m14.456 0a48.108 48.108 0 00-3.478-.397m-12 .562c.34-.059.68-.114 1.022-.165m0 0a48.11 48.11 0 013.478-.397m7.5 0v-.916c0-1.18-.91-2.164-2.09-2.201a51.964 51.964 0 00-3.32 0c-1.18.037-2.09 1.022-2.09 2.201v.916m7.5 0a48.667 48.667 0 00-7.5 0"></path></svg><rect x="1146" y="102" width="262" height="762" rx="12" fill="rgba(30, 41, 59, 0.6)" stroke="rgba(51, 65, 85, 0.4)" stroke-width="1"/><svg fill="none" viewBox="0 0 24 24" stroke-width="1.5" stroke="currentColor" x="1167" y="125" width="16" height="16" color="rgb(192, 132, 252)" style="color:rgb(192, 132, 252);overflow:visible" xmlns="http://www.w3.org/2000/svg"><path stroke-linecap="round" stroke-linejoin="round" d="M13.19 8.688a4.5 4.5 0 011.242 7.244l-4.5 4.5a4.5 4.5 0 01-6.364-6.364l1.757-1.757m13.35-.622l1.757-1.757a4.5 4.5 0 00-6.364-6.364l-4.5 4.5a4.5 4.5 0 001.242 7.244"></path></svg><text x="1191" y="137.32" fill="rgb(226, 232, 240)" font-family="-apple-system" font-size="14" font-weight="700" letter-spacing="0.7">Published</text><text x="1275.81" y="137.32" fill="rgb(226, 232, 240)" font-family="-apple-system" font-size="14" font-weight="700" letter-spacing="0.7">via</text><text x="1304.48" y="137.32" fill="rgb(226, 232, 240)" font-family="-apple-system" font-size="14" font-weight="700" letter-spacing="0.7">Tailnet</text><rect x="1167" y="159" width="220" height="103" rx="8" fill="rgba(15, 23, 42, 0.4)" stroke="rgba(51, 65, 85, 0.5)" stroke-width="1"/><text x="1180" y="186.32" fill="rgb(226, 232, 240)" font-family="-apple-system" font-size="14" font-weight="500">Home</text><text x="1221.11" y="186.32" fill="rgb(226, 232, 240)" font-family="-apple-system" font-size="14" font-weight="500">Assistant</text><rect x="1366" y="178" width="8" height="8" rx="9999" fill="rgb(74, 222, 128)"/><text x="1180" y="212.43" fill="rgb(148, 163, 184)" font-family="ui-monospace" font-size="11" font-weight="400">100.76.12.44</text><text x="1259.22" y="212.43" fill="rgb(148, 163, 184)" font-family="ui-monospace" font-size="11" font-weight="400">:</text><text x="1265.83" y="212.43" fill="rgb(148, 163, 184)" font-family="ui-monospace" font-size="11" font-weight="400">8123</text><svg fill="none" viewBox="0 0 24 24" stroke-width="1.5" stroke="currentColor" x="1328" y="202" width="14" height="14" color="rgb(96, 165, 250)" style="color:rgb(96, 165, 250);overflow:visible" xmlns="http://www.w3.org/2000/svg"><path stroke-linecap="round" stroke-linejoin="round" d="M13.5 6H5.25A2.25 2.25 0 003 8.25v10.5A2.25 2.25 0 005.25 21h10.5A2.25 2.25 0 0018 18.75V10.5m-10.5 6L21 3m0 0h-5.25M21 3v5.25"></path></svg><svg fill="none" viewBox="0 0 24 24" stroke-width="1.5" stroke="currentColor" x="1356" y="202" width="14" height="14" color="rgb(100, 116, 139)" style="color:rgb(100, 116, 139);overflow:visible" xmlns="http://www.w3.org/2000/svg"><path stroke-linecap="round" stroke-linejoin="round" d="M15.666 3.888A2.25 2.25 0 0013.5 2.25h-3c-1.03 0-1.9.693-2.166 1.638m7.332 0c.055.194.084.4.084.612v0a.75.75 0 01-.75.75H9.75a.75.75 0 01-.75-.75v0c0-.212.03-.418.084-.612m7.332 0c.646.049 1.288.11 1.927.184 1.1.128 1.907 1.077 1.907 2.185V19.5a2.25 2.25 0 01-2.25 2.25H6.75A2.25 2.25 0 014.5 19.5V6.257c0-1.108.806-2.057 1.907-2.185a48.208 48.208 0 011.927-.184"></path></svg><rect x="1180" y="228" width="82.91" height="21" rx="4" fill="rgb(30, 41, 59)" stroke="rgba(51, 65, 85, 0.5)" stroke-width="1"/><text x="1187" y="241.8" fill="rgb(100, 116, 139)" font-family="-apple-system" font-size="10" font-weight="400">home-assistant</text><rect x="1167" y="270" width="220" height="103" rx="8" fill="rgba(15, 23, 42, 0.4)" stroke="rgba(51, 65, 85, 0.5)" stroke-width="1"/><text x="1180" y="297.32" fill="rgb(226, 232, 240)" font-family="-apple-system" font-size="14" font-weight="500">grafana</text><rect x="1366" y="289" width="8" height="8" rx="9999" fill="rgb(74, 222, 128)"/><text x="1180" y="323.43" fill="rgb(148, 163, 184)" font-family="ui-monospace" font-size="11" font-weight="400">100.76.12.44</text><text x="1259.22" y="323.43" fill="rgb(148, 163, 184)" font-family="ui-monospace" font-size="11" font-weight="400">:</text><text x="1265.83" y="323.43" fill="rgb(148, 163, 184)" font-family="ui-monospace" font-size="11" font-weight="400">3000</text><svg fill="none" viewBox="0 0 24 24" stroke-width="1.5" stroke="currentColor" x="1328" y="313" width="14" height="14" color="rgb(96, 165, 250)" style="color:rgb(96, 165, 250);overflow:visible" xmlns="http://www.w3.org/2000/svg"><path stroke-linecap="round" stroke-linejoin="round" d="M13.5 6H5.25A2.25 2.25 0 003 8.25v10.5A2.25 2.25 0 005.25 21h10.5A2.25 2.25 0 0018 18.75V10.5m-10.5 6L21 3m0 0h-5.25M21 3v5.25"></path></svg><svg fill="none" viewBox="0 0 24 24" stroke-width="1.5" stroke="currentColor" x="1356" y="313" width="14" height="14" color="rgb(100, 116, 139)" style="color:rgb(100, 116, 139);overflow:visible" xmlns="http://www.w3.org/2000/svg"><path stroke-linecap="round" stroke-linejoin="round" d="M15.666 3.888A2.25 2.25 0 0013.5 2.25h-3c-1.03 0-1.9.693-2.166 1.638m7.332 0c.055.194.084.4.084.612v0a.75.75 0 01-.75.75H9.75a.75.75 0 01-.75-.75v0c0-.212.03-.418.084-.612m7.332 0c.646.049 1.288.11 1.927.184 1.1.128 1.907 1.077 1.907 2.185V19.5a2.25 2.25 0 01-2.25 2.25H6.75A2.25 2.25 0 014.5 19.5V6.257c0-1.108.806-2.057 1.907-2.185a48.208 48.208 0 011.927-.184"></path></svg><rect x="1180" y="339" width="48.14" height="21" rx="4" fill="rgb(30, 41, 59)" stroke="rgba(51, 65, 85, 0.5)" stroke-width="1"/><text x="1187" y="352.8" fill="rgb(100, 116, 139)" font-family="-apple-system" font-size="10" font-weight="400">grafana</text><rect x="1167" y="381" width="220" height="103" rx="8" fill="rgba(15, 23, 42, 0.4)" stroke="rgba(51, 65, 85, 0.5)" stroke-width="1"/><text x="1180" y="408.32" fill="rgb(226, 232, 240)" font-family="-apple-system" font-size="14" font-weight="500">Plex</text><text x="1210.58" y="408.32" fill="rgb(226, 232, 240)" font-family="-apple-system" font-size="14" font-weight="500">Media</text><rect x="1366" y="400" width="8" height="8" rx="9999" fill="rgb(74, 222, 128)"/><text x="1180" y="434.43" fill="rgb(148, 163, 184)" font-family="ui-monospace" font-size="11" font-weight="400">100.76.12.44</text><text x="1259.22" y="434.43" fill="rgb(148, 163, 184)" font-family="ui-monospace" font-size="11" font-weight="400">:</text><text x="1265.83" y="434.43" fill="rgb(148, 163, 184)" font-family="ui-monospace" font-size="11" font-weight="400">32400</text><svg fill="none" viewBox="0 0 24 24" stroke-width="1.5" stroke="currentColor" x="1328" y="424" width="14" height="14" color="rgb(96, 165, 250)" style="color:rgb(96, 165, 250);overflow:visible" xmlns="http://www.w3.org/2000/svg"><path stroke-linecap="round" stroke-linejoin="round" d="M13.5 6H5.25A2.25 2.25 0 003 8.25v10.5A2.25 2.25 0 005.25 21h10.5A2.25 2.25 0 0018 18.75V10.5m-10.5 6L21 3m0 0h-5.25M21 3v5.25"></path></svg><svg fill="none" viewBox="0 0 24 24" stroke-width="1.5" stroke="currentColor" x="1356" y="424" width="14" height="14" color="rgb(100, 116, 139)" style="color:rgb(100, 116, 139);overflow:visible" xmlns="http://www.w3.org/2000/svg"><path stroke-linecap="round" stroke-linejoin="round" d="M15.666 3.888A2.25 2.25 0 0013.5 2.25h-3c-1.03 0-1.9.693-2.166 1.638m7.332 0c.055.194.084.4.084.612v0a.75.75 0 01-.75.75H9.75a.75.75 0 01-.75-.75v0c0-.212.03-.418.084-.612m7.332 0c.646.049 1.288.11 1.927.184 1.1.128 1.907 1.077 1.907 2.185V19.5a2.25 2.25 0 01-2.25 2.25H6.75A2.25 2.25 0 014.5 19.5V6.257c0-1.108.806-2.057 1.907-2.185a48.208 48.208 0 011.927-.184"></path></svg><rect x="1180" y="450" width="32.31" height="21" rx="4" fill="rgb(30, 41, 59)" stroke="rgba(51, 65, 85, 0.5)" stroke-width="1"/><text x="1187" y="463.8" fill="rgb(100, 116, 139)" font-family="-apple-system" font-size="10" font-weight="400">plex</text><rect x="1167" y="492" width="220" height="129" rx="8" fill="rgba(15, 23, 42, 0.4)" stroke="rgba(51, 65, 85, 0.5)" stroke-width="1"/><text x="1180" y="519.32" fill="rgb(226, 232, 240)" font-family="-apple-system" font-size="14" font-weight="500">minio</text><rect x="1366" y="511" width="8" height="8" rx="9999" fill="rgb(100, 116, 139)"/><text x="1180" y="545.43" fill="rgb(148, 163, 184)" font-family="ui-monospace" font-size="11" font-weight="400">100.76.12.44</text><text x="1259.22" y="545.43" fill="rgb(148, 163, 184)" font-family="ui-monospace" font-size="11" font-weight="400">:</text><text x="1265.83" y="545.43" fill="rgb(148, 163, 184)" font-family="ui-monospace" font-size="11" font-weight="400">9000</text><svg fill="none" viewBox="0 0 24 24" stroke-width="1.5" stroke="currentColor" x="1328" y="535" width="14" height="14" color="rgb(96, 165, 250)" style="color:rgb(96, 165, 250);overflow:visible" xmlns="http://www.w3.org/2000/svg"><path stroke-linecap="round" stroke-linejoin="round" d="M13.5 6H5.25A2.25 2.25 0 003 8.25v10.5A2.25 2.25 0 005.25 21h10.5A2.25 2.25 0 0018 18.75V10.5m-10.5 6L21 3m0 0h-5.25M21 3v5.25"></path></svg><svg fill="none" viewBox="0 0 24 24" stroke-width="1.5" stroke="currentColor" x="1356" y="535" width="14" height="14" color="rgb(100, 116, 139)" style="color:rgb(100, 116, 139);overflow:visible" xmlns="http://www.w3.org/2000/svg"><path stroke-linecap="round" stroke-linejoin="round" d="M15.666 3.888A2.25 2.25 0 0013.5 2.25h-3c-1.03 0-1.9.693-2.166 1.638m7.332 0c.055.194.084.4.084.612v0a.75.75 0 01-.75.75H9.75a.75.75 0 01-.75-.75v0c0-.212.03-.418.084-.612m7.332 0c.646.049 1.288.11 1.927.184 1.1.128 1.907 1.077 1.907 2.185V19.5a2.25 2.25 0 01-2.25 2.25H6.75A2.25 2.25 0 014.5 19.5V6.257c0-1.108.806-2.057 1.907-2.185a48.208 48.208 0 011.927-.184"></path></svg><text x="1180" y="571.43" fill="rgb(148, 163, 184)" font-family="ui-monospace" font-size="11" font-weight="400">100.76.12.44</text><text x="1259.22" y="571.43" fill="rgb(148, 163, 184)" font-family="ui-monospace" font-size="11" font-weight="400">:</text><text x="1265.83" y="571.43" fill="rgb(148, 163, 184)" font-family="ui-monospace" font-size="11" font-weight="400">9001</text><svg fill="none" viewBox="0 0 24 24" stroke-width="1.5" stroke="currentColor" x="1328" y="561" width="14" height="14" color="rgb(96, 165, 250)" style="color:rgb(96, 165, 250);overflow:visible" xmlns="http://www.w3.org/2000/svg"><path stroke-linecap="round" stroke-linejoin="round" d="M13.5 6H5.25A2.25 2.25 0 003 8.25v10.5A2.25 2.25 0 005.25 21h10.5A2.25 2.25 0 0018 18.75V10.5m-10.5 6L21 3m0 0h-5.25M21 3v5.25"></path></svg><svg fill="none" viewBox="0 0 24 24" stroke-width="1.5" stroke="currentColor" x="1356" y="561" width="14" height="14" color="rgb(100, 116, 139)" style="color:rgb(100, 116, 139);overflow:visible" xmlns="http://www.w3.org/2000/svg"><path stroke-linecap="round" stroke-linejoin="round" d="M15.666 3.888A2.25 2.25 0 0013.5 2.25h-3c-1.03 0-1.9.693-2.166 1.638m7.332 0c.055.194.084.4.084.612v0a.75.75 0 01-.75.75H9.75a.75.75 0 01-.75-.75v0c0-.212.03-.418.084-.612m7.332 0c.646.049 1.288.11 1.927.184 1.1.128 1.907 1.077 1.907 2.185V19.5a2.25 2.25 0 01-2.25 2.25H6.75A2.25 2.25 0 014.5 19.5V6.257c0-1.108.806-2.057 1.907-2.185a48.208 48.208 0 011.927-.184"></path></svg><rect x="1180" y="587" width="38.86" height="21" rx="4" fill="rgb(30, 41, 59)" stroke="rgba(51, 65, 85, 0.5)" stroke-width="1"/><text x="1187" y="600.8" fill="rgb(100, 116, 139)" font-family="-apple-system" font-size="10" font-weight="400">minio</text><rect x="1167" y="629" width="220" height="103" rx="8" fill="rgba(15, 23, 42, 0.4)" stroke="rgba(51, 65, 85, 0.5)" stroke-width="1"/><text x="1180" y="656.32" fill="rgb(226, 232, 240)" font-family="-apple-system" font-size="14" font-weight="500">Paperless</text><rect x="1366" y="648" width="8" height="8" rx="9999" fill="rgb(248, 113, 113)"/><text x="1180" y="682.43" fill="rgb(148, 163, 184)" font-family="ui-monospace" font-size="11" font-weight="400">100.76.12.44</text><text x="1259.22" y="682.43" fill="rgb(148, 163, 184)" font-family="ui-monospace" font-size="11" font-weight="400">:</text><text x="1265.83" y="682.43" fill="rgb(148, 163, 184)" font-family="ui-monospace" font-size="11" font-weight="400">8000</text><svg fill="none" viewBox="0 0 24 24" stroke-width="1.5" stroke="currentColor" x="1328" y="672" width="14" height="14" color="rgb(96, 165, 250)" style="color:rgb(96, 165, 250);overflow:visible" xmlns="http://www.w3.org/2000/svg"><path stroke-linecap="round" stroke-linejoin="round" d="M13.5 6H5.25A2.25 2.25 0 003 8.25v10.5A2.25 2.25 0 005.25 21h10.5A2.25 2.25 0 0018 18.75V10.5m-10.5 6L21 3m0 0h-5.25M21 3v5.25"></path></svg><svg fill="none" viewBox="0 0 24 24" stroke-width="1.5" stroke="currentColor" x="1356" y="672" width="14" height="14" color="rgb(100, 116, 139)" style="color:rgb(100, 116, 139);overflow:visible" xmlns="http://www.w3.org/2000/svg"><path stroke-linecap="round" stroke-linejoin="round" d="M15.666 3.888A2.25 2.25 0 0013.5 2.25h-3c-1.03 0-1.9.693-2.166 1.638m7.332 0c.055.194.084.4.084.612v0a.75.75 0 01-.75.75H9.75a.75.75 0 01-.75-.75v0c0-.212.03-.418.084-.612m7.332 0c.646.049 1.288.11 1.927.184 1.1.128 1.907 1.077 1.907 2.185V19.5a2.25 2.25 0 01-2.25 2.25H6.75A2.25 2.25 0 014.5 19.5V6.257c0-1.108.806-2.057 1.907-2.185a48.208 48.208 0 011.927-.184"></path></svg><rect x="1180" y="698" width="76.28" height="21" rx="4" fill="rgb(30, 41, 59)" stroke="rgba(51, 65, 85, 0.5)" stroke-width="1"/><text x="1187" y="711.8" fill="rgb(100, 116, 139)" font-family="-apple-system" font-size="10" font-weight="400">paperless-ngx</text><rect x="1167" y="740" width="220" height="103" rx="8" fill="rgba(15, 23, 42, 0.4)" stroke="rgba(51, 65, 85, 0.5)" stroke-width="1"/><text x="1180" y="767.32" fill="rgb(226, 232, 240)" font-family="-apple-system" font-size="14" font-weight="500">Dashgo</text><rect x="1366" y="759" width="8" height="8" rx="9999" fill="rgb(74, 222, 128)"/><text x="1180" y="793.43" fill="rgb(148, 163, 184)" font-family="ui-monospace" font-size="11" font-weight="400">100.76.12.44</text><text x="1259.22" y="793.43" fill="rgb(148, 163, 184)" font-family="ui-monospace" font-size="11" font-weight="400">:</text><text x="1265.83" y="793.43" fill="rgb(148, 163, 184)" font-family="ui-monospace" font-size="11" font-weight="400">8080</text><svg fill="none" viewBox="0 0 24 24" stroke-width="1.5" stroke="currentColor" x="1328" y="783" width="14" height="14" color="rgb(96, 165, 250)" style="color:rgb(96, 165, 250);overflow:visible" xmlns="http://www.w3.org/2000/svg"><path stroke-linecap="round" stroke-linejoin="round" d="M13.5 6H5.25A2.25 2.25 0 003 8.25v10.5A2.25 2.25 0 005.25 21h10.5A2.25 2.25 0 0018 18.75V10.5m-10.5 6L21 3m0 0h-5.25M21 3v5.25"></path></svg><svg fill="none" viewBox="0 0 24 24" stroke-width="1.5" stroke="currentColor" x="1356" y="783" width="14" height="14" color="rgb(100, 116, 139)" style="color:rgb(100, 116, 139);overflow:visible" xmlns="http://www.w3.org/2000/svg"><path stroke-linecap="round" stroke-linejoin="round" d="M15.666 3.888A2.25 2.25 0 0013.5 2.25h-3c-1.03 0-1.9.693-2.166 1.638m7.332 0c.055.194.084.4.084.612v0a.75.75 0 01-.75.75H9.75a.75.75 0 01-.75-.75v0c0-.212.03-.418.084-.612m7.332 0c.646.049 1.288.11 1.927.184 1.1.128 1.907 1.077 1.907 2.185V19.5a2.25 2.25 0 01-2.25 2.25H6.75A2.25 2.25 0 014.5 19.5V6.257c0-1.108.806-2.057 1.907-2.185a48.208 48.208 0 011.927-.184"></path></svg><rect x="1180" y="809" width="47.08" height="21" rx="4" fill="rgb(30, 41, 59)" stroke="rgba(51, 65, 85, 0.5)" stroke-width="1"/><text x="1187" y="822.8" fill="rgb(100, 116, 139)" font-family="-apple-system" font-size="10" font-weight="400">dashgo</text></svg>