<svg xmlns="http://www.w3.org/2000/svg" width="1440" height="1024" viewBox="0 0 1440 1024"><title>Dashgo editable source-verified frame</title><rect x="0" y="0" width="1440" height="1024" rx="0" fill="rgb(15, 23, 42)"/><rect x="0" y="0" width="1440" height="1024" rx="0" fill="rgb(17, 24, 39)"/><rect x="0" y="0" width="256" height="1024" rx="0" fill="rgb(15, 23, 42)" stroke="rgb(51, 65, 85)" stroke-width="1"/><rect x="32" y="24" width="40" height="40" rx="12" fill="rgb(30, 41, 59)" stroke="rgb(51, 65, 85)" stroke-width="1"/><svg fill="none" viewBox="0 0 24 24" stroke="currentColor" x="40" y="32" width="24" height="24" color="rgb(96, 165, 250)" style="color:rgb(96, 165, 250);overflow:visible" xmlns="http://www.w3.org/2000/svg"><path stroke-linecap="round" stroke-linejoin="round" stroke-width="2" d="M19 11H5m14 0a2 2 0 012 2v6a2 2 0 01-2 2H5a2 2 0 01-2-2v-6a2 2 0 012-2m14 0V9a2 2 0 00-2-2M5 11V9a2 2 0 002-2m0 0V5a2 2 0 012-2h6a2 2 0 012 2v2M7 7h10"></path></svg><text x="84" y="49.6" fill="rgb(241, 245, 249)" font-family="-apple-system" font-size="20" font-weight="700" letter-spacing="-0.5">Dashgo</text><rect x="24" y="96" width="207" height="50" rx="8" fill="rgba(30, 41, 59, 0.224)" stroke="rgba(206, 210, 216, 0.886)" stroke-width="1"/><svg fill="none" viewBox="0 0 24 24" stroke="currentColor" stroke-width="2" x="41" y="111" width="20" height="20" color="rgb(169, 181, 199)" style="color:rgb(169, 181, 199);overflow:visible" xmlns="http://www.w3.org/2000/svg"><path stroke-linecap="round" stroke-linejoin="round" d="M4 6a2 2 0 012-2h2a2 2 0 012 2v2a2 2 0 01-2 2H6a2 2 0 01-2-2V6zM14 6a2 2 0 012-2h2a2 2 0 012 2v2a2 2 0 01-2 2h-2a2 2 0 01-2-2V6zM4 16a2 2 0 012-2h2a2 2 0 012 2v2a2 2 0 01-2 2H6a2 2 0 01-2-2v-2zM14 16a2 2 0 012-2h2a2 2 0 012 2v2a2 2 0 01-2 2h-2a2 2 0 01-2-2v-2z"></path></svg><text x="73" y="125.08" fill="rgb(169, 181, 199)" font-family="-apple-system" font-size="16" font-weight="500">Dashboard</text><rect x="24" y="150" width="207" height="50" rx="8" fill="rgba(30, 41, 59, 0.776)" stroke="rgba(116, 126, 140, 0.616)" stroke-width="1"/><svg fill="none" viewBox="0 0 24 24" stroke="currentColor" stroke-width="2" x="41" y="165" width="20" height="20" color="rgb(74, 222, 128)" style="color:rgb(74, 222, 128);overflow:visible" xmlns="http://www.w3.org/2000/svg"><path stroke-linecap="round" stroke-linejoin="round" d="M21 12a9 9 0 01-9 9m9-9a9 9 0 00-9-9m9 9H3m9 9a9 9 0 01-9-9m9 9c1.657 0 3-4.03 3-9s-1.343-9-3-9m0 18c-1.657 0-3-4.03-3-9s1.343-9 3-9m-9 9a9 9 0 019-9"></path></svg><text x="73" y="179.08" fill="rgb(220, 227, 234)" font-family="-apple-system" font-size="16" font-weight="500">Tailnet</text><svg fill="none" viewBox="0 0 24 24" stroke="currentColor" stroke-width="2" x="40" y="218" width="20" height="20" color="rgb(148, 163, 184)" style="color:rgb(148, 163, 184);overflow:visible" xmlns="http://www.w3.org/2000/svg"><path stroke-linecap="round" stroke-linejoin="round" d="M10.325 4.317c.426-1.756 2.924-1.756 3.35 0a1.724 1.724 0 002.573 1.066c1.543-.94 3.31.826 2.37 2.37a1.724 1.724 0 001.065 2.572c1.756.426 1.756 2.924 0 3.35a1.724 1.724 0 00-1.066 2.573c.94 1.543-.826 3.31-2.37 2.37a1.724 1.724 0 00-2.572 1.065c-.426 1.756-2.924 1.756-3.35 0a1.724 1.724 0 00-2.573-1.066c-1.543.94-3.31-.826-2.37-2.37a1.724 1.724 0 00-1.065-2.572c-1.756-.426-1.756-2.924 0-3.35a1.724 1.724 0 001.066-2.573c-.94-1.543.826-3.31 2.37-2.37.996.608 2.296.07 2.572-1.065z"></path><path stroke-linecap="round" stroke-linejoin="round" d="M15 12a3 3 0 11-6 0 3 3 0 016 0z"></path></svg><text x="72" y="232.08" fill="rgb(148, 163, 184)" font-family="-apple-system" font-size="16" font-weight="500">Settings</text><rect x="24" y="881" width="207" height="119" rx="0" fill="none" stroke="rgb(30, 41, 59)" stroke-width="1"/><text x="32" y="917.56" fill="rgb(100, 116, 139)" font-family="-apple-system" font-size="12" font-weight="500" letter-spacing="0.6">Docker</text><text x="84.98" y="917.56" fill="rgb(100, 116, 139)" font-family="-apple-system" font-size="12" font-weight="500" letter-spacing="0.6">Socket</text><rect x="32" y="926" width="191" height="26" rx="4" fill="rgba(30, 41, 59, 0.5)" stroke="rgb(30, 41, 59)" stroke-width="1"/><text x="41" y="942.56" fill="rgb(148, 163, 184)" font-family="ui-monospace" font-size="12" font-weight="400">/var/run/docker.sock</text><svg fill="none" viewBox="0 0 24 24" stroke-width="1.5" stroke="currentColor" x="44" y="976" width="16" height="16" color="rgb(100, 116, 139)" style="color:rgb(100, 116, 139);overflow:visible" xmlns="http://www.w3.org/2000/svg"><path stroke-linecap="round" stroke-linejoin="round" d="M15.75 9V5.25A2.25 2.25 0 0013.5 3h-6a2.25 2.25 0 00-2.25 2.25v13.5A2.25 2.25 0 007.5 21h6a2.25 2.25 0 002.25-2.25V15m3 0l3-3m0 0l-3-3m3 3H9"></path></svg><text x="68" y="987.56" fill="rgb(100, 116, 139)" font-family="-apple-system" font-size="12" font-weight="400">Sign</text><text x="94.38" y="987.56" fill="rgb(100, 116, 139)" font-family="-apple-system" font-size="12" font-weight="400">Out</text><rect x="256" y="0" width="1184" height="1024" rx="0" fill="rgb(15, 23, 42)"/><rect x="288" y="32" width="147.86" height="38" rx="12" fill="rgb(30, 41, 59)" stroke="rgba(51, 65, 85, 0.5)" stroke-width="1"/><rect x="305" y="46" width="10" height="10" rx="9999" fill="rgb(71, 85, 105)"/><text x="325" y="55.32" fill="rgb(148, 163, 184)" font-family="-apple-system" font-size="14" font-weight="600">Not</text><text x="351.02" y="55.32" fill="rgb(148, 163, 184)" font-family="-apple-system" font-size="14" font-weight="600">Connected</text><rect x="1140" y="32" width="106.53" height="38" rx="8" fill="rgb(30, 41, 59)" stroke="rgba(51, 65, 85, 0.5)" stroke-width="1"/><svg fill="none" viewBox="0 0 24 24" stroke-width="1.5" stroke="currentColor" x="1157" y="43" width="16" height="16" color="rgb(226, 232, 240)" style="color:rgb(226, 232, 240);overflow:visible" xmlns="http://www.w3.org/2000/svg"><path stroke-linecap="round" stroke-linejoin="round" d="M16.023 9.348h4.992v-.001M2.985 19.644v-4.992m0 0h4.992m-4.993 0l3.181 3.183a8.25 8.25 0 0013.803-3.7M4.031 9.865a8.25 8.25 0 0113.803-3.7l3.181 3.182"></path></svg><text x="1181" y="55.32" fill="rgb(226, 232, 240)" font-family="-apple-system" font-size="14" font-weight="500">Refresh</text><rect x="1254.53" y="32" width="153.47" height="38" rx="8" fill="rgb(30, 41, 59)" stroke="rgba(51, 65, 85, 0.5)" stroke-width="1"/><svg fill="none" viewBox="0 0 24 24" stroke-width="1.5" stroke="currentColor" x="1271.53" y="43" width="16" height="16" color="rgb(226, 232, 240)" style="color:rgb(226, 232, 240);overflow:visible" xmlns="http://www.w3.org/2000/svg"><path stroke-linecap="round" stroke-linejoin="round" d="M13.5 6H5.25A2.25 2.25 0 003 8.25v10.5A2.25 2.25 0 005.25 21h10.5A2.25 2.25 0 0018 18.75V10.5m-10.5 6L21 3m0 0h-5.25M21 3v5.25"></path></svg><text x="1295.53" y="55.32" fill="rgb(226, 232, 240)" font-family="-apple-system" font-size="14" font-weight="500">Admin</text><text x="1339.8" y="55.32" fill="rgb(226, 232, 240)" font-family="-apple-system" font-size="14" font-weight="500">Console</text><rect x="512" y="102" width="672" height="315" rx="12" fill="rgb(31, 41, 55)" stroke="rgb(55, 65, 81)" stroke-width="1"/><rect x="545" y="137" width="48" height="48" rx="12" fill="rgb(17, 24, 39)" stroke="rgb(55, 65, 81)" stroke-width="1"/><text x="554.02" y="168.12" fill="rgb(248, 250, 252)" font-family="-apple-system" font-size="24" font-weight="400">🛡️</text><text x="609" y="154.6" fill="rgb(255, 255, 255)" font-family="-apple-system" font-size="20" font-weight="700">Connect</text><text x="688.78" y="154.6" fill="rgb(255, 255, 255)" font-family="-apple-system" font-size="20" font-weight="700">this</text><text x="727.33" y="154.6" fill="rgb(255, 255, 255)" font-family="-apple-system" font-size="20" font-weight="700">server</text><text x="789" y="154.6" fill="rgb(255, 255, 255)" font-family="-apple-system" font-size="20" font-weight="700">to</text><text x="811.16" y="154.6" fill="rgb(255, 255, 255)" font-family="-apple-system" font-size="20" font-weight="700">Tailscale</text><text x="609" y="181.32" fill="rgb(156, 163, 175)" font-family="-apple-system" font-size="14" font-weight="400">Enter</text><text x="644.91" y="181.32" fill="rgb(156, 163, 175)" font-family="-apple-system" font-size="14" font-weight="400">a</text><text x="655.98" y="181.32" fill="rgb(156, 163, 175)" font-family="-apple-system" font-size="14" font-weight="400">reusable</text><text x="712.75" y="181.32" fill="rgb(156, 163, 175)" font-family="-apple-system" font-size="14" font-weight="400">or</text><text x="728.95" y="181.32" fill="rgb(156, 163, 175)" font-family="-apple-system" font-size="14" font-weight="400">ephemeral</text><text x="798.03" y="181.32" fill="rgb(156, 163, 175)" font-family="-apple-system" font-size="14" font-weight="400">auth</text><text x="829.13" y="181.32" fill="rgb(156, 163, 175)" font-family="-apple-system" font-size="14" font-weight="400">key</text><text x="853.52" y="181.32" fill="rgb(156, 163, 175)" font-family="-apple-system" font-size="14" font-weight="400">to</text><text x="869.42" y="181.32" fill="rgb(156, 163, 175)" font-family="-apple-system" font-size="14" font-weight="400">add</text><text x="896.3" y="181.32" fill="rgb(156, 163, 175)" font-family="-apple-system" font-size="14" font-weight="400">this</text><text x="922.69" y="181.32" fill="rgb(156, 163, 175)" font-family="-apple-system" font-size="14" font-weight="400">host</text><text x="953.67" y="181.32" fill="rgb(156, 163, 175)" font-family="-apple-system" font-size="14" font-weight="400">to</text><text x="969.56" y="181.32" fill="rgb(156, 163, 175)" font-family="-apple-system" font-size="14" font-weight="400">your</text><text x="999.73" y="181.32" fill="rgb(156, 163, 175)" font-family="-apple-system" font-size="14" font-weight="400">Tailnet.</text><text x="545" y="225.32" fill="rgb(209, 213, 219)" font-family="-apple-system" font-size="14" font-weight="500">Auth</text><text x="577.94" y="225.32" fill="rgb(209, 213, 219)" font-family="-apple-system" font-size="14" font-weight="500">key</text><rect x="545" y="239" width="435.86" height="44" rx="8" fill="rgb(17, 24, 39)" stroke="rgb(55, 65, 81)" stroke-width="1"/><text x="561" y="266.32" fill="rgb(255, 255, 255)" font-family="ui-monospace" font-size="14" font-weight="400">tskey-auth-...</text><rect x="992.86" y="239" width="158.14" height="44" rx="8" fill="rgb(55, 65, 81)"/><text x="1016.86" y="265.08" fill="rgb(107, 114, 128)" font-family="-apple-system" font-size="16" font-weight="500">Connect</text><text x="1080.48" y="265.08" fill="rgb(107, 114, 128)" font-family="-apple-system" font-size="16" font-weight="500">device</text><rect x="545" y="307" width="606" height="77" rx="0" fill="none" stroke="rgba(55, 65, 81, 0.5)" stroke-width="1"/><text x="545" y="346.32" fill="rgb(156, 163, 175)" font-family="-apple-system" font-size="14" font-weight="400">Alternatively,</text><text x="627.25" y="346.32" fill="rgb(156, 163, 175)" font-family="-apple-system" font-size="14" font-weight="400">authorize</text><text x="688.73" y="346.32" fill="rgb(156, 163, 175)" font-family="-apple-system" font-size="14" font-weight="400">this</text><text x="715.13" y="346.32" fill="rgb(156, 163, 175)" font-family="-apple-system" font-size="14" font-weight="400">device</text><text x="758.77" y="346.32" fill="rgb(156, 163, 175)" font-family="-apple-system" font-size="14" font-weight="400">in</text><text x="773.38" y="346.32" fill="rgb(156, 163, 175)" font-family="-apple-system" font-size="14" font-weight="400">your</text><text x="803.83" y="346.32" fill="rgb(156, 163, 175)" font-family="-apple-system" font-size="14" font-weight="400">browser:</text><text x="545" y="376.08" fill="rgb(96, 165, 250)" font-family="-apple-system" font-size="16" font-weight="500">Open</text><text x="586.52" y="376.08" fill="rgb(96, 165, 250)" font-family="-apple-system" font-size="16" font-weight="500">authorization</text><text x="685.25" y="376.08" fill="rgb(96, 165, 250)" font-family="-apple-system" font-size="16" font-weight="500">page</text><svg fill="none" viewBox="0 0 24 24" stroke="currentColor" x="724.58" y="364" width="16" height="16" color="rgb(96, 165, 250)" style="color:rgb(96, 165, 250);overflow:visible" xmlns="http://www.w3.org/2000/svg"><path stroke-linecap="round" stroke-linejoin="round" stroke-width="2" d="M10 6H6a2 2 0 00-2 2v10a2 2 0 002 2h10a2 2 0 002-2v-4M14 4h6m0 0v6m0-6L10 14"></path></svg><rect x="574" y="441" width="548" height="212" rx="12" fill="rgba(30, 41, 59, 0.6)" stroke="rgba(51, 65, 85, 0.4)" stroke-width="1"/><rect x="575" y="442" width="546" height="71" rx="0" fill="none" stroke="rgba(51, 65, 85, 0.4)" stroke-width="1"/><rect x="591" y="458" width="300" height="38" rx="8" fill="rgba(15, 23, 42, 0.5)" stroke="rgb(51, 65, 85)" stroke-width="1"/><text x="603" y="482.32" fill="rgb(241, 245, 249)" font-family="-apple-system" font-size="14" font-weight="400">Search by name or IP...</text><rect x="903" y="458" width="106" height="38" rx="8" fill="rgba(15, 23, 42, 0.5)" stroke="rgb(51, 65, 85)" stroke-width="1"/><text x="915" y="482.32" fill="rgb(241, 245, 249)" font-family="-apple-system" font-size="14" font-weight="400">All Status</text><path d="M 991 475 l 5 5 l 5 -5" fill="none" stroke="rgb(241, 245, 249)" stroke-width="1.4"/><rect x="1021" y="458" width="84" height="38" rx="8" fill="rgba(15, 23, 42, 0.5)" stroke="rgb(51, 65, 85)" stroke-width="1"/><text x="1033" y="482.32" fill="rgb(241, 245, 249)" font-family="-apple-system" font-size="14" font-weight="400">All OS</text><path d="M 1087 475 l 5 5 l 5 -5" fill="none" stroke="rgb(241, 245, 249)" stroke-width="1.4"/><rect x="575" y="513" width="546" height="39" rx="0" fill="rgba(15, 23, 42, 0.3)"/><text x="591" y="535.8" fill="rgb(100, 116, 139)" font-family="-apple-system" font-size="10" font-weight="600" letter-spacing="0.5">Device</text><text x="673.84" y="535.8" fill="rgb(100, 116, 139)" font-family="-apple-system" font-size="10" font-weight="600" letter-spacing="0.5">Status</text><text x="760.36" y="535.8" fill="rgb(100, 116, 139)" font-family="-apple-system" font-size="10" font-weight="600" letter-spacing="0.5">OS</text><text x="815.84" y="535.8" fill="rgb(100, 116, 139)" font-family="-apple-system" font-size="10" font-weight="600" letter-spacing="0.5">Tailscale</text><text x="874.47" y="535.8" fill="rgb(100, 116, 139)" font-family="-apple-system" font-size="10" font-weight="600" letter-spacing="0.5">IP</text><text x="937.55" y="535.8" fill="rgb(100, 116, 139)" font-family="-apple-system" font-size="10" font-weight="600" letter-spacing="0.5">Last</text><text x="966.81" y="535.8" fill="rgb(100, 116, 139)" font-family="-apple-system" font-size="10" font-weight="600" letter-spacing="0.5">Seen</text><text x="1059.23" y="535.8" fill="rgb(100, 116, 139)" font-family="-apple-system" font-size="10" font-weight="600" letter-spacing="0.5">Actions</text><text x="785.16" y="606.32" fill="rgb(100, 116, 139)" font-family="-apple-system" font-size="14" font-weight="400">No</text><text x="806.59" y="606.32" fill="rgb(100, 116, 139)" font-family="-apple-system" font-size="14" font-weight="400">devices</text><text x="857.45" y="606.32" fill="rgb(100, 116, 139)" font-family="-apple-system" font-size="14" font-weight="400">in</text><text x="872.06" y="606.32" fill="rgb(100, 116, 139)" font-family="-apple-system" font-size="14" font-weight="400">tailnet</text><rect x="1146" y="441" width="262" height="762" rx="12" fill="rgba(30, 41, 59, 0.6)" stroke="rgba(51, 65, 85, 0.4)" stroke-width="1"/><svg fill="none" viewBox="0 0 24 24" stroke-width="1.5" stroke="currentColor" x="1167" y="464" width="16" height="16" color="rgb(192, 132, 252)" style="color:rgb(192, 132, 252);overflow:visible" xmlns="http://www.w3.org/2000/svg"><path stroke-linecap="round" stroke-linejoin="round" d="M13.19 8.688a4.5 4.5 0 011.242 7.244l-4.5 4.5a4.5 4.5 0 01-6.364-6.364l1.757-1.757m13.35-.622l1.757-1.757a4.5 4.5 0 00-6.364-6.364l-4.5 4.5a4.5 4.5 0 001.242 7.244"></path></svg><text x="1191" y="476.32" fill="rgb(226, 232, 240)" font-family="-apple-system" font-size="14" font-weight="700" letter-spacing="0.7">Published</text><text x="1275.81" y="476.32" fill="rgb(226, 232, 240)" font-family="-apple-system" font-size="14" font-weight="700" letter-spacing="0.7">via</text><text x="1304.48" y="476.32" fill="rgb(226, 232, 240)" font-family="-apple-system" font-size="14" font-weight="700" letter-spacing="0.7">Tailnet</text><rect x="1167" y="498" width="220" height="103" rx="8" fill="rgba(15, 23, 42, 0.4)" stroke="rgba(51, 65, 85, 0.5)" stroke-width="1"/><text x="1180" y="525.32" fill="rgb(226, 232, 240)" font-family="-apple-system" font-size="14" font-weight="500">Home</text><text x="1221.11" y="525.32" fill="rgb(226, 232, 240)" font-family="-apple-system" font-size="14" font-weight="500">Assistant</text><rect x="1366" y="517" width="8" height="8" rx="9999" fill="rgb(74, 222, 128)"/><text x="1180" y="551.43" fill="rgb(148, 163, 184)" font-family="ui-monospace" font-size="11" font-weight="400">:</text><text x="1186.61" y="551.43" fill="rgb(148, 163, 184)" font-family="ui-monospace" font-size="11" font-weight="400">8123</text><svg fill="none" viewBox="0 0 24 24" stroke-width="1.5" stroke="currentColor" x="1328" y="541" width="14" height="14" color="rgb(96, 165, 250)" style="color:rgb(96, 165, 250);overflow:visible" xmlns="http://www.w3.org/2000/svg"><path stroke-linecap="round" stroke-linejoin="round" d="M13.5 6H5.25A2.25 2.25 0 003 8.25v10.5A2.25 2.25 0 005.25 21h10.5A2.25 2.25 0 0018 18.75V10.5m-10.5 6L21 3m0 0h-5.25M21 3v5.25"></path></svg><svg fill="none" viewBox="0 0 24 24" stroke-width="1.5" stroke="currentColor" x="1356" y="541" width="14" height="14" color="rgb(100, 116, 139)" style="color:rgb(100, 116, 139);overflow:visible" xmlns="http://www.w3.org/2000/svg"><path stroke-linecap="round" stroke-linejoin="round" d="M15.666 3.888A2.25 2.25 0 0013.5 2.25h-3c-1.03 0-1.9.693-2.166 1.638m7.332 0c.055.194.084.4.084.612v0a.75.75 0 01-.75.75H9.75a.75.75 0 01-.75-.75v0c0-.212.03-.418.084-.612m7.332 0c.646.049 1.288.11 1.927.184 1.1.128 1.907 1.077 1.907 2.185V19.5a2.25 2.25 0 01-2.25 2.25H6.75A2.25 2.25 0 014.5 19.5V6.257c0-1.108.806-2.057 1.907-2.185a48.208 48.208 0 011.927-.184"></path></svg><rect x="1180" y="567" width="82.91" height="21" rx="4" fill="rgb(30, 41, 59)" stroke="rgba(51, 65, 85, 0.5)" stroke-width="1"/><text x="1187" y="580.8" fill="rgb(100, 116, 139)" font-family="-apple-system" font-size="10" font-weight="400">home-assistant</text><rect x="1167" y="609" width="220" height="103" rx="8" fill="rgba(15, 23, 42, 0.4)" stroke="rgba(51, 65, 85, 0.5)" stroke-width="1"/><text x="1180" y="636.32" fill="rgb(226, 232, 240)" font-family="-apple-system" font-size="14" font-weight="500">grafana</text><rect x="1366" y="628" width="8" height="8" rx="9999" fill="rgb(74, 222, 128)"/><text x="1180" y="662.43" fill="rgb(148, 163, 184)" font-family="ui-monospace" font-size="11" font-weight="400">:</text><text x="1186.61" y="662.43" fill="rgb(148, 163, 184)" font-family="ui-monospace" font-size="11" font-weight="400">3000</text><svg fill="none" viewBox="0 0 24 24" stroke-width="1.5" stroke="currentColor" x="1328" y="652" width="14" height="14" color="rgb(96, 165, 250)" style="color:rgb(96, 165, 250);overflow:visible" xmlns="http://www.w3.org/2000/svg"><path stroke-linecap="round" stroke-linejoin="round" d="M13.5 6H5.25A2.25 2.25 0 003 8.25v10.5A2.25 2.25 0 005.25 21h10.5A2.25 2.25 0 0018 18.75V10.5m-10.5 6L21 3m0 0h-5.25M21 3v5.25"></path></svg><svg fill="none" viewBox="0 0 24 24" stroke-width="1.5" stroke="currentColor" x="1356" y="652" width="14" height="14" color="rgb(100, 116, 139)" style="color:rgb(100, 116, 139);overflow:visible" xmlns="http://www.w3.org/2000/svg"><path stroke-linecap="round" stroke-linejoin="round" d="M15.666 3.888A2.25 2.25 0 0013.5 2.25h-3c-1.03 0-1.9.693-2.166 1.638m7.332 0c.055.194.084.4.084.612v0a.75.75 0 01-.75.75H9.75a.75.75 0 01-.75-.75v0c0-.212.03-.418.084-.612m7.332 0c.646.049 1.288.11 1.927.184 1.1.128 1.907 1.077 1.907 2.185V19.5a2.25 2.25 0 01-2.25 2.25H6.75A2.25 2.25 0 014.5 19.5V6.257c0-1.108.806-2.057 1.907-2.185a48.208 48.208 0 011.927-.184"></path></svg><rect x="1180" y="678" width="48.14" height="21" rx="4" fill="rgb(30, 41, 59)" stroke="rgba(51, 65, 85, 0.5)" stroke-width="1"/><text x="1187" y="691.8" fill="rgb(100, 116, 139)" font-family="-apple-system" font-size="10" font-weight="400">grafana</text><rect x="1167" y="720" width="220" height="103" rx="8" fill="rgba(15, 23, 42, 0.4)" stroke="rgba(51, 65, 85, 0.5)" stroke-width="1"/><text x="1180" y="747.32" fill="rgb(226, 232, 240)" font-family="-apple-system" font-size="14" font-weight="500">Plex</text><text x="1210.58" y="747.32" fill="rgb(226, 232, 240)" font-family="-apple-system" font-size="14" font-weight="500">Media</text><rect x="1366" y="739" width="8" height="8" rx="9999" fill="rgb(74, 222, 128)"/><text x="1180" y="773.43" fill="rgb(148, 163, 184)" font-family="ui-monospace" font-size="11" font-weight="400">:</text><text x="1186.61" y="773.43" fill="rgb(148, 163, 184)" font-family="ui-monospace" font-size="11" font-weight="400">32400</text><svg fill="none" viewBox="0 0 24 24" stroke-width="1.5" stroke="currentColor" x="1328" y="763" width="14" height="14" color="rgb(96, 165, 250)" style="color:rgb(96, 165, 250);overflow:visible" xmlns="http://www.w3.org/2000/svg"><path stroke-linecap="round" stroke-linejoin="round" d="M13.5 6H5.25A2.25 2.25 0 003 8.25v10.5A2.25 2.25 0 005.25 21h10.5A2.25 2.25 0 0018 18.75V10.5m-10.5 6L21 3m0 0h-5.25M21 3v5.25"></path></svg><svg fill="none" viewBox="0 0 24 24" stroke-width="1.5" stroke="currentColor" x="1356" y="763" width="14" height="14" color="rgb(100, 116, 139)" style="color:rgb(100, 116, 139);overflow:visible" xmlns="http://www.w3.org/2000/svg"><path stroke-linecap="round" stroke-linejoin="round" d="M15.666 3.888A2.25 2.25 0 0013.5 2.25h-3c-1.03 0-1.9.693-2.166 1.638m7.332 0c.055.194.084.4.084.612v0a.75.75 0 01-.75.75H9.75a.75.75 0 01-.75-.75v0c0-.212.03-.418.084-.612m7.332 0c.646.049 1.288.11 1.927.184 1.1.128 1.907 1.077 1.907 2.185V19.5a2.25 2.25 0 01-2.25 2.25H6.75A2.25 2.25 0 014.5 19.5V6.257c0-1.108.806-2.057 1.907-2.185a48.208 48.208 0 011.927-.184"></path></svg><rect x="1180" y="789" width="32.31" height="21" rx="4" fill="rgb(30, 41, 59)" stroke="rgba(51, 65, 85, 0.5)" stroke-width="1"/><text x="1187" y="802.8" fill="rgb(100, 116, 139)" font-family="-apple-system" font-size="10" font-weight="400">plex</text><rect x="1167" y="831" width="220" height="129" rx="8" fill="rgba(15, 23, 42, 0.4)" stroke="rgba(51, 65, 85, 0.5)" stroke-width="1"/><text x="1180" y="858.32" fill="rgb(226, 232, 240)" font-family="-apple-system" font-size="14" font-weight="500">minio</text><rect x="1366" y="850" width="8" height="8" rx="9999" fill="rgb(100, 116, 139)"/><text x="1180" y="884.43" fill="rgb(148, 163, 184)" font-family="ui-monospace" font-size="11" font-weight="400">:</text><text x="1186.61" y="884.43" fill="rgb(148, 163, 184)" font-family="ui-monospace" font-size="11" font-weight="400">9000</text><svg fill="none" viewBox="0 0 24 24" stroke-width="1.5" stroke="currentColor" x="1328" y="874" width="14" height="14" color="rgb(96, 165, 250)" style="color:rgb(96, 165, 250);overflow:visible" xmlns="http://www.w3.org/2000/svg"><path stroke-linecap="round" stroke-linejoin="round" d="M13.5 6H5.25A2.25 2.25 0 003 8.25v10.5A2.25 2.25 0 005.25 21h10.5A2.25 2.25 0 0018 18.75V10.5m-10.5 6L21 3m0 0h-5.25M21 3v5.25"></path></svg><svg fill="none" viewBox="0 0 24 24" stroke-width="1.5" stroke="currentColor" x="1356" y="874" width="14" height="14" color="rgb(100, 116, 139)" style="color:rgb(100, 116, 139);overflow:visible" xmlns="http://www.w3.org/2000/svg"><path stroke-linecap="round" stroke-linejoin="round" d="M15.666 3.888A2.25 2.25 0 0013.5 2.25h-3c-1.03 0-1.9.693-2.166 1.638m7.332 0c.055.194.084.4.084.612v0a.75.75 0 01-.75.75H9.75a.75.75 0 01-.75-.75v0c0-.212.03-.418.084-.612m7.332 0c.646.049 1.288.11 1.927.184 1.1.128 1.907 1.077 1.907 2.185V19.5a2.25 2.25 0 01-2.25 2.25H6.75A2.25 2.25 0 014.5 19.5V6.257c0-1.108.806-2.057 1.907-2.185a48.208 48.208 0 011.927-.184"></path></svg><text x="1180" y="910.43" fill="rgb(148, 163, 184)" font-family="ui-monospace" font-size="11" font-weight="400">:</text><text x="1186.61" y="910.43" fill="rgb(148, 163, 184)" font-family="ui-monospace" font-size="11" font-weight="400">9001</text><svg fill="none" viewBox="0 0 24 24" stroke-width="1.5" stroke="currentColor" x="1328" y="900" width="14" height="14" color="rgb(96, 165, 250)" style="color:rgb(96, 165, 250);overflow:visible" xmlns="http://www.w3.org/2000/svg"><path stroke-linecap="round" stroke-linejoin="round" d="M13.5 6H5.25A2.25 2.25 0 003 8.25v10.5A2.25 2.25 0 005.25 21h10.5A2.25 2.25 0 0018 18.75V10.5m-10.5 6L21 3m0 0h-5.25M21 3v5.25"></path></svg><svg fill="none" viewBox="0 0 24 24" stroke-width="1.5" stroke="currentColor" x="1356" y="900" width="14" height="14" color="rgb(100, 116, 139)" style="color:rgb(100, 116, 139);overflow:visible" xmlns="http://www.w3.org/2000/svg"><path stroke-linecap="round" stroke-linejoin="round" d="M15.666 3.888A2.25 2.25 0 0013.5 2.25h-3c-1.03 0-1.9.693-2.166 1.638m7.332 0c.055.194.084.4.084.612v0a.75.75 0 01-.75.75H9.75a.75.75 0 01-.75-.75v0c0-.212.03-.418.084-.612m7.332 0c.646.049 1.288.11 1.927.184 1.1.128 1.907 1.077 1.907 2.185V19.5a2.25 2.25 0 01-2.25 2.25H6.75A2.25 2.25 0 014.5 19.5V6.257c0-1.108.806-2.057 1.907-2.185a48.208 48.208 0 011.927-.184"></path></svg><rect x="1180" y="926" width="38.86" height="21" rx="4" fill="rgb(30, 41, 59)" stroke="rgba(51, 65, 85, 0.5)" stroke-width="1"/><text x="1187" y="939.8" fill="rgb(100, 116, 139)" font-family="-apple-system" font-size="10" font-weight="400">minio</text><rect x="1167" y="968" width="220" height="103" rx="8" fill="rgba(15, 23, 42, 0.4)" stroke="rgba(51, 65, 85, 0.5)" stroke-width="1"/><text x="1180" y="995.32" fill="rgb(226, 232, 240)" font-family="-apple-system" font-size="14" font-weight="500">Paperless</text><rect x="1366" y="987" width="8" height="8" rx="9999" fill="rgb(248, 113, 113)"/><text x="1180" y="1021.43" fill="rgb(148, 163, 184)" font-family="ui-monospace" font-size="11" font-weight="400">:</text><text x="1186.61" y="1021.43" fill="rgb(148, 163, 184)" font-family="ui-monospace" font-size="11" font-weight="400">8000</text><svg fill="none" viewBox="0 0 24 24" stroke-width="1.5" stroke="currentColor" x="1328" y="1011" width="14" height="14" color="rgb(96, 165, 250)" style="color:rgb(96, 165, 250);overflow:visible" xmlns="http://www.w3.org/2000/svg"><path stroke-linecap="round" stroke-linejoin="round" d="M13.5 6H5.25A2.25 2.25 0 003 8.25v10.5A2.25 2.25 0 005.25 21h10.5A2.25 2.25 0 0018 18.75V10.5m-10.5 6L21 3m0 0h-5.25M21 3v5.25"></path></svg><svg fill="none" viewBox="0 0 24 24" stroke-width="1.5" stroke="currentColor" x="1356" y="1011" width="14" height="14" color="rgb(100, 116, 139)" style="color:rgb(100, 116, 139);overflow:visible" xmlns="http://www.w3.org/2000/svg"><path stroke-linecap="round" stroke-linejoin="round" d="M15.666 3.888A2.25 2.25 0 0013.5 2.25h-3c-1.03 0-1.9.693-2.166 1.638m7.332 0c.055.194.084.4.084.612v0a.75.75 0 01-.75.75H9.75a.75.75 0 01-.75-.75v0c0-.212.03-.418.084-.612m7.332 0c.646.049 1.288.11 1.927.184 1.1.128 1.907 1.077 1.907 2.185V19.5a2.25 2.25 0 01-2.25 2.25H6.75A2.25 2.25 0 014.5 19.5V6.257c0-1.108.806-2.057 1.907-2.185a48.208 48.208 0 011.927-.184"></path></svg></svg>