<svg xmlns="http://www.w3.org/2000/svg" width="1440" height="1024" viewBox="0 0 1440 1024"><title>Dashgo editable source-verified frame</title><rect x="0" y="0" width="1440" height="1024" rx="0" fill="rgb(15, 23, 42)"/><rect x="0" y="0" width="1440" height="1024" rx="0" fill="rgb(17, 24, 39)"/><rect x="0" y="0" width="256" height="1024" rx="0" fill="rgb(15, 23, 42)" stroke="rgb(51, 65, 85)" stroke-width="1"/><rect x="32" y="24" width="40" height="40" rx="12" fill="rgb(30, 41, 59)" stroke="rgb(51, 65, 85)" stroke-width="1"/><svg fill="none" viewBox="0 0 24 24" stroke="currentColor" x="40" y="32" width="24" height="24" color="rgb(96, 165, 250)" style="color:rgb(96, 165, 250);overflow:visible" xmlns="http://www.w3.org/2000/svg"><path stroke-linecap="round" stroke-linejoin="round" stroke-width="2" d="M19 11H5m14 0a2 2 0 012 2v6a2 2 0 01-2 2H5a2 2 0 01-2-2v-6a2 2 0 012-2m14 0V9a2 2 0 00-2-2M5 11V9a2 2 0 002-2m0 0V5a2 2 0 012-2h6a2 2 0 012 2v2M7 7h10"></path></svg><text x="84" y="49.6" fill="rgb(241, 245, 249)" font-family="-apple-system" font-size="20" font-weight="700" letter-spacing="-0.5">Dashgo</text><rect x="24" y="96" width="207" height="50" rx="8" fill="rgba(30, 41, 59, 0.224)" stroke="rgba(206, 210, 216, 0.89)" stroke-width="1"/><svg fill="none" viewBox="0 0 24 24" stroke="currentColor" stroke-width="2" x="41" y="111" width="20" height="20" color="rgb(169, 181, 199)" style="color:rgb(169, 181, 199);overflow:visible" xmlns="http://www.w3.org/2000/svg"><path stroke-linecap="round" stroke-linejoin="round" d="M4 6a2 2 0 012-2h2a2 2 0 012 2v2a2 2 0 01-2 2H6a2 2 0 01-2-2V6zM14 6a2 2 0 012-2h2a2 2 0 012 2v2a2 2 0 01-2 2h-2a2 2 0 01-2-2V6zM4 16a2 2 0 012-2h2a2 2 0 012 2v2a2 2 0 01-2 2H6a2 2 0 01-2-2v-2zM14 16a2 2 0 012-2h2a2 2 0 012 2v2a2 2 0 01-2 2h-2a2 2 0 01-2-2v-2z"></path></svg><text x="73" y="125.08" fill="rgb(169, 181, 199)" font-family="-apple-system" font-size="16" font-weight="500">Dashboard</text><rect x="24" y="150" width="207" height="50" rx="8" fill="rgba(30, 41, 59, 0.776)" stroke="rgba(116, 126, 140, 0.61)" stroke-width="1"/><svg fill="none" viewBox="0 0 24 24" stroke="currentColor" stroke-width="2" x="41" y="165" width="20" height="20" color="rgb(74, 222, 128)" style="color:rgb(74, 222, 128);overflow:visible" xmlns="http://www.w3.org/2000/svg"><path stroke-linecap="round" stroke-linejoin="round" d="M21 12a9 9 0 01-9 9m9-9a9 9 0 00-9-9m9 9H3m9 9a9 9 0 01-9-9m9 9c1.657 0 3-4.03 3-9s-1.343-9-3-9m0 18c-1.657 0-3-4.03-3-9s1.343-9 3-9m-9 9a9 9 0 019-9"></path></svg><text x="73" y="179.08" fill="rgb(220, 227, 234)" font-family="-apple-system" font-size="16" font-weight="500">Tailnet</text><svg fill="none" viewBox="0 0 24 24" stroke="currentColor" stroke-width="2" x="40" y="218" width="20" height="20" color="rgb(148, 163, 184)" style="color:rgb(148, 163, 184);overflow:visible" xmlns="http://www.w3.org/2000/svg"><path stroke-linecap="round" stroke-linejoin="round" d="M10.325 4.317c.426-1.756 2.924-1.756 3.35 0a1.724 1.724 0 002.573 1.066c1.543-.94 3.31.826 2.37 2.37a1.724 1.724 0 001.065 2.572c1.756.426 1.756 2.924 0 3.35a1.724 1.724 0 00-1.066 2.573c.94 1.543-.826 3.31-2.37 2.37a1.724 1.724 0 00-2.572 1.065c-.426 1.756-2.924 1.756-3.35 0a1.724 1.724 0 00-2.573-1.066c-1.543.94-3.31-.826-2.37-2.37a1.724 1.724 0 00-1.065-2.572c-1.756-.426-1.756-2.924 0-3.35a1.724 1.724 0 001.066-2.573c-.94-1.543.826-3.31 2.37-2.37.996.608 2.296.07 2.572-1.065z"></path><path stroke-linecap="round" stroke-linejoin="round" d="M15 12a3 3 0 11-6 0 3 3 0 016 0z"></path></svg><text x="72" y="232.08" fill="rgb(148, 163, 184)" font-family="-apple-system" font-size="16" font-weight="500">Settings</text><rect x="24" y="881" width="207" height="119" rx="0" fill="none" stroke="rgb(30, 41, 59)" stroke-width="1"/><text x="32" y="917.56" fill="rgb(100, 116, 139)" font-family="-apple-system" font-size="12" font-weight="500" letter-spacing="0.6">Docker</text><text x="84.98" y="917.56" fill="rgb(100, 116, 139)" font-family="-apple-system" font-size="12" font-weight="500" letter-spacing="0.6">Socket</text><rect x="32" y="926" width="191" height="26" rx="4" fill="rgba(30, 41, 59, 0.5)" stroke="rgb(30, 41, 59)" stroke-width="1"/><text x="41" y="942.56" fill="rgb(148, 163, 184)" font-family="ui-monospace" font-size="12" font-weight="400">/var/run/docker.sock</text><svg fill="none" viewBox="0 0 24 24" stroke-width="1.5" stroke="currentColor" x="44" y="976" width="16" height="16" color="rgb(100, 116, 139)" style="color:rgb(100, 116, 139);overflow:visible" xmlns="http://www.w3.org/2000/svg"><path stroke-linecap="round" stroke-linejoin="round" d="M15.75 9V5.25A2.25 2.25 0 0013.5 3h-6a2.25 2.25 0 00-2.25 2.25v13.5A2.25 2.25 0 007.5 21h6a2.25 2.25 0 002.25-2.25V15m3 0l3-3m0 0l-3-3m3 3H9"></path></svg><text x="68" y="987.56" fill="rgb(100, 116, 139)" font-family="-apple-system" font-size="12" font-weight="400">Sign</text><text x="94.38" y="987.56" fill="rgb(100, 116, 139)" font-family="-apple-system" font-size="12" font-weight="400">Out</text><rect x="256" y="0" width="1184" height="1024" rx="0" fill="rgb(15, 23, 42)"/><rect x="288" y="32" width="186.27" height="38" rx="12" fill="rgb(30, 41, 59)" stroke="rgba(51, 65, 85, 0.5)" stroke-width="1"/><rect x="305" y="46" width="10" height="10" rx="9999" fill="rgb(71, 85, 105)"/><text x="325" y="55.32" fill="rgb(148, 163, 184)" font-family="-apple-system" font-size="14" font-weight="600">Tailscale</text><text x="384.22" y="55.32" fill="rgb(148, 163, 184)" font-family="-apple-system" font-size="14" font-weight="600">Unavailable</text><rect x="1140" y="32" width="106.53" height="38" rx="8" fill="rgb(30, 41, 59)" stroke="rgba(51, 65, 85, 0.5)" stroke-width="1"/><svg fill="none" viewBox="0 0 24 24" stroke-width="1.5" stroke="currentColor" x="1157" y="43" width="16" height="16" color="rgb(226, 232, 240)" style="color:rgb(226, 232, 240);overflow:visible" xmlns="http://www.w3.org/2000/svg"><path stroke-linecap="round" stroke-linejoin="round" d="M16.023 9.348h4.992v-.001M2.985 19.644v-4.992m0 0h4.992m-4.993 0l3.181 3.183a8.25 8.25 0 0013.803-3.7M4.031 9.865a8.25 8.25 0 0113.803-3.7l3.181 3.182"></path></svg><text x="1181" y="55.32" fill="rgb(226, 232, 240)" font-family="-apple-system" font-size="14" font-weight="500">Refresh</text><rect x="1254.53" y="32" width="153.47" height="38" rx="8" fill="rgb(30, 41, 59)" stroke="rgba(51, 65, 85, 0.5)" stroke-width="1"/><svg fill="none" viewBox="0 0 24 24" stroke-width="1.5" stroke="currentColor" x="1271.53" y="43" width="16" height="16" color="rgb(226, 232, 240)" style="color:rgb(226, 232, 240);overflow:visible" xmlns="http://www.w3.org/2000/svg"><path stroke-linecap="round" stroke-linejoin="round" d="M13.5 6H5.25A2.25 2.25 0 003 8.25v10.5A2.25 2.25 0 005.25 21h10.5A2.25 2.25 0 0018 18.75V10.5m-10.5 6L21 3m0 0h-5.25M21 3v5.25"></path></svg><text x="1295.53" y="55.32" fill="rgb(226, 232, 240)" font-family="-apple-system" font-size="14" font-weight="500">Admin</text><text x="1339.8" y="55.32" fill="rgb(226, 232, 240)" font-family="-apple-system" font-size="14" font-weight="500">Console</text><rect x="288" y="102" width="1120" height="82" rx="12" fill="rgba(239, 68, 68, 0.05)" stroke="rgba(239, 68, 68, 0.15)" stroke-width="1"/><rect x="309" y="123" width="40" height="40" rx="9999" fill="rgba(239, 68, 68, 0.1)"/><svg fill="none" viewBox="0 0 24 24" stroke-width="1.5" stroke="currentColor" x="319" y="133" width="20" height="20" color="rgb(248, 113, 113)" style="color:rgb(248, 113, 113);overflow:visible" xmlns="http://www.w3.org/2000/svg"><path stroke-linecap="round" stroke-linejoin="round" d="M12 9v3.75m-9.303 3.376c-.866 1.5.217 3.374 1.948 3.374h14.71c1.73 0 2.813-1.874 1.948-3.374L13.949 3.378c-.866-1.5-3.032-1.5-3.898 0L2.697 16.126zM12 15.75h.007v.008H12v-.008z"></path></svg><text x="365" y="138.32" fill="rgb(248, 113, 113)" font-family="-apple-system" font-size="14" font-weight="500">Tailscale</text><text x="423.83" y="138.32" fill="rgb(248, 113, 113)" font-family="-apple-system" font-size="14" font-weight="500">is</text><text x="438.13" y="138.32" fill="rgb(248, 113, 113)" font-family="-apple-system" font-size="14" font-weight="500">not</text><text x="462.03" y="138.32" fill="rgb(248, 113, 113)" font-family="-apple-system" font-size="14" font-weight="500">available</text><text x="365" y="157.56" fill="rgb(100, 116, 139)" font-family="-apple-system" font-size="12" font-weight="400">Tailscale</text><text x="415.11" y="157.56" fill="rgb(100, 116, 139)" font-family="-apple-system" font-size="12" font-weight="400">not</text><text x="435.48" y="157.56" fill="rgb(100, 116, 139)" font-family="-apple-system" font-size="12" font-weight="400">found</text><text x="469.48" y="157.56" fill="rgb(100, 116, 139)" font-family="-apple-system" font-size="12" font-weight="400">or</text><text x="483.38" y="157.56" fill="rgb(100, 116, 139)" font-family="-apple-system" font-size="12" font-weight="400">not</text><text x="503.75" y="157.56" fill="rgb(100, 116, 139)" font-family="-apple-system" font-size="12" font-weight="400">accessible</text><text x="563.5" y="157.56" fill="rgb(100, 116, 139)" font-family="-apple-system" font-size="12" font-weight="400">on</text><text x="579.95" y="157.56" fill="rgb(100, 116, 139)" font-family="-apple-system" font-size="12" font-weight="400">the</text><text x="599.83" y="157.56" fill="rgb(100, 116, 139)" font-family="-apple-system" font-size="12" font-weight="400">host.</text><rect x="1324.89" y="126" width="62.11" height="34" rx="8" fill="rgb(30, 41, 59)" stroke="rgba(51, 65, 85, 0.5)" stroke-width="1"/><text x="1341.89" y="146.56" fill="rgb(226, 232, 240)" font-family="-apple-system" font-size="12" font-weight="500">Retry</text><rect x="574" y="208" width="548" height="212" rx="12" fill="rgba(30, 41, 59, 0.6)" stroke="rgba(51, 65, 85, 0.4)" stroke-width="1"/><rect x="575" y="209" width="546" height="71" rx="0" fill="none" stroke="rgba(51, 65, 85, 0.4)" stroke-width="1"/><rect x="591" y="225" width="300" height="38" rx="8" fill="rgba(15, 23, 42, 0.5)" stroke="rgb(51, 65, 85)" stroke-width="1"/><text x="603" y="249.32" fill="rgb(241, 245, 249)" font-family="-apple-system" font-size="14" font-weight="400">Search by name or IP...</text><rect x="903" y="225" width="106" height="38" rx="8" fill="rgba(15, 23, 42, 0.5)" stroke="rgb(51, 65, 85)" stroke-width="1"/><text x="915" y="249.32" fill="rgb(241, 245, 249)" font-family="-apple-system" font-size="14" font-weight="400">All Status</text><path d="M 991 242 l 5 5 l 5 -5" fill="none" stroke="rgb(241, 245, 249)" stroke-width="1.4"/><rect x="1021" y="225" width="84" height="38" rx="8" fill="rgba(15, 23, 42, 0.5)" stroke="rgb(51, 65, 85)" stroke-width="1"/><text x="1033" y="249.32" fill="rgb(241, 245, 249)" font-family="-apple-system" font-size="14" font-weight="400">All OS</text><path d="M 1087 242 l 5 5 l 5 -5" fill="none" stroke="rgb(241, 245, 249)" stroke-width="1.4"/><rect x="575" y="280" width="546" height="39" rx="0" fill="rgba(15, 23, 42, 0.3)"/><text x="591" y="302.8" fill="rgb(100, 116, 139)" font-family="-apple-system" font-size="10" font-weight="600" letter-spacing="0.5">Device</text><text x="673.84" y="302.8" fill="rgb(100, 116, 139)" font-family="-apple-system" font-size="10" font-weight="600" letter-spacing="0.5">Status</text><text x="760.36" y="302.8" fill="rgb(100, 116, 139)" font-family="-apple-system" font-size="10" font-weight="600" letter-spacing="0.5">OS</text><text x="815.84" y="302.8" fill="rgb(100, 116, 139)" font-family="-apple-system" font-size="10" font-weight="600" letter-spacing="0.5">Tailscale</text><text x="874.47" y="302.8" fill="rgb(100, 116, 139)" font-family="-apple-system" font-size="10" font-weight="600" letter-spacing="0.5">IP</text><text x="937.55" y="302.8" fill="rgb(100, 116, 139)" font-family="-apple-system" font-size="10" font-weight="600" letter-spacing="0.5">Last</text><text x="966.81" y="302.8" fill="rgb(100, 116, 139)" font-family="-apple-system" font-size="10" font-weight="600" letter-spacing="0.5">Seen</text><text x="1059.23" y="302.8" fill="rgb(100, 116, 139)" font-family="-apple-system" font-size="10" font-weight="600" letter-spacing="0.5">Actions</text><text x="785.16" y="373.32" fill="rgb(100, 116, 139)" font-family="-apple-system" font-size="14" font-weight="400">No</text><text x="806.59" y="373.32" fill="rgb(100, 116, 139)" font-family="-apple-system" font-size="14" font-weight="400">devices</text><text x="857.45" y="373.32" fill="rgb(100, 116, 139)" font-family="-apple-system" font-size="14" font-weight="400">in</text><text x="872.06" y="373.32" fill="rgb(100, 116, 139)" font-family="-apple-system" font-size="14" font-weight="400">tailnet</text><rect x="1146" y="208" width="262" height="762" rx="12" fill="rgba(30, 41, 59, 0.6)" stroke="rgba(51, 65, 85, 0.4)" stroke-width="1"/><svg fill="none" viewBox="0 0 24 24" stroke-width="1.5" stroke="currentColor" x="1167" y="231" width="16" height="16" color="rgb(192, 132, 252)" style="color:rgb(192, 132, 252);overflow:visible" xmlns="http://www.w3.org/2000/svg"><path stroke-linecap="round" stroke-linejoin="round" d="M13.19 8.688a4.5 4.5 0 011.242 7.244l-4.5 4.5a4.5 4.5 0 01-6.364-6.364l1.757-1.757m13.35-.622l1.757-1.757a4.5 4.5 0 00-6.364-6.364l-4.5 4.5a4.5 4.5 0 001.242 7.244"></path></svg><text x="1191" y="243.32" fill="rgb(226, 232, 240)" font-family="-apple-system" font-size="14" font-weight="700" letter-spacing="0.7">Published</text><text x="1275.81" y="243.32" fill="rgb(226, 232, 240)" font-family="-apple-system" font-size="14" font-weight="700" letter-spacing="0.7">via</text><text x="1304.48" y="243.32" fill="rgb(226, 232, 240)" font-family="-apple-system" font-size="14" font-weight="700" letter-spacing="0.7">Tailnet</text><rect x="1167" y="265" width="220" height="103" rx="8" fill="rgba(15, 23, 42, 0.4)" stroke="rgba(51, 65, 85, 0.5)" stroke-width="1"/><text x="1180" y="292.32" fill="rgb(226, 232, 240)" font-family="-apple-system" font-size="14" font-weight="500">Home</text><text x="1221.11" y="292.32" fill="rgb(226, 232, 240)" font-family="-apple-system" font-size="14" font-weight="500">Assistant</text><rect x="1366" y="284" width="8" height="8" rx="9999" fill="rgb(74, 222, 128)"/><text x="1180" y="318.43" fill="rgb(148, 163, 184)" font-family="ui-monospace" font-size="11" font-weight="400">:</text><text x="1186.61" y="318.43" fill="rgb(148, 163, 184)" font-family="ui-monospace" font-size="11" font-weight="400">8123</text><svg fill="none" viewBox="0 0 24 24" stroke-width="1.5" stroke="currentColor" x="1328" y="308" width="14" height="14" color="rgb(96, 165, 250)" style="color:rgb(96, 165, 250);overflow:visible" xmlns="http://www.w3.org/2000/svg"><path stroke-linecap="round" stroke-linejoin="round" d="M13.5 6H5.25A2.25 2.25 0 003 8.25v10.5A2.25 2.25 0 005.25 21h10.5A2.25 2.25 0 0018 18.75V10.5m-10.5 6L21 3m0 0h-5.25M21 3v5.25"></path></svg><svg fill="none" viewBox="0 0 24 24" stroke-width="1.5" stroke="currentColor" x="1356" y="308" width="14" height="14" color="rgb(100, 116, 139)" style="color:rgb(100, 116, 139);overflow:visible" xmlns="http://www.w3.org/2000/svg"><path stroke-linecap="round" stroke-linejoin="round" d="M15.666 3.888A2.25 2.25 0 0013.5 2.25h-3c-1.03 0-1.9.693-2.166 1.638m7.332 0c.055.194.084.4.084.612v0a.75.75 0 01-.75.75H9.75a.75.75 0 01-.75-.75v0c0-.212.03-.418.084-.612m7.332 0c.646.049 1.288.11 1.927.184 1.1.128 1.907 1.077 1.907 2.185V19.5a2.25 2.25 0 01-2.25 2.25H6.75A2.25 2.25 0 014.5 19.5V6.257c0-1.108.806-2.057 1.907-2.185a48.208 48.208 0 011.927-.184"></path></svg><rect x="1180" y="334" width="82.91" height="21" rx="4" fill="rgb(30, 41, 59)" stroke="rgba(51, 65, 85, 0.5)" stroke-width="1"/><text x="1187" y="347.8" fill="rgb(100, 116, 139)" font-family="-apple-system" font-size="10" font-weight="400">home-assistant</text><rect x="1167" y="376" width="220" height="103" rx="8" fill="rgba(15, 23, 42, 0.4)" stroke="rgba(51, 65, 85, 0.5)" stroke-width="1"/><text x="1180" y="403.32" fill="rgb(226, 232, 240)" font-family="-apple-system" font-size="14" font-weight="500">grafana</text><rect x="1366" y="395" width="8" height="8" rx="9999" fill="rgb(74, 222, 128)"/><text x="1180" y="429.43" fill="rgb(148, 163, 184)" font-family="ui-monospace" font-size="11" font-weight="400">:</text><text x="1186.61" y="429.43" fill="rgb(148, 163, 184)" font-family="ui-monospace" font-size="11" font-weight="400">3000</text><svg fill="none" viewBox="0 0 24 24" stroke-width="1.5" stroke="currentColor" x="1328" y="419" width="14" height="14" color="rgb(96, 165, 250)" style="color:rgb(96, 165, 250);overflow:visible" xmlns="http://www.w3.org/2000/svg"><path stroke-linecap="round" stroke-linejoin="round" d="M13.5 6H5.25A2.25 2.25 0 003 8.25v10.5A2.25 2.25 0 005.25 21h10.5A2.25 2.25 0 0018 18.75V10.5m-10.5 6L21 3m0 0h-5.25M21 3v5.25"></path></svg><svg fill="none" viewBox="0 0 24 24" stroke-width="1.5" stroke="currentColor" x="1356" y="419" width="14" height="14" color="rgb(100, 116, 139)" style="color:rgb(100, 116, 139);overflow:visible" xmlns="http://www.w3.org/2000/svg"><path stroke-linecap="round" stroke-linejoin="round" d="M15.666 3.888A2.25 2.25 0 0013.5 2.25h-3c-1.03 0-1.9.693-2.166 1.638m7.332 0c.055.194.084.4.084.612v0a.75.75 0 01-.75.75H9.75a.75.75 0 01-.75-.75v0c0-.212.03-.418.084-.612m7.332 0c.646.049 1.288.11 1.927.184 1.1.128 1.907 1.077 1.907 2.185V19.5a2.25 2.25 0 01-2.25 2.25H6.75A2.25 2.25 0 014.5 19.5V6.257c0-1.108.806-2.057 1.907-2.185a48.208 48.208 0 011.927-.184"></path></svg><rect x="1180" y="445" width="48.14" height="21" rx="4" fill="rgb(30, 41, 59)" stroke="rgba(51, 65, 85, 0.5)" stroke-width="1"/><text x="1187" y="458.8" fill="rgb(100, 116, 139)" font-family="-apple-system" font-size="10" font-weight="400">grafana</text><rect x="1167" y="487" width="220" height="103" rx="8" fill="rgba(15, 23, 42, 0.4)" stroke="rgba(51, 65, 85, 0.5)" stroke-width="1"/><text x="1180" y="514.32" fill="rgb(226, 232, 240)" font-family="-apple-system" font-size="14" font-weight="500">Plex</text><text x="1210.58" y="514.32" fill="rgb(226, 232, 240)" font-family="-apple-system" font-size="14" font-weight="500">Media</text><rect x="1366" y="506" width="8" height="8" rx="9999" fill="rgb(74, 222, 128)"/><text x="1180" y="540.43" fill="rgb(148, 163, 184)" font-family="ui-monospace" font-size="11" font-weight="400">:</text><text x="1186.61" y="540.43" fill="rgb(148, 163, 184)" font-family="ui-monospace" font-size="11" font-weight="400">32400</text><svg fill="none" viewBox="0 0 24 24" stroke-width="1.5" stroke="currentColor" x="1328" y="530" width="14" height="14" color="rgb(96, 165, 250)" style="color:rgb(96, 165, 250);overflow:visible" xmlns="http://www.w3.org/2000/svg"><path stroke-linecap="round" stroke-linejoin="round" d="M13.5 6H5.25A2.25 2.25 0 003 8.25v10.5A2.25 2.25 0 005.25 21h10.5A2.25 2.25 0 0018 18.75V10.5m-10.5 6L21 3m0 0h-5.25M21 3v5.25"></path></svg><svg fill="none" viewBox="0 0 24 24" stroke-width="1.5" stroke="currentColor" x="1356" y="530" width="14" height="14" color="rgb(100, 116, 139)" style="color:rgb(100, 116, 139);overflow:visible" xmlns="http://www.w3.org/2000/svg"><path stroke-linecap="round" stroke-linejoin="round" d="M15.666 3.888A2.25 2.25 0 0013.5 2.25h-3c-1.03 0-1.9.693-2.166 1.638m7.332 0c.055.194.084.4.084.612v0a.75.75 0 01-.75.75H9.75a.75.75 0 01-.75-.75v0c0-.212.03-.418.084-.612m7.332 0c.646.049 1.288.11 1.927.184 1.1.128 1.907 1.077 1.907 2.185V19.5a2.25 2.25 0 01-2.25 2.25H6.75A2.25 2.25 0 014.5 19.5V6.257c0-1.108.806-2.057 1.907-2.185a48.208 48.208 0 011.927-.184"></path></svg><rect x="1180" y="556" width="32.31" height="21" rx="4" fill="rgb(30, 41, 59)" stroke="rgba(51, 65, 85, 0.5)" stroke-width="1"/><text x="1187" y="569.8" fill="rgb(100, 116, 139)" font-family="-apple-system" font-size="10" font-weight="400">plex</text><rect x="1167" y="598" width="220" height="129" rx="8" fill="rgba(15, 23, 42, 0.4)" stroke="rgba(51, 65, 85, 0.5)" stroke-width="1"/><text x="1180" y="625.32" fill="rgb(226, 232, 240)" font-family="-apple-system" font-size="14" font-weight="500">minio</text><rect x="1366" y="617" width="8" height="8" rx="9999" fill="rgb(100, 116, 139)"/><text x="1180" y="651.43" fill="rgb(148, 163, 184)" font-family="ui-monospace" font-size="11" font-weight="400">:</text><text x="1186.61" y="651.43" fill="rgb(148, 163, 184)" font-family="ui-monospace" font-size="11" font-weight="400">9000</text><svg fill="none" viewBox="0 0 24 24" stroke-width="1.5" stroke="currentColor" x="1328" y="641" width="14" height="14" color="rgb(96, 165, 250)" style="color:rgb(96, 165, 250);overflow:visible" xmlns="http://www.w3.org/2000/svg"><path stroke-linecap="round" stroke-linejoin="round" d="M13.5 6H5.25A2.25 2.25 0 003 8.25v10.5A2.25 2.25 0 005.25 21h10.5A2.25 2.25 0 0018 18.75V10.5m-10.5 6L21 3m0 0h-5.25M21 3v5.25"></path></svg><svg fill="none" viewBox="0 0 24 24" stroke-width="1.5" stroke="currentColor" x="1356" y="641" width="14" height="14" color="rgb(100, 116, 139)" style="color:rgb(100, 116, 139);overflow:visible" xmlns="http://www.w3.org/2000/svg"><path stroke-linecap="round" stroke-linejoin="round" d="M15.666 3.888A2.25 2.25 0 0013.5 2.25h-3c-1.03 0-1.9.693-2.166 1.638m7.332 0c.055.194.084.4.084.612v0a.75.75 0 01-.75.75H9.75a.75.75 0 01-.75-.75v0c0-.212.03-.418.084-.612m7.332 0c.646.049 1.288.11 1.927.184 1.1.128 1.907 1.077 1.907 2.185V19.5a2.25 2.25 0 01-2.25 2.25H6.75A2.25 2.25 0 014.5 19.5V6.257c0-1.108.806-2.057 1.907-2.185a48.208 48.208 0 011.927-.184"></path></svg><text x="1180" y="677.43" fill="rgb(148, 163, 184)" font-family="ui-monospace" font-size="11" font-weight="400">:</text><text x="1186.61" y="677.43" fill="rgb(148, 163, 184)" font-family="ui-monospace" font-size="11" font-weight="400">9001</text><svg fill="none" viewBox="0 0 24 24" stroke-width="1.5" stroke="currentColor" x="1328" y="667" width="14" height="14" color="rgb(96, 165, 250)" style="color:rgb(96, 165, 250);overflow:visible" xmlns="http://www.w3.org/2000/svg"><path stroke-linecap="round" stroke-linejoin="round" d="M13.5 6H5.25A2.25 2.25 0 003 8.25v10.5A2.25 2.25 0 005.25 21h10.5A2.25 2.25 0 0018 18.75V10.5m-10.5 6L21 3m0 0h-5.25M21 3v5.25"></path></svg><svg fill="none" viewBox="0 0 24 24" stroke-width="1.5" stroke="currentColor" x="1356" y="667" width="14" height="14" color="rgb(100, 116, 139)" style="color:rgb(100, 116, 139);overflow:visible" xmlns="http://www.w3.org/2000/svg"><path stroke-linecap="round" stroke-linejoin="round" d="M15.666 3.888A2.25 2.25 0 0013.5 2.25h-3c-1.03 0-1.9.693-2.166 1.638m7.332 0c.055.194.084.4.084.612v0a.75.75 0 01-.75.75H9.75a.75.75 0 01-.75-.75v0c0-.212.03-.418.084-.612m7.332 0c.646.049 1.288.11 1.927.184 1.1.128 1.907 1.077 1.907 2.185V19.5a2.25 2.25 0 01-2.25 2.25H6.75A2.25 2.25 0 014.5 19.5V6.257c0-1.108.806-2.057 1.907-2.185a48.208 48.208 0 011.927-.184"></path></svg><rect x="1180" y="693" width="38.86" height="21" rx="4" fill="rgb(30, 41, 59)" stroke="rgba(51, 65, 85, 0.5)" stroke-width="1"/><text x="1187" y="706.8" fill="rgb(100, 116, 139)" font-family="-apple-system" font-size="10" font-weight="400">minio</text><rect x="1167" y="735" width="220" height="103" rx="8" fill="rgba(15, 23, 42, 0.4)" stroke="rgba(51, 65, 85, 0.5)" stroke-width="1"/><text x="1180" y="762.32" fill="rgb(226, 232, 240)" font-family="-apple-system" font-size="14" font-weight="500">Paperless</text><rect x="1366" y="754" width="8" height="8" rx="9999" fill="rgb(248, 113, 113)"/><text x="1180" y="788.43" fill="rgb(148, 163, 184)" font-family="ui-monospace" font-size="11" font-weight="400">:</text><text x="1186.61" y="788.43" fill="rgb(148, 163, 184)" font-family="ui-monospace" font-size="11" font-weight="400">8000</text><svg fill="none" viewBox="0 0 24 24" stroke-width="1.5" stroke="currentColor" x="1328" y="778" width="14" height="14" color="rgb(96, 165, 250)" style="color:rgb(96, 165, 250);overflow:visible" xmlns="http://www.w3.org/2000/svg"><path stroke-linecap="round" stroke-linejoin="round" d="M13.5 6H5.25A2.25 2.25 0 003 8.25v10.5A2.25 2.25 0 005.25 21h10.5A2.25 2.25 0 0018 18.75V10.5m-10.5 6L21 3m0 0h-5.25M21 3v5.25"></path></svg><svg fill="none" viewBox="0 0 24 24" stroke-width="1.5" stroke="currentColor" x="1356" y="778" width="14" height="14" color="rgb(100, 116, 139)" style="color:rgb(100, 116, 139);overflow:visible" xmlns="http://www.w3.org/2000/svg"><path stroke-linecap="round" stroke-linejoin="round" d="M15.666 3.888A2.25 2.25 0 0013.5 2.25h-3c-1.03 0-1.9.693-2.166 1.638m7.332 0c.055.194.084.4.084.612v0a.75.75 0 01-.75.75H9.75a.75.75 0 01-.75-.75v0c0-.212.03-.418.084-.612m7.332 0c.646.049 1.288.11 1.927.184 1.1.128 1.907 1.077 1.907 2.185V19.5a2.25 2.25 0 01-2.25 2.25H6.75A2.25 2.25 0 014.5 19.5V6.257c0-1.108.806-2.057 1.907-2.185a48.208 48.208 0 011.927-.184"></path></svg><rect x="1180" y="804" width="76.28" height="21" rx="4" fill="rgb(30, 41, 59)" stroke="rgba(51, 65, 85, 0.5)" stroke-width="1"/><text x="1187" y="817.8" fill="rgb(100, 116, 139)" font-family="-apple-system" font-size="10" font-weight="400">paperless-ngx</text><rect x="1167" y="846" width="220" height="103" rx="8" fill="rgba(15, 23, 42, 0.4)" stroke="rgba(51, 65, 85, 0.5)" stroke-width="1"/><text x="1180" y="873.32" fill="rgb(226, 232, 240)" font-family="-apple-system" font-size="14" font-weight="500">Dashgo</text><rect x="1366" y="865" width="8" height="8" rx="9999" fill="rgb(74, 222, 128)"/><text x="1180" y="899.43" fill="rgb(148, 163, 184)" font-family="ui-monospace" font-size="11" font-weight="400">:</text><text x="1186.61" y="899.43" fill="rgb(148, 163, 184)" font-family="ui-monospace" font-size="11" font-weight="400">8080</text><svg fill="none" viewBox="0 0 24 24" stroke-width="1.5" stroke="currentColor" x="1328" y="889" width="14" height="14" color="rgb(96, 165, 250)" style="color:rgb(96, 165, 250);overflow:visible" xmlns="http://www.w3.org/2000/svg"><path stroke-linecap="round" stroke-linejoin="round" d="M13.5 6H5.25A2.25 2.25 0 003 8.25v10.5A2.25 2.25 0 005.25 21h10.5A2.25 2.25 0 0018 18.75V10.5m-10.5 6L21 3m0 0h-5.25M21 3v5.25"></path></svg><svg fill="none" viewBox="0 0 24 24" stroke-width="1.5" stroke="currentColor" x="1356" y="889" width="14" height="14" color="rgb(100, 116, 139)" style="color:rgb(100, 116, 139);overflow:visible" xmlns="http://www.w3.org/2000/svg"><path stroke-linecap="round" stroke-linejoin="round" d="M15.666 3.888A2.25 2.25 0 0013.5 2.25h-3c-1.03 0-1.9.693-2.166 1.638m7.332 0c.055.194.084.4.084.612v0a.75.75 0 01-.75.75H9.75a.75.75 0 01-.75-.75v0c0-.212.03-.418.084-.612m7.332 0c.646.049 1.288.11 1.927.184 1.1.128 1.907 1.077 1.907 2.185V19.5a2.25 2.25 0 01-2.25 2.25H6.75A2.25 2.25 0 014.5 19.5V6.257c0-1.108.806-2.057 1.907-2.185a48.208 48.208 0 011.927-.184"></path></svg><rect x="1180" y="915" width="47.08" height="21" rx="4" fill="rgb(30, 41, 59)" stroke="rgba(51, 65, 85, 0.5)" stroke-width="1"/><text x="1187" y="928.8" fill="rgb(100, 116, 139)" font-family="-apple-system" font-size="10" font-weight="400">dashgo</text></svg>