<svg xmlns="http://www.w3.org/2000/svg" width="840" height="260"><rect width="840" height="260" fill="#0F172A"/><rect x="16" y="16" width="180" height="96" rx="12" fill="#1E293B" stroke="#334155"/><rect x="32" y="36" width="72" height="10" rx="3" fill="#64748B"/><rect x="32" y="62" width="64" height="24" rx="4" fill="#4ADE80"/><rect x="212" y="16" width="180" height="96" rx="12" fill="#1E293B" stroke="#334155"/><rect x="228" y="36" width="72" height="10" rx="3" fill="#64748B"/><rect x="228" y="62" width="88" height="24" rx="4" fill="#60A5FA"/><rect x="408" y="16" width="180" height="96" rx="12" fill="#1E293B" stroke="#334155"/><rect x="424" y="36" width="72" height="10" rx="3" fill="#64748B"/><rect x="424" y="62" width="72" height="24" rx="4" fill="#C084FC"/><rect x="604" y="16" width="180" height="96" rx="12" fill="#1E293B" stroke="#334155"/><rect x="620" y="36" width="72" height="10" rx="3" fill="#64748B"/><rect x="620" y="62" width="54" height="24" rx="4" fill="#22D3EE"/><rect x="16" y="144" width="768" height="88" rx="12" fill="#1E293B" stroke="#334155"/><rect x="36" y="164" width="164" height="14" rx="4" fill="#F8FAFC"/><rect x="36" y="190" width="242" height="10" rx="3" fill="#64748B"/><rect x="684" y="166" width="76" height="28" rx="14" fill="#22C55E1A" stroke="#22C55E33"/></svg>
